<svg xmlns="http://www.w3.org/2000/svg" width="1920" height="1080" viewBox="112 108 1536 864">
  <title>Valkey connection backoff jitter</title>
  <desc>A tight vertical wall of simultaneous reconnect attempts in red on the left, fanning out to the right into a wide staggered spread of retries ending in green, representing backoff jitter spreading a connection storm out over time.</desc>
  <defs>
    <linearGradient id="sky" x1="0" y1="0" x2="0.32" y2="1">
      <stop offset="0" stop-color="#060A24"/>
      <stop offset="0.48" stop-color="#171043"/>
      <stop offset="1" stop-color="#301868"/>
    </linearGradient>
    <radialGradient id="focus" gradientUnits="userSpaceOnUse" cx="640" cy="540" r="900">
      <stop offset="0" stop-color="#00A3E0" stop-opacity="0.42"/>
      <stop offset="0.35" stop-color="#963CBD" stop-opacity="0.20"/>
      <stop offset="1" stop-color="#963CBD" stop-opacity="0"/>
    </radialGradient>
    <radialGradient id="vignette" gradientUnits="userSpaceOnUse" cx="960" cy="540" r="1180">
      <stop offset="0.5" stop-color="#03040F" stop-opacity="0"/>
      <stop offset="1" stop-color="#03040F" stop-opacity="0.8"/>
    </radialGradient>
    <radialGradient id="scrim">
      <stop offset="0" stop-color="#060A24" stop-opacity="0.72"/>
      <stop offset="0.6" stop-color="#060A24" stop-opacity="0.45"/>
      <stop offset="1" stop-color="#060A24" stop-opacity="0"/>
    </radialGradient>
    <filter id="grain" x="0" y="0" width="100%" height="100%">
      <feTurbulence type="fractalNoise" baseFrequency="0.85" numOctaves="4" stitchTiles="stitch"/>
      <feColorMatrix type="saturate" values="0"/>
    </filter>
    <radialGradient id="h-cyan"><stop offset="0" stop-color="#46BDE9" stop-opacity="0.75"/><stop offset="0.4" stop-color="#46BDE9" stop-opacity="0.22"/><stop offset="1" stop-color="#46BDE9" stop-opacity="0"/></radialGradient>
    <radialGradient id="h-ice"><stop offset="0" stop-color="#CCF1FF" stop-opacity="0.75"/><stop offset="0.4" stop-color="#CCF1FF" stop-opacity="0.22"/><stop offset="1" stop-color="#CCF1FF" stop-opacity="0"/></radialGradient>
    <radialGradient id="h-mint"><stop offset="0" stop-color="#2CD5C4" stop-opacity="0.75"/><stop offset="0.4" stop-color="#2CD5C4" stop-opacity="0.22"/><stop offset="1" stop-color="#2CD5C4" stop-opacity="0"/></radialGradient>
    <radialGradient id="h-coral"><stop offset="0" stop-color="#F65275" stop-opacity="0.75"/><stop offset="0.4" stop-color="#F65275" stop-opacity="0.22"/><stop offset="1" stop-color="#F65275" stop-opacity="0"/></radialGradient>
    <radialGradient id="h-violet"><stop offset="0" stop-color="#963CBD" stop-opacity="0.75"/><stop offset="0.4" stop-color="#963CBD" stop-opacity="0.22"/><stop offset="1" stop-color="#963CBD" stop-opacity="0"/></radialGradient>
    <radialGradient id="h-gold"><stop offset="0" stop-color="#FFB81C" stop-opacity="0.75"/><stop offset="0.4" stop-color="#FFB81C" stop-opacity="0.22"/><stop offset="1" stop-color="#FFB81C" stop-opacity="0"/></radialGradient>
    <filter id="blur3" x="-70%" y="-70%" width="240%" height="240%"><feGaussianBlur stdDeviation="3"/></filter>
    <filter id="blur8" x="-70%" y="-70%" width="240%" height="240%"><feGaussianBlur stdDeviation="8"/></filter>
    <filter id="blur18" x="-70%" y="-70%" width="240%" height="240%"><feGaussianBlur stdDeviation="18"/></filter>
    <filter id="blur40" x="-70%" y="-70%" width="240%" height="240%"><feGaussianBlur stdDeviation="40"/></filter>
  </defs>
  <rect width="1920" height="1080" fill="url(#sky)"/>
  <rect width="1920" height="1080" fill="url(#focus)"/>
  <g><circle cx="838.7" cy="1037.7" r="2.7" fill="#CCF1FF" opacity="0.2"/><circle cx="478.7" cy="543.4" r="1" fill="#CCF1FF" opacity="0.3"/><circle cx="677" cy="729.7" r="1.5" fill="#CCF1FF" opacity="0.3"/><circle cx="334.8" cy="814.7" r="1.4" fill="#CCF1FF" opacity="0.2"/><circle cx="282.8" cy="38.9" r="2.4" fill="#CCF1FF" opacity="0.3"/><circle cx="400" cy="135.9" r="1.6" fill="#CCF1FF" opacity="0.2"/><circle cx="980.8" cy="1013.8" r="2.6" fill="#CCF1FF" opacity="0.4"/><circle cx="1249.7" cy="408.9" r="1.4" fill="#CCF1FF" opacity="0.2"/><circle cx="1584.2" cy="132.6" r="2.2" fill="#CCF1FF" opacity="0.2"/><circle cx="1870.8" cy="375.4" r="1.6" fill="#CCF1FF" opacity="0.4"/><circle cx="707" cy="167.6" r="1.8" fill="#CCF1FF" opacity="0.1"/><circle cx="1298.8" cy="120" r="2" fill="#CCF1FF" opacity="0.3"/><circle cx="755" cy="682.3" r="2.5" fill="#CCF1FF" opacity="0.2"/><circle cx="738.1" cy="748.8" r="0.9" fill="#CCF1FF" opacity="0.1"/><circle cx="683.5" cy="663.3" r="0.9" fill="#CCF1FF" opacity="0.3"/><circle cx="764.4" cy="41.2" r="2.1" fill="#CCF1FF" opacity="0.2"/><circle cx="1037.1" cy="637.8" r="1.6" fill="#CCF1FF" opacity="0.1"/><circle cx="189.1" cy="135.1" r="2.4" fill="#CCF1FF" opacity="0.2"/><circle cx="567" cy="281.4" r="1.9" fill="#CCF1FF" opacity="0.1"/><circle cx="1609.2" cy="789" r="2.1" fill="#CCF1FF" opacity="0.1"/><circle cx="58.8" cy="86.8" r="1.2" fill="#CCF1FF" opacity="0.2"/><circle cx="645.6" cy="609.7" r="2.4" fill="#CCF1FF" opacity="0.2"/><circle cx="865.9" cy="764.6" r="1.2" fill="#CCF1FF" opacity="0.1"/><circle cx="1643.3" cy="1005.9" r="0.8" fill="#CCF1FF" opacity="0.4"/><circle cx="1619" cy="64.7" r="2.4" fill="#CCF1FF" opacity="0.2"/><circle cx="429.2" cy="417.9" r="1.9" fill="#CCF1FF" opacity="0.1"/><circle cx="1545.1" cy="459.4" r="2.2" fill="#CCF1FF" opacity="0.3"/><circle cx="1644.1" cy="946.9" r="1.6" fill="#CCF1FF" opacity="0.3"/><circle cx="1341.9" cy="624.2" r="2.6" fill="#CCF1FF" opacity="0.2"/><circle cx="1449.7" cy="356.9" r="1.3" fill="#CCF1FF" opacity="0.2"/><circle cx="296.6" cy="895.6" r="2.5" fill="#CCF1FF" opacity="0.4"/><circle cx="1830.3" cy="215.7" r="1.2" fill="#CCF1FF" opacity="0.2"/><circle cx="271.9" cy="863.3" r="1.3" fill="#CCF1FF" opacity="0.3"/><circle cx="1518.2" cy="730.8" r="2" fill="#CCF1FF" opacity="0.3"/><circle cx="1447.8" cy="354.9" r="1.6" fill="#CCF1FF" opacity="0.1"/><circle cx="1848.2" cy="483" r="2.5" fill="#CCF1FF" opacity="0.2"/><circle cx="1449.7" cy="150.3" r="1.8" fill="#CCF1FF" opacity="0.2"/><circle cx="620.1" cy="1037.7" r="1.8" fill="#CCF1FF" opacity="0.2"/><circle cx="371.8" cy="338.2" r="1.8" fill="#CCF1FF" opacity="0.2"/><circle cx="1148.7" cy="991.9" r="1.4" fill="#CCF1FF" opacity="0.2"/><circle cx="1244.2" cy="567.1" r="1.3" fill="#CCF1FF" opacity="0.4"/><circle cx="236.2" cy="639.7" r="2.3" fill="#CCF1FF" opacity="0.3"/><circle cx="1314.9" cy="481.5" r="2.3" fill="#CCF1FF" opacity="0.3"/><circle cx="910" cy="952" r="2.6" fill="#CCF1FF" opacity="0.2"/><circle cx="1722.1" cy="752.8" r="2.7" fill="#CCF1FF" opacity="0.3"/><circle cx="316.3" cy="157.7" r="2.6" fill="#CCF1FF" opacity="0.1"/><circle cx="1919.5" cy="871.2" r="0.9" fill="#CCF1FF" opacity="0.1"/><circle cx="910" cy="965.7" r="1.8" fill="#CCF1FF" opacity="0.3"/><circle cx="574.1" cy="535.3" r="0.8" fill="#CCF1FF" opacity="0.1"/><circle cx="324" cy="642.6" r="1.6" fill="#CCF1FF" opacity="0.3"/><circle cx="1262.4" cy="475.3" r="1.4" fill="#CCF1FF" opacity="0.4"/><circle cx="1475.8" cy="1066.4" r="1.1" fill="#CCF1FF" opacity="0.4"/><circle cx="1022.2" cy="1059.6" r="1.5" fill="#CCF1FF" opacity="0.2"/><circle cx="1567.5" cy="423.8" r="2" fill="#CCF1FF" opacity="0.3"/><circle cx="1855.9" cy="82.1" r="2.1" fill="#CCF1FF" opacity="0.3"/></g>
  <ellipse cx="430" cy="540" rx="130" ry="300" fill="url(#h-coral)" opacity="0.4"/>
  <ellipse cx="1180" cy="540" rx="380" ry="420" fill="url(#h-mint)" opacity="0.14"/>
  <g><path d="M 430 298 L 442.9 295.8 L 480.2 289.6 L 579.5 273.1 L 696.1 253.6 L 926.7 215.2" fill="none" stroke="#46BDE9" stroke-width="1.6" opacity="0.28"/><circle cx="442.9" cy="295.8" r="4.6" fill="#F65275" opacity="0.5"/><circle cx="480.2" cy="289.6" r="5.1" fill="#FFB81C" opacity="0.6"/><circle cx="579.5" cy="273.1" r="5.6" fill="#FFB81C" opacity="0.8"/><circle cx="696.1" cy="253.6" r="6.1" fill="#FFB81C" opacity="0.9"/><path d="M 430 319 L 452.3 315.6 L 503.9 307.8 L 606.3 292.2 L 765.7 268 L 1057.4 223.5" fill="none" stroke="#46BDE9" stroke-width="1.6" opacity="0.28"/><circle cx="452.3" cy="315.6" r="4.6" fill="#F65275" opacity="0.5"/><circle cx="503.9" cy="307.8" r="5.1" fill="#FFB81C" opacity="0.6"/><circle cx="606.3" cy="292.2" r="5.6" fill="#FFB81C" opacity="0.8"/><circle cx="765.7" cy="268" r="6.1" fill="#FFB81C" opacity="0.9"/><path d="M 430 340.1 L 479.6 333.3 L 563.2 321.7 L 690.2 304.3 L 1129.5 243.8" fill="none" stroke="#46BDE9" stroke-width="1.6" opacity="0.28"/><circle cx="479.6" cy="333.3" r="4.6" fill="#F65275" opacity="0.5"/><circle cx="563.2" cy="321.7" r="5.1" fill="#FFB81C" opacity="0.6"/><circle cx="690.2" cy="304.3" r="5.6" fill="#FFB81C" opacity="0.8"/><path d="M 430 361.1 L 477.1 355.3 L 565.8 344.4 L 676.4 330.8 L 841.7 310.4 L 1132.2 274.6" fill="none" stroke="#46BDE9" stroke-width="1.6" opacity="0.28"/><circle cx="477.1" cy="355.3" r="4.6" fill="#F65275" opacity="0.5"/><circle cx="565.8" cy="344.4" r="5.1" fill="#FFB81C" opacity="0.6"/><circle cx="676.4" cy="330.8" r="5.6" fill="#FFB81C" opacity="0.8"/><circle cx="841.7" cy="310.4" r="6.1" fill="#FFB81C" opacity="0.9"/><path d="M 430 382.2 L 482.1 376.5 L 584.4 365.4 L 690.5 353.9 L 941.4 326.6" fill="none" stroke="#46BDE9" stroke-width="1.6" opacity="0.28"/><circle cx="482.1" cy="376.5" r="4.6" fill="#F65275" opacity="0.5"/><circle cx="584.4" cy="365.4" r="5.1" fill="#FFB81C" opacity="0.6"/><circle cx="690.5" cy="353.9" r="5.6" fill="#FFB81C" opacity="0.8"/><path d="M 430 403.2 L 457.5 400.6 L 511.6 395.5 L 641.6 383.3 L 858.3 362.9 L 1136.8 336.6" fill="none" stroke="#46BDE9" stroke-width="1.6" opacity="0.28"/><circle cx="457.5" cy="400.6" r="4.6" fill="#F65275" opacity="0.5"/><circle cx="511.6" cy="395.5" r="5.1" fill="#FFB81C" opacity="0.6"/><circle cx="641.6" cy="383.3" r="5.6" fill="#FFB81C" opacity="0.8"/><circle cx="858.3" cy="362.9" r="6.1" fill="#FFB81C" opacity="0.9"/><path d="M 430 424.3 L 478.7 420.4 L 569.3 413.2 L 688.7 403.6 L 903.1 386.5 L 1297.9 355.1" fill="none" stroke="#46BDE9" stroke-width="1.6" opacity="0.28"/><circle cx="478.7" cy="420.4" r="4.6" fill="#F65275" opacity="0.5"/><circle cx="569.3" cy="413.2" r="5.1" fill="#FFB81C" opacity="0.6"/><circle cx="688.7" cy="403.6" r="5.6" fill="#FFB81C" opacity="0.8"/><circle cx="903.1" cy="386.5" r="6.1" fill="#FFB81C" opacity="0.9"/><path d="M 430 445.3 L 482 441.9 L 595.1 434.5 L 858.6 417.3 L 1199.6 395.1" fill="none" stroke="#46BDE9" stroke-width="1.6" opacity="0.28"/><circle cx="482" cy="441.9" r="4.6" fill="#F65275" opacity="0.5"/><circle cx="595.1" cy="434.5" r="5.1" fill="#FFB81C" opacity="0.6"/><circle cx="858.6" cy="417.3" r="5.6" fill="#FFB81C" opacity="0.8"/><path d="M 430 466.3 L 461.5 464.7 L 554.1 460.1 L 752.5 450 L 974.3 438.7" fill="none" stroke="#46BDE9" stroke-width="1.6" opacity="0.28"/><circle cx="461.5" cy="464.7" r="4.6" fill="#F65275" opacity="0.5"/><circle cx="554.1" cy="460.1" r="5.1" fill="#FFB81C" opacity="0.6"/><circle cx="752.5" cy="450" r="5.6" fill="#FFB81C" opacity="0.8"/><path d="M 430 487.4 L 460.9 486.3 L 505.3 484.7 L 616.9 480.6 L 807.6 473.7 L 1030.5 465.6" fill="none" stroke="#46BDE9" stroke-width="1.6" opacity="0.28"/><circle cx="460.9" cy="486.3" r="4.6" fill="#F65275" opacity="0.5"/><circle cx="505.3" cy="484.7" r="5.1" fill="#FFB81C" opacity="0.6"/><circle cx="616.9" cy="480.6" r="5.6" fill="#FFB81C" opacity="0.8"/><circle cx="807.6" cy="473.7" r="6.1" fill="#FFB81C" opacity="0.9"/><path d="M 430 508.4 L 465.3 507.7 L 557.6 505.7 L 699.6 502.6 L 888.7 498.5 L 1263.8 490.3" fill="none" stroke="#46BDE9" stroke-width="1.6" opacity="0.28"/><circle cx="465.3" cy="507.7" r="4.6" fill="#F65275" opacity="0.5"/><circle cx="557.6" cy="505.7" r="5.1" fill="#FFB81C" opacity="0.6"/><circle cx="699.6" cy="502.6" r="5.6" fill="#FFB81C" opacity="0.8"/><circle cx="888.7" cy="498.5" r="6.1" fill="#FFB81C" opacity="0.9"/><path d="M 430 529.5 L 460.8 529.3 L 515.5 528.9 L 647.5 527.9 L 909.6 526" fill="none" stroke="#46BDE9" stroke-width="1.6" opacity="0.28"/><circle cx="460.8" cy="529.3" r="4.6" fill="#F65275" opacity="0.5"/><circle cx="515.5" cy="528.9" r="5.1" fill="#FFB81C" opacity="0.6"/><circle cx="647.5" cy="527.9" r="5.6" fill="#FFB81C" opacity="0.8"/><path d="M 430 550.5 L 460.4 550.7 L 521.4 551.2 L 674.2 552.3 L 1092.1 555.3" fill="none" stroke="#46BDE9" stroke-width="1.6" opacity="0.28"/><circle cx="460.4" cy="550.7" r="4.6" fill="#F65275" opacity="0.5"/><circle cx="521.4" cy="551.2" r="5.1" fill="#FFB81C" opacity="0.6"/><circle cx="674.2" cy="552.3" r="5.6" fill="#FFB81C" opacity="0.8"/><path d="M 430 571.6 L 474.9 572.5 L 550.2 574.2 L 647.1 576.3 L 912.2 582.1" fill="none" stroke="#46BDE9" stroke-width="1.6" opacity="0.28"/><circle cx="474.9" cy="572.5" r="4.6" fill="#F65275" opacity="0.5"/><circle cx="550.2" cy="574.2" r="5.1" fill="#FFB81C" opacity="0.6"/><circle cx="647.1" cy="576.3" r="5.6" fill="#FFB81C" opacity="0.8"/><path d="M 430 592.6 L 476.1 594.3 L 586.1 598.3 L 813.8 606.5 L 1097.9 616.8" fill="none" stroke="#46BDE9" stroke-width="1.6" opacity="0.28"/><circle cx="476.1" cy="594.3" r="4.6" fill="#F65275" opacity="0.5"/><circle cx="586.1" cy="598.3" r="5.1" fill="#FFB81C" opacity="0.6"/><circle cx="813.8" cy="606.5" r="5.6" fill="#FFB81C" opacity="0.8"/><path d="M 430 613.7 L 468.4 615.6 L 542.2 619.3 L 626.7 623.6 L 892.3 637.1 L 1308.8 658.2" fill="none" stroke="#46BDE9" stroke-width="1.6" opacity="0.28"/><circle cx="468.4" cy="615.6" r="4.6" fill="#F65275" opacity="0.5"/><circle cx="542.2" cy="619.3" r="5.1" fill="#FFB81C" opacity="0.6"/><circle cx="626.7" cy="623.6" r="5.6" fill="#FFB81C" opacity="0.8"/><circle cx="892.3" cy="637.1" r="6.1" fill="#FFB81C" opacity="0.9"/><path d="M 430 634.7 L 471.6 637.4 L 545.8 642.2 L 682.4 651.2 L 930.4 667.3 L 1239.7 687.5" fill="none" stroke="#46BDE9" stroke-width="1.6" opacity="0.28"/><circle cx="471.6" cy="637.4" r="4.6" fill="#F65275" opacity="0.5"/><circle cx="545.8" cy="642.2" r="5.1" fill="#FFB81C" opacity="0.6"/><circle cx="682.4" cy="651.2" r="5.6" fill="#FFB81C" opacity="0.8"/><circle cx="930.4" cy="667.3" r="6.1" fill="#FFB81C" opacity="0.9"/><path d="M 430 655.7 L 480 659.7 L 571.2 667 L 684.6 676 L 838.3 688.3 L 1217.8 718.6" fill="none" stroke="#46BDE9" stroke-width="1.6" opacity="0.28"/><circle cx="480" cy="659.7" r="4.6" fill="#F65275" opacity="0.5"/><circle cx="571.2" cy="667" r="5.1" fill="#FFB81C" opacity="0.6"/><circle cx="684.6" cy="676" r="5.6" fill="#FFB81C" opacity="0.8"/><circle cx="838.3" cy="688.3" r="6.1" fill="#FFB81C" opacity="0.9"/><path d="M 430 676.8 L 482.5 681.7 L 524.7 685.7 L 669.3 699.3 L 842.6 715.7 L 1255.3 754.5" fill="none" stroke="#46BDE9" stroke-width="1.6" opacity="0.28"/><circle cx="482.5" cy="681.7" r="4.6" fill="#F65275" opacity="0.5"/><circle cx="524.7" cy="685.7" r="5.1" fill="#FFB81C" opacity="0.6"/><circle cx="669.3" cy="699.3" r="5.6" fill="#FFB81C" opacity="0.8"/><circle cx="842.6" cy="715.7" r="6.1" fill="#FFB81C" opacity="0.9"/><path d="M 430 697.8 L 528.4 708.5 L 619.4 718.4 L 863.7 745 L 1208.7 782.5" fill="none" stroke="#46BDE9" stroke-width="1.6" opacity="0.28"/><circle cx="528.4" cy="708.5" r="4.6" fill="#F65275" opacity="0.5"/><circle cx="619.4" cy="718.4" r="5.1" fill="#FFB81C" opacity="0.6"/><circle cx="863.7" cy="745" r="5.6" fill="#FFB81C" opacity="0.8"/><path d="M 430 718.9 L 487.6 726 L 553.7 734.1 L 720.8 754.7 L 968.6 785.2" fill="none" stroke="#46BDE9" stroke-width="1.6" opacity="0.28"/><circle cx="487.6" cy="726" r="4.6" fill="#F65275" opacity="0.5"/><circle cx="553.7" cy="734.1" r="5.1" fill="#FFB81C" opacity="0.6"/><circle cx="720.8" cy="754.7" r="5.6" fill="#FFB81C" opacity="0.8"/><path d="M 430 739.9 L 454.3 743.3 L 504.1 750.1 L 626.8 767 L 900.3 804.7 L 1187.7 844.3" fill="none" stroke="#46BDE9" stroke-width="1.6" opacity="0.28"/><circle cx="454.3" cy="743.3" r="4.6" fill="#F65275" opacity="0.5"/><circle cx="504.1" cy="750.1" r="5.1" fill="#FFB81C" opacity="0.6"/><circle cx="626.8" cy="767" r="5.6" fill="#FFB81C" opacity="0.8"/><circle cx="900.3" cy="804.7" r="6.1" fill="#FFB81C" opacity="0.9"/><path d="M 430 761 L 497.2 771.2 L 650.5 794.5 L 920 835.5 L 1099.6 862.9" fill="none" stroke="#46BDE9" stroke-width="1.6" opacity="0.28"/><circle cx="497.2" cy="771.2" r="4.6" fill="#F65275" opacity="0.5"/><circle cx="650.5" cy="794.5" r="5.1" fill="#FFB81C" opacity="0.6"/><circle cx="920" cy="835.5" r="5.6" fill="#FFB81C" opacity="0.8"/><path d="M 430 782 L 485.2 791.2 L 606.1 811.4 L 734.3 832.7 L 985.2 874.6" fill="none" stroke="#46BDE9" stroke-width="1.6" opacity="0.28"/><circle cx="485.2" cy="791.2" r="4.6" fill="#F65275" opacity="0.5"/><circle cx="606.1" cy="811.4" r="5.1" fill="#FFB81C" opacity="0.6"/><circle cx="734.3" cy="832.7" r="5.6" fill="#FFB81C" opacity="0.8"/></g>
  <g><circle cx="430" cy="298" r="15.6" fill="url(#h-coral)" opacity="0.7"/><circle cx="430" cy="298" r="6" fill="#F65275" opacity="1"/><circle cx="430" cy="319" r="15.6" fill="url(#h-coral)" opacity="0.7"/><circle cx="430" cy="319" r="6" fill="#F65275" opacity="1"/><circle cx="430" cy="340.1" r="15.6" fill="url(#h-coral)" opacity="0.7"/><circle cx="430" cy="340.1" r="6" fill="#F65275" opacity="1"/><circle cx="430" cy="361.1" r="15.6" fill="url(#h-coral)" opacity="0.7"/><circle cx="430" cy="361.1" r="6" fill="#F65275" opacity="1"/><circle cx="430" cy="382.2" r="15.6" fill="url(#h-coral)" opacity="0.7"/><circle cx="430" cy="382.2" r="6" fill="#F65275" opacity="1"/><circle cx="430" cy="403.2" r="15.6" fill="url(#h-coral)" opacity="0.7"/><circle cx="430" cy="403.2" r="6" fill="#F65275" opacity="1"/><circle cx="430" cy="424.3" r="15.6" fill="url(#h-coral)" opacity="0.7"/><circle cx="430" cy="424.3" r="6" fill="#F65275" opacity="1"/><circle cx="430" cy="445.3" r="15.6" fill="url(#h-coral)" opacity="0.7"/><circle cx="430" cy="445.3" r="6" fill="#F65275" opacity="1"/><circle cx="430" cy="466.3" r="15.6" fill="url(#h-coral)" opacity="0.7"/><circle cx="430" cy="466.3" r="6" fill="#F65275" opacity="1"/><circle cx="430" cy="487.4" r="15.6" fill="url(#h-coral)" opacity="0.7"/><circle cx="430" cy="487.4" r="6" fill="#F65275" opacity="1"/><circle cx="430" cy="508.4" r="15.6" fill="url(#h-coral)" opacity="0.7"/><circle cx="430" cy="508.4" r="6" fill="#F65275" opacity="1"/><circle cx="430" cy="529.5" r="15.6" fill="url(#h-coral)" opacity="0.7"/><circle cx="430" cy="529.5" r="6" fill="#F65275" opacity="1"/><circle cx="430" cy="550.5" r="15.6" fill="url(#h-coral)" opacity="0.7"/><circle cx="430" cy="550.5" r="6" fill="#F65275" opacity="1"/><circle cx="430" cy="571.6" r="15.6" fill="url(#h-coral)" opacity="0.7"/><circle cx="430" cy="571.6" r="6" fill="#F65275" opacity="1"/><circle cx="430" cy="592.6" r="15.6" fill="url(#h-coral)" opacity="0.7"/><circle cx="430" cy="592.6" r="6" fill="#F65275" opacity="1"/><circle cx="430" cy="613.7" r="15.6" fill="url(#h-coral)" opacity="0.7"/><circle cx="430" cy="613.7" r="6" fill="#F65275" opacity="1"/><circle cx="430" cy="634.7" r="15.6" fill="url(#h-coral)" opacity="0.7"/><circle cx="430" cy="634.7" r="6" fill="#F65275" opacity="1"/><circle cx="430" cy="655.7" r="15.6" fill="url(#h-coral)" opacity="0.7"/><circle cx="430" cy="655.7" r="6" fill="#F65275" opacity="1"/><circle cx="430" cy="676.8" r="15.6" fill="url(#h-coral)" opacity="0.7"/><circle cx="430" cy="676.8" r="6" fill="#F65275" opacity="1"/><circle cx="430" cy="697.8" r="15.6" fill="url(#h-coral)" opacity="0.7"/><circle cx="430" cy="697.8" r="6" fill="#F65275" opacity="1"/><circle cx="430" cy="718.9" r="15.6" fill="url(#h-coral)" opacity="0.7"/><circle cx="430" cy="718.9" r="6" fill="#F65275" opacity="1"/><circle cx="430" cy="739.9" r="15.6" fill="url(#h-coral)" opacity="0.7"/><circle cx="430" cy="739.9" r="6" fill="#F65275" opacity="1"/><circle cx="430" cy="761" r="15.6" fill="url(#h-coral)" opacity="0.7"/><circle cx="430" cy="761" r="6" fill="#F65275" opacity="1"/><circle cx="430" cy="782" r="15.6" fill="url(#h-coral)" opacity="0.7"/><circle cx="430" cy="782" r="6" fill="#F65275" opacity="1"/></g>
  <g><circle cx="926.7" cy="215.2" r="25.6" fill="url(#h-mint)" opacity="0.7"/><circle cx="926.7" cy="215.2" r="8" fill="#2CD5C4" opacity="1"/><circle cx="1057.4" cy="223.5" r="25.6" fill="url(#h-mint)" opacity="0.7"/><circle cx="1057.4" cy="223.5" r="8" fill="#2CD5C4" opacity="1"/><circle cx="1129.5" cy="243.8" r="25.6" fill="url(#h-mint)" opacity="0.7"/><circle cx="1129.5" cy="243.8" r="8" fill="#2CD5C4" opacity="1"/><circle cx="1132.2" cy="274.6" r="25.6" fill="url(#h-mint)" opacity="0.7"/><circle cx="1132.2" cy="274.6" r="8" fill="#2CD5C4" opacity="1"/><circle cx="941.4" cy="326.6" r="25.6" fill="url(#h-mint)" opacity="0.7"/><circle cx="941.4" cy="326.6" r="8" fill="#2CD5C4" opacity="1"/><circle cx="1136.8" cy="336.6" r="25.6" fill="url(#h-mint)" opacity="0.7"/><circle cx="1136.8" cy="336.6" r="8" fill="#2CD5C4" opacity="1"/><circle cx="1297.9" cy="355.1" r="25.6" fill="url(#h-mint)" opacity="0.7"/><circle cx="1297.9" cy="355.1" r="8" fill="#2CD5C4" opacity="1"/><circle cx="1199.6" cy="395.1" r="25.6" fill="url(#h-mint)" opacity="0.7"/><circle cx="1199.6" cy="395.1" r="8" fill="#2CD5C4" opacity="1"/><circle cx="974.3" cy="438.7" r="25.6" fill="url(#h-mint)" opacity="0.7"/><circle cx="974.3" cy="438.7" r="8" fill="#2CD5C4" opacity="1"/><circle cx="1030.5" cy="465.6" r="25.6" fill="url(#h-mint)" opacity="0.7"/><circle cx="1030.5" cy="465.6" r="8" fill="#2CD5C4" opacity="1"/><circle cx="1263.8" cy="490.3" r="25.6" fill="url(#h-mint)" opacity="0.7"/><circle cx="1263.8" cy="490.3" r="8" fill="#2CD5C4" opacity="1"/><circle cx="909.6" cy="526" r="25.6" fill="url(#h-mint)" opacity="0.7"/><circle cx="909.6" cy="526" r="8" fill="#2CD5C4" opacity="1"/><circle cx="1092.1" cy="555.3" r="25.6" fill="url(#h-mint)" opacity="0.7"/><circle cx="1092.1" cy="555.3" r="8" fill="#2CD5C4" opacity="1"/><circle cx="912.2" cy="582.1" r="25.6" fill="url(#h-mint)" opacity="0.7"/><circle cx="912.2" cy="582.1" r="8" fill="#2CD5C4" opacity="1"/><circle cx="1097.9" cy="616.8" r="25.6" fill="url(#h-mint)" opacity="0.7"/><circle cx="1097.9" cy="616.8" r="8" fill="#2CD5C4" opacity="1"/><circle cx="1308.8" cy="658.2" r="25.6" fill="url(#h-mint)" opacity="0.7"/><circle cx="1308.8" cy="658.2" r="8" fill="#2CD5C4" opacity="1"/><circle cx="1239.7" cy="687.5" r="25.6" fill="url(#h-mint)" opacity="0.7"/><circle cx="1239.7" cy="687.5" r="8" fill="#2CD5C4" opacity="1"/><circle cx="1217.8" cy="718.6" r="25.6" fill="url(#h-mint)" opacity="0.7"/><circle cx="1217.8" cy="718.6" r="8" fill="#2CD5C4" opacity="1"/><circle cx="1255.3" cy="754.5" r="25.6" fill="url(#h-mint)" opacity="0.7"/><circle cx="1255.3" cy="754.5" r="8" fill="#2CD5C4" opacity="1"/><circle cx="1208.7" cy="782.5" r="25.6" fill="url(#h-mint)" opacity="0.7"/><circle cx="1208.7" cy="782.5" r="8" fill="#2CD5C4" opacity="1"/><circle cx="968.6" cy="785.2" r="25.6" fill="url(#h-mint)" opacity="0.7"/><circle cx="968.6" cy="785.2" r="8" fill="#2CD5C4" opacity="1"/><circle cx="1187.7" cy="844.3" r="25.6" fill="url(#h-mint)" opacity="0.7"/><circle cx="1187.7" cy="844.3" r="8" fill="#2CD5C4" opacity="1"/><circle cx="1099.6" cy="862.9" r="25.6" fill="url(#h-mint)" opacity="0.7"/><circle cx="1099.6" cy="862.9" r="8" fill="#2CD5C4" opacity="1"/><circle cx="985.2" cy="874.6" r="25.6" fill="url(#h-mint)" opacity="0.7"/><circle cx="985.2" cy="874.6" r="8" fill="#2CD5C4" opacity="1"/></g>
  <rect width="1920" height="1080" fill="url(#vignette)"/>
  <rect width="1920" height="1080" filter="url(#grain)" opacity="0.055" style="mix-blend-mode:overlay"/>
</svg>
