<svg xmlns="http://www.w3.org/2000/svg" width="1920" height="1080" viewBox="173.1 97.4 1573.8 885.2">
  <title>Valkey data structures</title>
  <desc>Abstract hash table buckets chaining outward beside a skip list of express lanes, representing Valkey data structures and internals. The title "Valkey data structures" is set on solid light blocks in the lower left.</desc>
  <defs>
    <linearGradient id="sky" x1="0" y1="0" x2="0.32" y2="1">
      <stop offset="0" stop-color="#060A24"/>
      <stop offset="0.48" stop-color="#171043"/>
      <stop offset="1" stop-color="#301868"/>
    </linearGradient>
    <radialGradient id="vignette" gradientUnits="userSpaceOnUse" cx="960" cy="540" r="1180">
      <stop offset="0.5" stop-color="#03040F" stop-opacity="0"/>
      <stop offset="1" stop-color="#03040F" stop-opacity="0.8"/>
    </radialGradient>
    <radialGradient id="scrim">
      <stop offset="0" stop-color="#060A24" stop-opacity="0.72"/>
      <stop offset="0.6" stop-color="#060A24" stop-opacity="0.45"/>
      <stop offset="1" stop-color="#060A24" stop-opacity="0"/>
    </radialGradient>
    <filter id="grain" x="0" y="0" width="100%" height="100%">
      <feTurbulence type="fractalNoise" baseFrequency="0.85" numOctaves="4" stitchTiles="stitch"/>
      <feColorMatrix type="saturate" values="0"/>
    </filter>
    <radialGradient id="h-cyan"><stop offset="0" stop-color="#46BDE9" stop-opacity="0.75"/><stop offset="0.4" stop-color="#46BDE9" stop-opacity="0.22"/><stop offset="1" stop-color="#46BDE9" stop-opacity="0"/></radialGradient>
    <radialGradient id="h-ice"><stop offset="0" stop-color="#CCF1FF" stop-opacity="0.75"/><stop offset="0.4" stop-color="#CCF1FF" stop-opacity="0.22"/><stop offset="1" stop-color="#CCF1FF" stop-opacity="0"/></radialGradient>
    <radialGradient id="h-mint"><stop offset="0" stop-color="#2CD5C4" stop-opacity="0.75"/><stop offset="0.4" stop-color="#2CD5C4" stop-opacity="0.22"/><stop offset="1" stop-color="#2CD5C4" stop-opacity="0"/></radialGradient>
    <radialGradient id="h-coral"><stop offset="0" stop-color="#F65275" stop-opacity="0.75"/><stop offset="0.4" stop-color="#F65275" stop-opacity="0.22"/><stop offset="1" stop-color="#F65275" stop-opacity="0"/></radialGradient>
    <radialGradient id="h-violet"><stop offset="0" stop-color="#963CBD" stop-opacity="0.75"/><stop offset="0.4" stop-color="#963CBD" stop-opacity="0.22"/><stop offset="1" stop-color="#963CBD" stop-opacity="0"/></radialGradient>
    <radialGradient id="h-gold"><stop offset="0" stop-color="#FFB81C" stop-opacity="0.75"/><stop offset="0.4" stop-color="#FFB81C" stop-opacity="0.22"/><stop offset="1" stop-color="#FFB81C" stop-opacity="0"/></radialGradient>
    <filter id="blur3" x="-70%" y="-70%" width="240%" height="240%"><feGaussianBlur stdDeviation="3"/></filter>
    <filter id="blur8" x="-70%" y="-70%" width="240%" height="240%"><feGaussianBlur stdDeviation="8"/></filter>
    <filter id="blur18" x="-70%" y="-70%" width="240%" height="240%"><feGaussianBlur stdDeviation="18"/></filter>
    <filter id="blur40" x="-70%" y="-70%" width="240%" height="240%"><feGaussianBlur stdDeviation="40"/></filter>
  </defs>
  <rect width="1920" height="1080" fill="url(#sky)"/>

  <circle cx="330" cy="540" r="420" fill="url(#h-cyan)" opacity="0.2"/>
  <circle cx="1380" cy="540" r="470" fill="url(#h-mint)" opacity="0.15"/>
  <g><line x1="252" y1="540" x2="296" y2="276" stroke="#963CBD" stroke-width="1.3" opacity="0.22"/><line x1="252" y1="540" x2="296" y2="324" stroke="#963CBD" stroke-width="1.3" opacity="0.22"/><line x1="252" y1="540" x2="296" y2="372" stroke="#963CBD" stroke-width="1.3" opacity="0.22"/><line x1="252" y1="540" x2="296" y2="420" stroke="#963CBD" stroke-width="1.3" opacity="0.22"/><line x1="252" y1="540" x2="296" y2="468" stroke="#963CBD" stroke-width="1.3" opacity="0.22"/><line x1="252" y1="540" x2="296" y2="516" stroke="#963CBD" stroke-width="1.3" opacity="0.22"/><line x1="252" y1="540" x2="296" y2="564" stroke="#963CBD" stroke-width="1.3" opacity="0.22"/><line x1="252" y1="540" x2="296" y2="612" stroke="#963CBD" stroke-width="1.3" opacity="0.22"/><line x1="252" y1="540" x2="296" y2="660" stroke="#963CBD" stroke-width="1.3" opacity="0.22"/><line x1="252" y1="540" x2="296" y2="708" stroke="#963CBD" stroke-width="1.3" opacity="0.22"/><line x1="252" y1="540" x2="296" y2="756" stroke="#963CBD" stroke-width="1.3" opacity="0.22"/><line x1="252" y1="540" x2="296" y2="804" stroke="#963CBD" stroke-width="1.3" opacity="0.22"/></g>
  <g><rect x="298" y="261" width="64" height="30" rx="5" fill="#00A3E0" fill-opacity="0.12" stroke="#46BDE9" stroke-width="1.8" opacity="0.6"/><line x1="362" y1="276" x2="416.2" y2="276" stroke="#46BDE9" stroke-width="1.6" opacity="0.45"/><rect x="416.2" y="264" width="48" height="24" rx="4" fill="#2CD5C4" opacity="0.8"/><rect x="298" y="309" width="64" height="30" rx="5" fill="#00A3E0" fill-opacity="0.12" stroke="#46BDE9" stroke-width="1.8" opacity="0.6"/><line x1="362" y1="324" x2="423.5" y2="324" stroke="#46BDE9" stroke-width="1.6" opacity="0.45"/><rect x="423.5" y="312" width="48" height="24" rx="4" fill="#00A3E0" opacity="0.6"/><line x1="471.5" y1="324" x2="529.7" y2="324" stroke="#46BDE9" stroke-width="1.6" opacity="0.45"/><rect x="529.7" y="312" width="48" height="24" rx="4" fill="#963CBD" opacity="0.5"/><line x1="577.7" y1="324" x2="633.4" y2="324" stroke="#46BDE9" stroke-width="1.6" opacity="0.45"/><rect x="633.4" y="312" width="48" height="24" rx="4" fill="#963CBD" opacity="0.8"/><line x1="681.4" y1="324" x2="728" y2="324" stroke="#46BDE9" stroke-width="1.6" opacity="0.45"/><rect x="728" y="312" width="48" height="24" rx="4" fill="#2CD5C4" opacity="0.8"/><rect x="298" y="357" width="64" height="30" rx="5" fill="#00A3E0" fill-opacity="0.12" stroke="#46BDE9" stroke-width="1.8" opacity="0.6"/><line x1="362" y1="372" x2="415.2" y2="372" stroke="#46BDE9" stroke-width="1.6" opacity="0.45"/><rect x="415.2" y="360" width="48" height="24" rx="4" fill="#2CD5C4" opacity="0.5"/><line x1="463.2" y1="372" x2="504.5" y2="372" stroke="#46BDE9" stroke-width="1.6" opacity="0.45"/><rect x="504.5" y="360" width="48" height="24" rx="4" fill="#2CD5C4" opacity="0.7"/><rect x="298" y="405" width="64" height="30" rx="5" fill="#00A3E0" fill-opacity="0.12" stroke="#46BDE9" stroke-width="1.8" opacity="0.6"/><line x1="362" y1="420" x2="419.3" y2="420" stroke="#46BDE9" stroke-width="1.6" opacity="0.45"/><rect x="419.3" y="408" width="48" height="24" rx="4" fill="#963CBD" opacity="0.5"/><line x1="467.3" y1="420" x2="511.2" y2="420" stroke="#46BDE9" stroke-width="1.6" opacity="0.45"/><rect x="511.2" y="408" width="48" height="24" rx="4" fill="#00A3E0" opacity="0.8"/><line x1="559.2" y1="420" x2="616" y2="420" stroke="#46BDE9" stroke-width="1.6" opacity="0.45"/><rect x="616" y="408" width="48" height="24" rx="4" fill="#00A3E0" opacity="0.5"/><rect x="298" y="453" width="64" height="30" rx="5" fill="#00A3E0" fill-opacity="0.12" stroke="#46BDE9" stroke-width="1.8" opacity="0.6"/><line x1="362" y1="468" x2="423.8" y2="468" stroke="#46BDE9" stroke-width="1.6" opacity="0.45"/><rect x="423.8" y="456" width="48" height="24" rx="4" fill="#00A3E0" opacity="0.8"/><line x1="471.8" y1="468" x2="530" y2="468" stroke="#46BDE9" stroke-width="1.6" opacity="0.45"/><rect x="530" y="456" width="48" height="24" rx="4" fill="#963CBD" opacity="0.6"/><line x1="578" y1="468" x2="638.8" y2="468" stroke="#46BDE9" stroke-width="1.6" opacity="0.45"/><rect x="638.8" y="456" width="48" height="24" rx="4" fill="#00A3E0" opacity="0.5"/><line x1="686.8" y1="468" x2="746.5" y2="468" stroke="#46BDE9" stroke-width="1.6" opacity="0.45"/><rect x="746.5" y="456" width="48" height="24" rx="4" fill="#2CD5C4" opacity="0.8"/><line x1="794.5" y1="468" x2="836.7" y2="468" stroke="#46BDE9" stroke-width="1.6" opacity="0.45"/><rect x="836.7" y="456" width="48" height="24" rx="4" fill="#00A3E0" opacity="0.6"/><rect x="298" y="501" width="64" height="30" rx="5" fill="#00A3E0" fill-opacity="0.12" stroke="#46BDE9" stroke-width="1.8" opacity="0.6"/><line x1="362" y1="516" x2="425" y2="516" stroke="#46BDE9" stroke-width="1.6" opacity="0.45"/><rect x="425" y="504" width="48" height="24" rx="4" fill="#00A3E0" opacity="0.8"/><line x1="473" y1="516" x2="519.6" y2="516" stroke="#46BDE9" stroke-width="1.6" opacity="0.45"/><rect x="519.6" y="504" width="48" height="24" rx="4" fill="#2CD5C4" opacity="0.7"/><rect x="298" y="549" width="64" height="30" rx="5" fill="#00A3E0" fill-opacity="0.12" stroke="#46BDE9" stroke-width="1.8" opacity="0.6"/><line x1="362" y1="564" x2="405.5" y2="564" stroke="#46BDE9" stroke-width="1.6" opacity="0.45"/><rect x="405.5" y="552" width="48" height="24" rx="4" fill="#2CD5C4" opacity="0.6"/><rect x="298" y="597" width="64" height="30" rx="5" fill="#00A3E0" fill-opacity="0.12" stroke="#46BDE9" stroke-width="1.8" opacity="0.6"/><line x1="362" y1="612" x2="412.2" y2="612" stroke="#46BDE9" stroke-width="1.6" opacity="0.45"/><rect x="412.2" y="600" width="48" height="24" rx="4" fill="#00A3E0" opacity="0.6"/><line x1="460.2" y1="612" x2="522.3" y2="612" stroke="#46BDE9" stroke-width="1.6" opacity="0.45"/><rect x="522.3" y="600" width="48" height="24" rx="4" fill="#00A3E0" opacity="0.8"/><line x1="570.3" y1="612" x2="628.3" y2="612" stroke="#46BDE9" stroke-width="1.6" opacity="0.45"/><rect x="628.3" y="600" width="48" height="24" rx="4" fill="#00A3E0" opacity="0.8"/><rect x="298" y="645" width="64" height="30" rx="5" fill="#00A3E0" fill-opacity="0.12" stroke="#46BDE9" stroke-width="1.8" opacity="0.6"/><line x1="362" y1="660" x2="405.9" y2="660" stroke="#46BDE9" stroke-width="1.6" opacity="0.45"/><rect x="405.9" y="648" width="48" height="24" rx="4" fill="#2CD5C4" opacity="0.8"/><line x1="453.9" y1="660" x2="498.1" y2="660" stroke="#46BDE9" stroke-width="1.6" opacity="0.45"/><rect x="498.1" y="648" width="48" height="24" rx="4" fill="#00A3E0" opacity="0.7"/><line x1="546.1" y1="660" x2="593.4" y2="660" stroke="#46BDE9" stroke-width="1.6" opacity="0.45"/><rect x="593.4" y="648" width="48" height="24" rx="4" fill="#00A3E0" opacity="0.8"/><line x1="641.4" y1="660" x2="699.4" y2="660" stroke="#46BDE9" stroke-width="1.6" opacity="0.45"/><rect x="699.4" y="648" width="48" height="24" rx="4" fill="#2CD5C4" opacity="0.5"/><line x1="747.4" y1="660" x2="803.2" y2="660" stroke="#46BDE9" stroke-width="1.6" opacity="0.45"/><rect x="803.2" y="648" width="48" height="24" rx="4" fill="#00A3E0" opacity="0.6"/><rect x="298" y="693" width="64" height="30" rx="5" fill="#00A3E0" fill-opacity="0.12" stroke="#46BDE9" stroke-width="1.8" opacity="0.6"/><line x1="362" y1="708" x2="413.6" y2="708" stroke="#46BDE9" stroke-width="1.6" opacity="0.45"/><rect x="413.6" y="696" width="48" height="24" rx="4" fill="#00A3E0" opacity="0.5"/><line x1="461.6" y1="708" x2="521.6" y2="708" stroke="#46BDE9" stroke-width="1.6" opacity="0.45"/><rect x="521.6" y="696" width="48" height="24" rx="4" fill="#963CBD" opacity="0.6"/><line x1="569.6" y1="708" x2="615.8" y2="708" stroke="#46BDE9" stroke-width="1.6" opacity="0.45"/><rect x="615.8" y="696" width="48" height="24" rx="4" fill="#00A3E0" opacity="0.6"/><line x1="663.8" y1="708" x2="712.1" y2="708" stroke="#46BDE9" stroke-width="1.6" opacity="0.45"/><rect x="712.1" y="696" width="48" height="24" rx="4" fill="#00A3E0" opacity="0.7"/><rect x="298" y="741" width="64" height="30" rx="5" fill="#00A3E0" fill-opacity="0.12" stroke="#46BDE9" stroke-width="1.8" opacity="0.6"/><line x1="362" y1="756" x2="408" y2="756" stroke="#46BDE9" stroke-width="1.6" opacity="0.45"/><rect x="408" y="744" width="48" height="24" rx="4" fill="#963CBD" opacity="0.7"/><line x1="456" y1="756" x2="507.7" y2="756" stroke="#46BDE9" stroke-width="1.6" opacity="0.45"/><rect x="507.7" y="744" width="48" height="24" rx="4" fill="#2CD5C4" opacity="0.7"/><line x1="555.7" y1="756" x2="612.3" y2="756" stroke="#46BDE9" stroke-width="1.6" opacity="0.45"/><rect x="612.3" y="744" width="48" height="24" rx="4" fill="#00A3E0" opacity="0.5"/><line x1="660.3" y1="756" x2="703.9" y2="756" stroke="#46BDE9" stroke-width="1.6" opacity="0.45"/><rect x="703.9" y="744" width="48" height="24" rx="4" fill="#00A3E0" opacity="0.5"/><rect x="298" y="789" width="64" height="30" rx="5" fill="#00A3E0" fill-opacity="0.12" stroke="#46BDE9" stroke-width="1.8" opacity="0.6"/><line x1="362" y1="804" x2="419.1" y2="804" stroke="#46BDE9" stroke-width="1.6" opacity="0.45"/><rect x="419.1" y="792" width="48" height="24" rx="4" fill="#963CBD" opacity="0.6"/><line x1="467.1" y1="804" x2="523.3" y2="804" stroke="#46BDE9" stroke-width="1.6" opacity="0.45"/><rect x="523.3" y="792" width="48" height="24" rx="4" fill="#00A3E0" opacity="0.5"/><line x1="571.3" y1="804" x2="614.3" y2="804" stroke="#46BDE9" stroke-width="1.6" opacity="0.45"/><rect x="614.3" y="792" width="48" height="24" rx="4" fill="#963CBD" opacity="0.6"/></g>
  <g><line x1="1030" y1="416" x2="1030" y2="664" stroke="#2CD5C4" stroke-width="1.1" opacity="0.14"/><line x1="1117.5" y1="416" x2="1117.5" y2="664" stroke="#2CD5C4" stroke-width="1.1" opacity="0.14"/><line x1="1205" y1="416" x2="1205" y2="664" stroke="#2CD5C4" stroke-width="1.1" opacity="0.14"/><line x1="1292.5" y1="416" x2="1292.5" y2="664" stroke="#2CD5C4" stroke-width="1.1" opacity="0.14"/><line x1="1380" y1="416" x2="1380" y2="664" stroke="#2CD5C4" stroke-width="1.1" opacity="0.14"/><line x1="1467.5" y1="416" x2="1467.5" y2="664" stroke="#2CD5C4" stroke-width="1.1" opacity="0.14"/><line x1="1555" y1="416" x2="1555" y2="664" stroke="#2CD5C4" stroke-width="1.1" opacity="0.14"/><line x1="1642.5" y1="416" x2="1642.5" y2="664" stroke="#2CD5C4" stroke-width="1.1" opacity="0.14"/><line x1="1730" y1="416" x2="1730" y2="664" stroke="#2CD5C4" stroke-width="1.1" opacity="0.14"/></g>
  <g><path d="M 1030 664 L 1073.8 664 L 1117.5 664 L 1161.3 664 L 1205 664 L 1248.8 664 L 1292.5 664 L 1336.3 664 L 1380 664 L 1423.8 664 L 1467.5 664 L 1511.3 664 L 1555 664 L 1598.8 664 L 1642.5 664 L 1686.3 664 L 1730 664" fill="none" stroke="#2CD5C4" stroke-width="1.4" opacity="0.3"/><circle cx="1030" cy="664" r="12.8" fill="url(#h-mint)" opacity="0.4"/><circle cx="1030" cy="664" r="4" fill="#2CD5C4" opacity="0.5"/><circle cx="1073.8" cy="664" r="12.8" fill="url(#h-mint)" opacity="0.4"/><circle cx="1073.8" cy="664" r="4" fill="#2CD5C4" opacity="0.5"/><circle cx="1117.5" cy="664" r="12.8" fill="url(#h-mint)" opacity="0.4"/><circle cx="1117.5" cy="664" r="4" fill="#2CD5C4" opacity="0.5"/><circle cx="1161.3" cy="664" r="12.8" fill="url(#h-mint)" opacity="0.4"/><circle cx="1161.3" cy="664" r="4" fill="#2CD5C4" opacity="0.5"/><circle cx="1205" cy="664" r="12.8" fill="url(#h-mint)" opacity="0.4"/><circle cx="1205" cy="664" r="4" fill="#2CD5C4" opacity="0.5"/><circle cx="1248.8" cy="664" r="12.8" fill="url(#h-mint)" opacity="0.4"/><circle cx="1248.8" cy="664" r="4" fill="#2CD5C4" opacity="0.5"/><circle cx="1292.5" cy="664" r="12.8" fill="url(#h-mint)" opacity="0.4"/><circle cx="1292.5" cy="664" r="4" fill="#2CD5C4" opacity="0.5"/><circle cx="1336.3" cy="664" r="12.8" fill="url(#h-mint)" opacity="0.4"/><circle cx="1336.3" cy="664" r="4" fill="#2CD5C4" opacity="0.5"/><circle cx="1380" cy="664" r="12.8" fill="url(#h-mint)" opacity="0.4"/><circle cx="1380" cy="664" r="4" fill="#2CD5C4" opacity="0.5"/><circle cx="1423.8" cy="664" r="12.8" fill="url(#h-mint)" opacity="0.4"/><circle cx="1423.8" cy="664" r="4" fill="#2CD5C4" opacity="0.5"/><circle cx="1467.5" cy="664" r="12.8" fill="url(#h-mint)" opacity="0.4"/><circle cx="1467.5" cy="664" r="4" fill="#2CD5C4" opacity="0.5"/><circle cx="1511.3" cy="664" r="12.8" fill="url(#h-mint)" opacity="0.4"/><circle cx="1511.3" cy="664" r="4" fill="#2CD5C4" opacity="0.5"/><circle cx="1555" cy="664" r="12.8" fill="url(#h-mint)" opacity="0.4"/><circle cx="1555" cy="664" r="4" fill="#2CD5C4" opacity="0.5"/><circle cx="1598.8" cy="664" r="12.8" fill="url(#h-mint)" opacity="0.4"/><circle cx="1598.8" cy="664" r="4" fill="#2CD5C4" opacity="0.5"/><circle cx="1642.5" cy="664" r="12.8" fill="url(#h-mint)" opacity="0.4"/><circle cx="1642.5" cy="664" r="4" fill="#2CD5C4" opacity="0.5"/><circle cx="1686.3" cy="664" r="12.8" fill="url(#h-mint)" opacity="0.4"/><circle cx="1686.3" cy="664" r="4" fill="#2CD5C4" opacity="0.5"/><circle cx="1730" cy="664" r="12.8" fill="url(#h-mint)" opacity="0.4"/><circle cx="1730" cy="664" r="4" fill="#2CD5C4" opacity="0.5"/><path d="M 1030 602 L 1117.5 602 L 1205 602 L 1292.5 602 L 1380 602 L 1467.5 602 L 1555 602 L 1642.5 602 L 1730 602" fill="none" stroke="#2CD5C4" stroke-width="1.9" opacity="0.4"/><circle cx="1030" cy="602" r="16" fill="url(#h-mint)" opacity="0.4"/><circle cx="1030" cy="602" r="5" fill="#2CD5C4" opacity="0.6"/><circle cx="1117.5" cy="602" r="16" fill="url(#h-mint)" opacity="0.4"/><circle cx="1117.5" cy="602" r="5" fill="#2CD5C4" opacity="0.6"/><circle cx="1205" cy="602" r="16" fill="url(#h-mint)" opacity="0.4"/><circle cx="1205" cy="602" r="5" fill="#2CD5C4" opacity="0.6"/><circle cx="1292.5" cy="602" r="16" fill="url(#h-mint)" opacity="0.4"/><circle cx="1292.5" cy="602" r="5" fill="#2CD5C4" opacity="0.6"/><circle cx="1380" cy="602" r="16" fill="url(#h-mint)" opacity="0.4"/><circle cx="1380" cy="602" r="5" fill="#2CD5C4" opacity="0.6"/><circle cx="1467.5" cy="602" r="16" fill="url(#h-mint)" opacity="0.4"/><circle cx="1467.5" cy="602" r="5" fill="#2CD5C4" opacity="0.6"/><circle cx="1555" cy="602" r="16" fill="url(#h-mint)" opacity="0.4"/><circle cx="1555" cy="602" r="5" fill="#2CD5C4" opacity="0.6"/><circle cx="1642.5" cy="602" r="16" fill="url(#h-mint)" opacity="0.4"/><circle cx="1642.5" cy="602" r="5" fill="#2CD5C4" opacity="0.6"/><circle cx="1730" cy="602" r="16" fill="url(#h-mint)" opacity="0.4"/><circle cx="1730" cy="602" r="5" fill="#2CD5C4" opacity="0.6"/><path d="M 1030 540 L 1205 540 L 1380 540 L 1555 540 L 1730 540" fill="none" stroke="#2CD5C4" stroke-width="2.4" opacity="0.5"/><circle cx="1030" cy="540" r="19.2" fill="url(#h-mint)" opacity="0.5"/><circle cx="1030" cy="540" r="6" fill="#2CD5C4" opacity="0.7"/><circle cx="1205" cy="540" r="19.2" fill="url(#h-mint)" opacity="0.5"/><circle cx="1205" cy="540" r="6" fill="#2CD5C4" opacity="0.7"/><circle cx="1380" cy="540" r="19.2" fill="url(#h-mint)" opacity="0.5"/><circle cx="1380" cy="540" r="6" fill="#2CD5C4" opacity="0.7"/><circle cx="1555" cy="540" r="19.2" fill="url(#h-mint)" opacity="0.5"/><circle cx="1555" cy="540" r="6" fill="#2CD5C4" opacity="0.7"/><circle cx="1730" cy="540" r="19.2" fill="url(#h-mint)" opacity="0.5"/><circle cx="1730" cy="540" r="6" fill="#2CD5C4" opacity="0.7"/><path d="M 1030 478 L 1380 478 L 1730 478" fill="none" stroke="#2CD5C4" stroke-width="2.9" opacity="0.7"/><circle cx="1030" cy="478" r="22.4" fill="url(#h-mint)" opacity="0.6"/><circle cx="1030" cy="478" r="7" fill="#2CD5C4" opacity="0.8"/><circle cx="1380" cy="478" r="22.4" fill="url(#h-mint)" opacity="0.6"/><circle cx="1380" cy="478" r="7" fill="#2CD5C4" opacity="0.8"/><circle cx="1730" cy="478" r="22.4" fill="url(#h-mint)" opacity="0.6"/><circle cx="1730" cy="478" r="7" fill="#2CD5C4" opacity="0.8"/><path d="M 1030 416 L 1730 416" fill="none" stroke="#2CD5C4" stroke-width="3.4" opacity="0.8"/><circle cx="1030" cy="416" r="25.6" fill="url(#h-mint)" opacity="0.7"/><circle cx="1030" cy="416" r="8" fill="#2CD5C4" opacity="0.9"/><circle cx="1730" cy="416" r="25.6" fill="url(#h-mint)" opacity="0.7"/><circle cx="1730" cy="416" r="8" fill="#2CD5C4" opacity="0.9"/></g>
<circle cx="252" cy="540" r="40.5" fill="url(#h-violet)" opacity="0.7"/><circle cx="252" cy="540" r="9" fill="#963CBD" opacity="1"/>
  <rect width="1920" height="1080" fill="url(#vignette)"/>
  <rect width="1920" height="1080" filter="url(#grain)" opacity="0.055" style="mix-blend-mode:overlay"/>
  <g opacity="0.92"><g transform="translate(239.2 146.1) scale(0.67123)"><path d="M15.2,50l-9.4-5.9v-25L28.8,6l22.3,13.1v26.3l-22.7,12.8-7.9-4.9v-12l-4.3-2.7v-13.6l12.4-7.1,12.1,7.1v14.2l-9.6,5.4v-5.7c2.9-1.1,4.9-3.9,4.9-7.3s-3.4-7.8-7.6-7.8-7.6,3.5-7.6,7.8,2.1,6.2,4.9,7.3v10.9l2.7,1.7,16.8-9.5v-19.7l-16.6-9.8-17.1,9.8v18.5l3.6,2.3v6.8ZM28.5,28.1c1.9,0,3.4,1.6,3.4,3.6s-1.5,3.6-3.4,3.6-3.4-1.6-3.4-3.6,1.5-3.6,3.4-3.6Z" fill="#FFFFFF" fill-rule="evenodd"/><path d="M85.2,11.4l-12.1,33.8h-4l-12.1-33.8h4.1l7.9,22.3c.3.9.6,1.8.9,2.6.3.8.5,1.6.7,2.4.2.8.4,1.5.5,2.2.2-.7.3-1.4.5-2.2.2-.8.4-1.6.7-2.4.3-.8.6-1.7.9-2.6l7.9-22.2h4.2Z" fill="#FFFFFF"/><path d="M94,19.5c3,0,5.3.7,6.7,2,1.5,1.4,2.2,3.5,2.2,6.5v17.2h-2.8l-.7-3.7h-.2c-.7.9-1.4,1.7-2.2,2.3-.8.6-1.7,1.1-2.7,1.4-1,.3-2.2.5-3.7.5s-2.9-.3-4.1-.8c-1.2-.5-2.1-1.4-2.8-2.5-.7-1.1-1-2.5-1-4.2,0-2.5,1-4.5,3-5.8,2-1.4,5.1-2.1,9.2-2.2l4.4-.2v-1.5c0-2.2-.5-3.7-1.4-4.6-.9-.9-2.3-1.3-4-1.3-1.3,0-2.6.2-3.8.6-1.2.4-2.3.8-3.4,1.4l-1.2-2.9c1.1-.6,2.5-1.1,3.9-1.5,1.5-.4,3-.6,4.7-.6h0ZM99.1,32.8l-3.9.2c-3.2.1-5.4.6-6.7,1.5s-1.9,2.2-1.9,3.9.4,2.5,1.3,3.2c.9.7,2,1,3.5,1,2.3,0,4.1-.6,5.5-1.9s2.2-3.1,2.2-5.6v-2.3Z" fill="#FFFFFF"/><path d="M112.1,45.3h-3.9V9.3h3.9v36Z" fill="#FFFFFF"/><path d="M121.3,9.3v18.7c0,.6,0,1.4,0,2.3,0,.9,0,1.7-.1,2.3h.2c.3-.4.8-1,1.4-1.8.6-.8,1.2-1.4,1.6-1.9l8.4-9h4.5l-10.2,10.8,10.9,14.5h-4.6l-9-12-3.1,2.8v9.2h-3.8V9.3h3.8Z" fill="#FFFFFF"/><path d="M148.2,19.4c2.2,0,4,.5,5.6,1.4,1.5,1,2.7,2.3,3.5,4,.8,1.7,1.2,3.7,1.2,6v2.4h-17.5c0,3,.8,5.2,2.2,6.8s3.5,2.3,6.1,2.3,3-.1,4.3-.4c1.2-.3,2.5-.7,3.8-1.3v3.4c-1.3.6-2.6,1-3.8,1.2-1.2.3-2.7.4-4.4.4-2.4,0-4.6-.5-6.4-1.5-1.8-1-3.2-2.5-4.2-4.4-1-1.9-1.5-4.3-1.5-7.1,0-2.7.5-5.1,1.4-7.1.9-2,2.2-3.5,3.9-4.6,1.7-1.1,3.7-1.6,5.9-1.6h0ZM148.2,22.6c-2.1,0-3.7.7-4.9,2-1.2,1.3-1.9,3.2-2.2,5.6h13.4c0-1.5-.3-2.8-.7-4-.4-1.2-1.1-2.1-2.1-2.7-.9-.6-2.1-1-3.6-1Z" fill="#FFFFFF"/><path d="M158.4,19.9h4.1l5.6,14.7c.3.9.6,1.7.9,2.5.3.8.5,1.5.7,2.3.2.7.4,1.4.5,2.1h.2c.2-.8.5-1.8.9-3,.4-1.3.8-2.6,1.3-3.9l5.3-14.7h4.1l-11,29.1c-.6,1.6-1.3,2.9-2.1,4.1-.8,1.2-1.7,2-2.8,2.7-1.1.6-2.5.9-4,.9s-1.4,0-1.9-.1c-.6,0-1-.2-1.4-.3v-3.1c.3,0,.7.1,1.2.2.5,0,1,0,1.5,0,1,0,1.8-.2,2.5-.6.7-.4,1.3-.9,1.8-1.6.5-.7.9-1.5,1.3-2.5l1.4-3.6-10.2-25.4Z" fill="#FFFFFF"/></g></g>
  <g><rect x="251.8" y="844.1" width="414.2" height="72.1" rx="3.3" fill="#CCF1FF"/><text x="269.8" y="894.9" fill="#060A24" font-family="Helvetica Neue, Helvetica, Arial, sans-serif" font-size="50.8" font-weight="600">Data structures</text></g>
</svg>
