<svg xmlns="http://www.w3.org/2000/svg" width="1920" height="1080" viewBox="173.1 97.4 1573.8 885.2">
  <title>Valkey data structures</title>
  <desc>Abstract hash table buckets chaining outward beside a skip list of express lanes, representing Valkey data structures and internals.</desc>
  <defs>
    <linearGradient id="sky" x1="0" y1="0" x2="0.32" y2="1">
      <stop offset="0" stop-color="#060A24"/>
      <stop offset="0.48" stop-color="#171043"/>
      <stop offset="1" stop-color="#301868"/>
    </linearGradient>
    <radialGradient id="focus" gradientUnits="userSpaceOnUse" cx="820" cy="540" r="900">
      <stop offset="0" stop-color="#00A3E0" stop-opacity="0.42"/>
      <stop offset="0.35" stop-color="#963CBD" stop-opacity="0.20"/>
      <stop offset="1" stop-color="#963CBD" stop-opacity="0"/>
    </radialGradient>
    <radialGradient id="vignette" gradientUnits="userSpaceOnUse" cx="960" cy="540" r="1180">
      <stop offset="0.5" stop-color="#03040F" stop-opacity="0"/>
      <stop offset="1" stop-color="#03040F" stop-opacity="0.8"/>
    </radialGradient>
    <radialGradient id="scrim">
      <stop offset="0" stop-color="#060A24" stop-opacity="0.72"/>
      <stop offset="0.6" stop-color="#060A24" stop-opacity="0.45"/>
      <stop offset="1" stop-color="#060A24" stop-opacity="0"/>
    </radialGradient>
    <filter id="grain" x="0" y="0" width="100%" height="100%">
      <feTurbulence type="fractalNoise" baseFrequency="0.85" numOctaves="4" stitchTiles="stitch"/>
      <feColorMatrix type="saturate" values="0"/>
    </filter>
    <radialGradient id="h-cyan"><stop offset="0" stop-color="#46BDE9" stop-opacity="0.75"/><stop offset="0.4" stop-color="#46BDE9" stop-opacity="0.22"/><stop offset="1" stop-color="#46BDE9" stop-opacity="0"/></radialGradient>
    <radialGradient id="h-ice"><stop offset="0" stop-color="#CCF1FF" stop-opacity="0.75"/><stop offset="0.4" stop-color="#CCF1FF" stop-opacity="0.22"/><stop offset="1" stop-color="#CCF1FF" stop-opacity="0"/></radialGradient>
    <radialGradient id="h-mint"><stop offset="0" stop-color="#2CD5C4" stop-opacity="0.75"/><stop offset="0.4" stop-color="#2CD5C4" stop-opacity="0.22"/><stop offset="1" stop-color="#2CD5C4" stop-opacity="0"/></radialGradient>
    <radialGradient id="h-coral"><stop offset="0" stop-color="#F65275" stop-opacity="0.75"/><stop offset="0.4" stop-color="#F65275" stop-opacity="0.22"/><stop offset="1" stop-color="#F65275" stop-opacity="0"/></radialGradient>
    <radialGradient id="h-violet"><stop offset="0" stop-color="#963CBD" stop-opacity="0.75"/><stop offset="0.4" stop-color="#963CBD" stop-opacity="0.22"/><stop offset="1" stop-color="#963CBD" stop-opacity="0"/></radialGradient>
    <radialGradient id="h-gold"><stop offset="0" stop-color="#FFB81C" stop-opacity="0.75"/><stop offset="0.4" stop-color="#FFB81C" stop-opacity="0.22"/><stop offset="1" stop-color="#FFB81C" stop-opacity="0"/></radialGradient>
    <filter id="blur3" x="-70%" y="-70%" width="240%" height="240%"><feGaussianBlur stdDeviation="3"/></filter>
    <filter id="blur8" x="-70%" y="-70%" width="240%" height="240%"><feGaussianBlur stdDeviation="8"/></filter>
    <filter id="blur18" x="-70%" y="-70%" width="240%" height="240%"><feGaussianBlur stdDeviation="18"/></filter>
    <filter id="blur40" x="-70%" y="-70%" width="240%" height="240%"><feGaussianBlur stdDeviation="40"/></filter>
  </defs>
  <rect width="1920" height="1080" fill="url(#sky)"/>
  <rect width="1920" height="1080" fill="url(#focus)"/>
  <g><circle cx="429.4" cy="243.2" r="2.4" fill="#CCF1FF" opacity="0.3"/><circle cx="1233.8" cy="390.5" r="1.1" fill="#CCF1FF" opacity="0.2"/><circle cx="1114.4" cy="840.4" r="1.9" fill="#CCF1FF" opacity="0.2"/><circle cx="1374.5" cy="951.5" r="1.4" fill="#CCF1FF" opacity="0.2"/><circle cx="1608.6" cy="948" r="1.6" fill="#CCF1FF" opacity="0.3"/><circle cx="1533.1" cy="330.4" r="2.6" fill="#CCF1FF" opacity="0.1"/><circle cx="1561.2" cy="86.9" r="2.4" fill="#CCF1FF" opacity="0.1"/><circle cx="1906" cy="1002.3" r="1.7" fill="#CCF1FF" opacity="0.3"/><circle cx="1311.3" cy="100.7" r="1.2" fill="#CCF1FF" opacity="0.3"/><circle cx="1112" cy="949.4" r="1.9" fill="#CCF1FF" opacity="0.3"/><circle cx="1151.6" cy="374.5" r="2.5" fill="#CCF1FF" opacity="0.1"/><circle cx="396.6" cy="35.4" r="2.6" fill="#CCF1FF" opacity="0.3"/><circle cx="1504.1" cy="1032.3" r="1.9" fill="#CCF1FF" opacity="0.1"/><circle cx="493.8" cy="2.9" r="1.9" fill="#CCF1FF" opacity="0.3"/><circle cx="1260" cy="202.3" r="2.5" fill="#CCF1FF" opacity="0.1"/><circle cx="460.6" cy="489" r="0.8" fill="#CCF1FF" opacity="0.4"/><circle cx="689.3" cy="347.8" r="0.9" fill="#CCF1FF" opacity="0.2"/><circle cx="1558.5" cy="693.4" r="2.6" fill="#CCF1FF" opacity="0.4"/><circle cx="786.8" cy="1061.1" r="0.9" fill="#CCF1FF" opacity="0.2"/><circle cx="1344.8" cy="750.5" r="1.5" fill="#CCF1FF" opacity="0.2"/><circle cx="1093.2" cy="48" r="1.7" fill="#CCF1FF" opacity="0.3"/><circle cx="1716.5" cy="506.8" r="1.6" fill="#CCF1FF" opacity="0.2"/><circle cx="11.3" cy="377.3" r="2.2" fill="#CCF1FF" opacity="0.2"/><circle cx="576.9" cy="553.3" r="1" fill="#CCF1FF" opacity="0.2"/><circle cx="1768.5" cy="215.1" r="2" fill="#CCF1FF" opacity="0.3"/><circle cx="594.7" cy="232.4" r="1.9" fill="#CCF1FF" opacity="0.3"/><circle cx="776.6" cy="323" r="2.7" fill="#CCF1FF" opacity="0.2"/><circle cx="1382.6" cy="70.4" r="1.2" fill="#CCF1FF" opacity="0.1"/><circle cx="50.5" cy="644.7" r="1.8" fill="#CCF1FF" opacity="0.3"/><circle cx="1259.2" cy="472" r="2.2" fill="#CCF1FF" opacity="0.1"/><circle cx="1109.7" cy="901.4" r="1.3" fill="#CCF1FF" opacity="0.3"/><circle cx="200.9" cy="861.8" r="2.3" fill="#CCF1FF" opacity="0.2"/><circle cx="849.3" cy="978.1" r="1.8" fill="#CCF1FF" opacity="0.3"/><circle cx="862.8" cy="884.4" r="2.3" fill="#CCF1FF" opacity="0.2"/><circle cx="1122.1" cy="153.2" r="1.6" fill="#CCF1FF" opacity="0.2"/><circle cx="656.4" cy="759.3" r="1.4" fill="#CCF1FF" opacity="0.1"/><circle cx="1096.5" cy="446.2" r="2.3" fill="#CCF1FF" opacity="0.2"/><circle cx="779.6" cy="454.1" r="1.3" fill="#CCF1FF" opacity="0.3"/><circle cx="1285.7" cy="326.6" r="1" fill="#CCF1FF" opacity="0.3"/><circle cx="1715.3" cy="271" r="1.3" fill="#CCF1FF" opacity="0.1"/><circle cx="1225.8" cy="814.9" r="2.3" fill="#CCF1FF" opacity="0.3"/><circle cx="1451.6" cy="864.1" r="2.1" fill="#CCF1FF" opacity="0.2"/><circle cx="709.7" cy="209.2" r="0.8" fill="#CCF1FF" opacity="0.2"/><circle cx="1475.1" cy="231.2" r="2.3" fill="#CCF1FF" opacity="0.1"/><circle cx="219.1" cy="359" r="2.1" fill="#CCF1FF" opacity="0.2"/><circle cx="715.5" cy="562.9" r="2" fill="#CCF1FF" opacity="0.2"/><circle cx="1841.9" cy="933.3" r="2.5" fill="#CCF1FF" opacity="0.3"/><circle cx="1209.6" cy="1059.9" r="1.6" fill="#CCF1FF" opacity="0.4"/><circle cx="1671.5" cy="33.9" r="2.1" fill="#CCF1FF" opacity="0.2"/><circle cx="1784.5" cy="1045.5" r="1.5" fill="#CCF1FF" opacity="0.2"/><circle cx="921.4" cy="844.1" r="2" fill="#CCF1FF" opacity="0.3"/><circle cx="319.8" cy="28.4" r="2.3" fill="#CCF1FF" opacity="0.1"/><circle cx="1554.7" cy="26" r="1" fill="#CCF1FF" opacity="0.2"/><circle cx="966.9" cy="258.6" r="2.5" fill="#CCF1FF" opacity="0.3"/><circle cx="1116.7" cy="1041.1" r="2" fill="#CCF1FF" opacity="0.4"/></g>
  <circle cx="330" cy="540" r="420" fill="url(#h-cyan)" opacity="0.2"/>
  <circle cx="1380" cy="540" r="470" fill="url(#h-mint)" opacity="0.15"/>
  <g><line x1="252" y1="540" x2="296" y2="276" stroke="#963CBD" stroke-width="1.3" opacity="0.22"/><line x1="252" y1="540" x2="296" y2="324" stroke="#963CBD" stroke-width="1.3" opacity="0.22"/><line x1="252" y1="540" x2="296" y2="372" stroke="#963CBD" stroke-width="1.3" opacity="0.22"/><line x1="252" y1="540" x2="296" y2="420" stroke="#963CBD" stroke-width="1.3" opacity="0.22"/><line x1="252" y1="540" x2="296" y2="468" stroke="#963CBD" stroke-width="1.3" opacity="0.22"/><line x1="252" y1="540" x2="296" y2="516" stroke="#963CBD" stroke-width="1.3" opacity="0.22"/><line x1="252" y1="540" x2="296" y2="564" stroke="#963CBD" stroke-width="1.3" opacity="0.22"/><line x1="252" y1="540" x2="296" y2="612" stroke="#963CBD" stroke-width="1.3" opacity="0.22"/><line x1="252" y1="540" x2="296" y2="660" stroke="#963CBD" stroke-width="1.3" opacity="0.22"/><line x1="252" y1="540" x2="296" y2="708" stroke="#963CBD" stroke-width="1.3" opacity="0.22"/><line x1="252" y1="540" x2="296" y2="756" stroke="#963CBD" stroke-width="1.3" opacity="0.22"/><line x1="252" y1="540" x2="296" y2="804" stroke="#963CBD" stroke-width="1.3" opacity="0.22"/></g>
  <g><rect x="298" y="261" width="64" height="30" rx="5" fill="#00A3E0" fill-opacity="0.12" stroke="#46BDE9" stroke-width="1.8" opacity="0.6"/><line x1="362" y1="276" x2="416.2" y2="276" stroke="#46BDE9" stroke-width="1.6" opacity="0.45"/><rect x="416.2" y="264" width="48" height="24" rx="4" fill="#2CD5C4" opacity="0.8"/><rect x="298" y="309" width="64" height="30" rx="5" fill="#00A3E0" fill-opacity="0.12" stroke="#46BDE9" stroke-width="1.8" opacity="0.6"/><line x1="362" y1="324" x2="423.5" y2="324" stroke="#46BDE9" stroke-width="1.6" opacity="0.45"/><rect x="423.5" y="312" width="48" height="24" rx="4" fill="#00A3E0" opacity="0.6"/><line x1="471.5" y1="324" x2="529.7" y2="324" stroke="#46BDE9" stroke-width="1.6" opacity="0.45"/><rect x="529.7" y="312" width="48" height="24" rx="4" fill="#963CBD" opacity="0.5"/><line x1="577.7" y1="324" x2="633.4" y2="324" stroke="#46BDE9" stroke-width="1.6" opacity="0.45"/><rect x="633.4" y="312" width="48" height="24" rx="4" fill="#963CBD" opacity="0.8"/><line x1="681.4" y1="324" x2="728" y2="324" stroke="#46BDE9" stroke-width="1.6" opacity="0.45"/><rect x="728" y="312" width="48" height="24" rx="4" fill="#2CD5C4" opacity="0.8"/><rect x="298" y="357" width="64" height="30" rx="5" fill="#00A3E0" fill-opacity="0.12" stroke="#46BDE9" stroke-width="1.8" opacity="0.6"/><line x1="362" y1="372" x2="415.2" y2="372" stroke="#46BDE9" stroke-width="1.6" opacity="0.45"/><rect x="415.2" y="360" width="48" height="24" rx="4" fill="#2CD5C4" opacity="0.5"/><line x1="463.2" y1="372" x2="504.5" y2="372" stroke="#46BDE9" stroke-width="1.6" opacity="0.45"/><rect x="504.5" y="360" width="48" height="24" rx="4" fill="#2CD5C4" opacity="0.7"/><rect x="298" y="405" width="64" height="30" rx="5" fill="#00A3E0" fill-opacity="0.12" stroke="#46BDE9" stroke-width="1.8" opacity="0.6"/><line x1="362" y1="420" x2="419.3" y2="420" stroke="#46BDE9" stroke-width="1.6" opacity="0.45"/><rect x="419.3" y="408" width="48" height="24" rx="4" fill="#963CBD" opacity="0.5"/><line x1="467.3" y1="420" x2="511.2" y2="420" stroke="#46BDE9" stroke-width="1.6" opacity="0.45"/><rect x="511.2" y="408" width="48" height="24" rx="4" fill="#00A3E0" opacity="0.8"/><line x1="559.2" y1="420" x2="616" y2="420" stroke="#46BDE9" stroke-width="1.6" opacity="0.45"/><rect x="616" y="408" width="48" height="24" rx="4" fill="#00A3E0" opacity="0.5"/><rect x="298" y="453" width="64" height="30" rx="5" fill="#00A3E0" fill-opacity="0.12" stroke="#46BDE9" stroke-width="1.8" opacity="0.6"/><line x1="362" y1="468" x2="423.8" y2="468" stroke="#46BDE9" stroke-width="1.6" opacity="0.45"/><rect x="423.8" y="456" width="48" height="24" rx="4" fill="#00A3E0" opacity="0.8"/><line x1="471.8" y1="468" x2="530" y2="468" stroke="#46BDE9" stroke-width="1.6" opacity="0.45"/><rect x="530" y="456" width="48" height="24" rx="4" fill="#963CBD" opacity="0.6"/><line x1="578" y1="468" x2="638.8" y2="468" stroke="#46BDE9" stroke-width="1.6" opacity="0.45"/><rect x="638.8" y="456" width="48" height="24" rx="4" fill="#00A3E0" opacity="0.5"/><line x1="686.8" y1="468" x2="746.5" y2="468" stroke="#46BDE9" stroke-width="1.6" opacity="0.45"/><rect x="746.5" y="456" width="48" height="24" rx="4" fill="#2CD5C4" opacity="0.8"/><line x1="794.5" y1="468" x2="836.7" y2="468" stroke="#46BDE9" stroke-width="1.6" opacity="0.45"/><rect x="836.7" y="456" width="48" height="24" rx="4" fill="#00A3E0" opacity="0.6"/><rect x="298" y="501" width="64" height="30" rx="5" fill="#00A3E0" fill-opacity="0.12" stroke="#46BDE9" stroke-width="1.8" opacity="0.6"/><line x1="362" y1="516" x2="425" y2="516" stroke="#46BDE9" stroke-width="1.6" opacity="0.45"/><rect x="425" y="504" width="48" height="24" rx="4" fill="#00A3E0" opacity="0.8"/><line x1="473" y1="516" x2="519.6" y2="516" stroke="#46BDE9" stroke-width="1.6" opacity="0.45"/><rect x="519.6" y="504" width="48" height="24" rx="4" fill="#2CD5C4" opacity="0.7"/><rect x="298" y="549" width="64" height="30" rx="5" fill="#00A3E0" fill-opacity="0.12" stroke="#46BDE9" stroke-width="1.8" opacity="0.6"/><line x1="362" y1="564" x2="405.5" y2="564" stroke="#46BDE9" stroke-width="1.6" opacity="0.45"/><rect x="405.5" y="552" width="48" height="24" rx="4" fill="#2CD5C4" opacity="0.6"/><rect x="298" y="597" width="64" height="30" rx="5" fill="#00A3E0" fill-opacity="0.12" stroke="#46BDE9" stroke-width="1.8" opacity="0.6"/><line x1="362" y1="612" x2="412.2" y2="612" stroke="#46BDE9" stroke-width="1.6" opacity="0.45"/><rect x="412.2" y="600" width="48" height="24" rx="4" fill="#00A3E0" opacity="0.6"/><line x1="460.2" y1="612" x2="522.3" y2="612" stroke="#46BDE9" stroke-width="1.6" opacity="0.45"/><rect x="522.3" y="600" width="48" height="24" rx="4" fill="#00A3E0" opacity="0.8"/><line x1="570.3" y1="612" x2="628.3" y2="612" stroke="#46BDE9" stroke-width="1.6" opacity="0.45"/><rect x="628.3" y="600" width="48" height="24" rx="4" fill="#00A3E0" opacity="0.8"/><rect x="298" y="645" width="64" height="30" rx="5" fill="#00A3E0" fill-opacity="0.12" stroke="#46BDE9" stroke-width="1.8" opacity="0.6"/><line x1="362" y1="660" x2="405.9" y2="660" stroke="#46BDE9" stroke-width="1.6" opacity="0.45"/><rect x="405.9" y="648" width="48" height="24" rx="4" fill="#2CD5C4" opacity="0.8"/><line x1="453.9" y1="660" x2="498.1" y2="660" stroke="#46BDE9" stroke-width="1.6" opacity="0.45"/><rect x="498.1" y="648" width="48" height="24" rx="4" fill="#00A3E0" opacity="0.7"/><line x1="546.1" y1="660" x2="593.4" y2="660" stroke="#46BDE9" stroke-width="1.6" opacity="0.45"/><rect x="593.4" y="648" width="48" height="24" rx="4" fill="#00A3E0" opacity="0.8"/><line x1="641.4" y1="660" x2="699.4" y2="660" stroke="#46BDE9" stroke-width="1.6" opacity="0.45"/><rect x="699.4" y="648" width="48" height="24" rx="4" fill="#2CD5C4" opacity="0.5"/><line x1="747.4" y1="660" x2="803.2" y2="660" stroke="#46BDE9" stroke-width="1.6" opacity="0.45"/><rect x="803.2" y="648" width="48" height="24" rx="4" fill="#00A3E0" opacity="0.6"/><rect x="298" y="693" width="64" height="30" rx="5" fill="#00A3E0" fill-opacity="0.12" stroke="#46BDE9" stroke-width="1.8" opacity="0.6"/><line x1="362" y1="708" x2="413.6" y2="708" stroke="#46BDE9" stroke-width="1.6" opacity="0.45"/><rect x="413.6" y="696" width="48" height="24" rx="4" fill="#00A3E0" opacity="0.5"/><line x1="461.6" y1="708" x2="521.6" y2="708" stroke="#46BDE9" stroke-width="1.6" opacity="0.45"/><rect x="521.6" y="696" width="48" height="24" rx="4" fill="#963CBD" opacity="0.6"/><line x1="569.6" y1="708" x2="615.8" y2="708" stroke="#46BDE9" stroke-width="1.6" opacity="0.45"/><rect x="615.8" y="696" width="48" height="24" rx="4" fill="#00A3E0" opacity="0.6"/><line x1="663.8" y1="708" x2="712.1" y2="708" stroke="#46BDE9" stroke-width="1.6" opacity="0.45"/><rect x="712.1" y="696" width="48" height="24" rx="4" fill="#00A3E0" opacity="0.7"/><rect x="298" y="741" width="64" height="30" rx="5" fill="#00A3E0" fill-opacity="0.12" stroke="#46BDE9" stroke-width="1.8" opacity="0.6"/><line x1="362" y1="756" x2="408" y2="756" stroke="#46BDE9" stroke-width="1.6" opacity="0.45"/><rect x="408" y="744" width="48" height="24" rx="4" fill="#963CBD" opacity="0.7"/><line x1="456" y1="756" x2="507.7" y2="756" stroke="#46BDE9" stroke-width="1.6" opacity="0.45"/><rect x="507.7" y="744" width="48" height="24" rx="4" fill="#2CD5C4" opacity="0.7"/><line x1="555.7" y1="756" x2="612.3" y2="756" stroke="#46BDE9" stroke-width="1.6" opacity="0.45"/><rect x="612.3" y="744" width="48" height="24" rx="4" fill="#00A3E0" opacity="0.5"/><line x1="660.3" y1="756" x2="703.9" y2="756" stroke="#46BDE9" stroke-width="1.6" opacity="0.45"/><rect x="703.9" y="744" width="48" height="24" rx="4" fill="#00A3E0" opacity="0.5"/><rect x="298" y="789" width="64" height="30" rx="5" fill="#00A3E0" fill-opacity="0.12" stroke="#46BDE9" stroke-width="1.8" opacity="0.6"/><line x1="362" y1="804" x2="419.1" y2="804" stroke="#46BDE9" stroke-width="1.6" opacity="0.45"/><rect x="419.1" y="792" width="48" height="24" rx="4" fill="#963CBD" opacity="0.6"/><line x1="467.1" y1="804" x2="523.3" y2="804" stroke="#46BDE9" stroke-width="1.6" opacity="0.45"/><rect x="523.3" y="792" width="48" height="24" rx="4" fill="#00A3E0" opacity="0.5"/><line x1="571.3" y1="804" x2="614.3" y2="804" stroke="#46BDE9" stroke-width="1.6" opacity="0.45"/><rect x="614.3" y="792" width="48" height="24" rx="4" fill="#963CBD" opacity="0.6"/></g>
  <g><line x1="1030" y1="416" x2="1030" y2="664" stroke="#2CD5C4" stroke-width="1.1" opacity="0.14"/><line x1="1117.5" y1="416" x2="1117.5" y2="664" stroke="#2CD5C4" stroke-width="1.1" opacity="0.14"/><line x1="1205" y1="416" x2="1205" y2="664" stroke="#2CD5C4" stroke-width="1.1" opacity="0.14"/><line x1="1292.5" y1="416" x2="1292.5" y2="664" stroke="#2CD5C4" stroke-width="1.1" opacity="0.14"/><line x1="1380" y1="416" x2="1380" y2="664" stroke="#2CD5C4" stroke-width="1.1" opacity="0.14"/><line x1="1467.5" y1="416" x2="1467.5" y2="664" stroke="#2CD5C4" stroke-width="1.1" opacity="0.14"/><line x1="1555" y1="416" x2="1555" y2="664" stroke="#2CD5C4" stroke-width="1.1" opacity="0.14"/><line x1="1642.5" y1="416" x2="1642.5" y2="664" stroke="#2CD5C4" stroke-width="1.1" opacity="0.14"/><line x1="1730" y1="416" x2="1730" y2="664" stroke="#2CD5C4" stroke-width="1.1" opacity="0.14"/></g>
  <g><path d="M 1030 664 L 1073.8 664 L 1117.5 664 L 1161.3 664 L 1205 664 L 1248.8 664 L 1292.5 664 L 1336.3 664 L 1380 664 L 1423.8 664 L 1467.5 664 L 1511.3 664 L 1555 664 L 1598.8 664 L 1642.5 664 L 1686.3 664 L 1730 664" fill="none" stroke="#2CD5C4" stroke-width="1.4" opacity="0.3"/><circle cx="1030" cy="664" r="12.8" fill="url(#h-mint)" opacity="0.4"/><circle cx="1030" cy="664" r="4" fill="#2CD5C4" opacity="0.5"/><circle cx="1073.8" cy="664" r="12.8" fill="url(#h-mint)" opacity="0.4"/><circle cx="1073.8" cy="664" r="4" fill="#2CD5C4" opacity="0.5"/><circle cx="1117.5" cy="664" r="12.8" fill="url(#h-mint)" opacity="0.4"/><circle cx="1117.5" cy="664" r="4" fill="#2CD5C4" opacity="0.5"/><circle cx="1161.3" cy="664" r="12.8" fill="url(#h-mint)" opacity="0.4"/><circle cx="1161.3" cy="664" r="4" fill="#2CD5C4" opacity="0.5"/><circle cx="1205" cy="664" r="12.8" fill="url(#h-mint)" opacity="0.4"/><circle cx="1205" cy="664" r="4" fill="#2CD5C4" opacity="0.5"/><circle cx="1248.8" cy="664" r="12.8" fill="url(#h-mint)" opacity="0.4"/><circle cx="1248.8" cy="664" r="4" fill="#2CD5C4" opacity="0.5"/><circle cx="1292.5" cy="664" r="12.8" fill="url(#h-mint)" opacity="0.4"/><circle cx="1292.5" cy="664" r="4" fill="#2CD5C4" opacity="0.5"/><circle cx="1336.3" cy="664" r="12.8" fill="url(#h-mint)" opacity="0.4"/><circle cx="1336.3" cy="664" r="4" fill="#2CD5C4" opacity="0.5"/><circle cx="1380" cy="664" r="12.8" fill="url(#h-mint)" opacity="0.4"/><circle cx="1380" cy="664" r="4" fill="#2CD5C4" opacity="0.5"/><circle cx="1423.8" cy="664" r="12.8" fill="url(#h-mint)" opacity="0.4"/><circle cx="1423.8" cy="664" r="4" fill="#2CD5C4" opacity="0.5"/><circle cx="1467.5" cy="664" r="12.8" fill="url(#h-mint)" opacity="0.4"/><circle cx="1467.5" cy="664" r="4" fill="#2CD5C4" opacity="0.5"/><circle cx="1511.3" cy="664" r="12.8" fill="url(#h-mint)" opacity="0.4"/><circle cx="1511.3" cy="664" r="4" fill="#2CD5C4" opacity="0.5"/><circle cx="1555" cy="664" r="12.8" fill="url(#h-mint)" opacity="0.4"/><circle cx="1555" cy="664" r="4" fill="#2CD5C4" opacity="0.5"/><circle cx="1598.8" cy="664" r="12.8" fill="url(#h-mint)" opacity="0.4"/><circle cx="1598.8" cy="664" r="4" fill="#2CD5C4" opacity="0.5"/><circle cx="1642.5" cy="664" r="12.8" fill="url(#h-mint)" opacity="0.4"/><circle cx="1642.5" cy="664" r="4" fill="#2CD5C4" opacity="0.5"/><circle cx="1686.3" cy="664" r="12.8" fill="url(#h-mint)" opacity="0.4"/><circle cx="1686.3" cy="664" r="4" fill="#2CD5C4" opacity="0.5"/><circle cx="1730" cy="664" r="12.8" fill="url(#h-mint)" opacity="0.4"/><circle cx="1730" cy="664" r="4" fill="#2CD5C4" opacity="0.5"/><path d="M 1030 602 L 1117.5 602 L 1205 602 L 1292.5 602 L 1380 602 L 1467.5 602 L 1555 602 L 1642.5 602 L 1730 602" fill="none" stroke="#2CD5C4" stroke-width="1.9" opacity="0.4"/><circle cx="1030" cy="602" r="16" fill="url(#h-mint)" opacity="0.4"/><circle cx="1030" cy="602" r="5" fill="#2CD5C4" opacity="0.6"/><circle cx="1117.5" cy="602" r="16" fill="url(#h-mint)" opacity="0.4"/><circle cx="1117.5" cy="602" r="5" fill="#2CD5C4" opacity="0.6"/><circle cx="1205" cy="602" r="16" fill="url(#h-mint)" opacity="0.4"/><circle cx="1205" cy="602" r="5" fill="#2CD5C4" opacity="0.6"/><circle cx="1292.5" cy="602" r="16" fill="url(#h-mint)" opacity="0.4"/><circle cx="1292.5" cy="602" r="5" fill="#2CD5C4" opacity="0.6"/><circle cx="1380" cy="602" r="16" fill="url(#h-mint)" opacity="0.4"/><circle cx="1380" cy="602" r="5" fill="#2CD5C4" opacity="0.6"/><circle cx="1467.5" cy="602" r="16" fill="url(#h-mint)" opacity="0.4"/><circle cx="1467.5" cy="602" r="5" fill="#2CD5C4" opacity="0.6"/><circle cx="1555" cy="602" r="16" fill="url(#h-mint)" opacity="0.4"/><circle cx="1555" cy="602" r="5" fill="#2CD5C4" opacity="0.6"/><circle cx="1642.5" cy="602" r="16" fill="url(#h-mint)" opacity="0.4"/><circle cx="1642.5" cy="602" r="5" fill="#2CD5C4" opacity="0.6"/><circle cx="1730" cy="602" r="16" fill="url(#h-mint)" opacity="0.4"/><circle cx="1730" cy="602" r="5" fill="#2CD5C4" opacity="0.6"/><path d="M 1030 540 L 1205 540 L 1380 540 L 1555 540 L 1730 540" fill="none" stroke="#2CD5C4" stroke-width="2.4" opacity="0.5"/><circle cx="1030" cy="540" r="19.2" fill="url(#h-mint)" opacity="0.5"/><circle cx="1030" cy="540" r="6" fill="#2CD5C4" opacity="0.7"/><circle cx="1205" cy="540" r="19.2" fill="url(#h-mint)" opacity="0.5"/><circle cx="1205" cy="540" r="6" fill="#2CD5C4" opacity="0.7"/><circle cx="1380" cy="540" r="19.2" fill="url(#h-mint)" opacity="0.5"/><circle cx="1380" cy="540" r="6" fill="#2CD5C4" opacity="0.7"/><circle cx="1555" cy="540" r="19.2" fill="url(#h-mint)" opacity="0.5"/><circle cx="1555" cy="540" r="6" fill="#2CD5C4" opacity="0.7"/><circle cx="1730" cy="540" r="19.2" fill="url(#h-mint)" opacity="0.5"/><circle cx="1730" cy="540" r="6" fill="#2CD5C4" opacity="0.7"/><path d="M 1030 478 L 1380 478 L 1730 478" fill="none" stroke="#2CD5C4" stroke-width="2.9" opacity="0.7"/><circle cx="1030" cy="478" r="22.4" fill="url(#h-mint)" opacity="0.6"/><circle cx="1030" cy="478" r="7" fill="#2CD5C4" opacity="0.8"/><circle cx="1380" cy="478" r="22.4" fill="url(#h-mint)" opacity="0.6"/><circle cx="1380" cy="478" r="7" fill="#2CD5C4" opacity="0.8"/><circle cx="1730" cy="478" r="22.4" fill="url(#h-mint)" opacity="0.6"/><circle cx="1730" cy="478" r="7" fill="#2CD5C4" opacity="0.8"/><path d="M 1030 416 L 1730 416" fill="none" stroke="#2CD5C4" stroke-width="3.4" opacity="0.8"/><circle cx="1030" cy="416" r="25.6" fill="url(#h-mint)" opacity="0.7"/><circle cx="1030" cy="416" r="8" fill="#2CD5C4" opacity="0.9"/><circle cx="1730" cy="416" r="25.6" fill="url(#h-mint)" opacity="0.7"/><circle cx="1730" cy="416" r="8" fill="#2CD5C4" opacity="0.9"/></g>
<circle cx="252" cy="540" r="40.5" fill="url(#h-violet)" opacity="0.7"/><circle cx="252" cy="540" r="9" fill="#963CBD" opacity="1"/>
  <rect width="1920" height="1080" fill="url(#vignette)"/>
  <rect width="1920" height="1080" filter="url(#grain)" opacity="0.055" style="mix-blend-mode:overlay"/>
</svg>
