<svg xmlns="http://www.w3.org/2000/svg" width="1920" height="1080" viewBox="160 90 1600 900">
  <title>Valkey data types</title>
  <desc>Six Valkey value types laid out one per cell on an even three-by-two grid: a run of bytes, a linked list, unordered members inside a boundary, field and value pairs, members ranked by score, and a dense bitmap, representing the range of structures Valkey stores. The title "Valkey data types" is set on solid light blocks in the lower left.</desc>
  <defs>
    <linearGradient id="sky" x1="0" y1="0" x2="0.32" y2="1">
      <stop offset="0" stop-color="#060A24"/>
      <stop offset="0.48" stop-color="#171043"/>
      <stop offset="1" stop-color="#301868"/>
    </linearGradient>
    <radialGradient id="vignette" gradientUnits="userSpaceOnUse" cx="960" cy="540" r="1180">
      <stop offset="0.5" stop-color="#03040F" stop-opacity="0"/>
      <stop offset="1" stop-color="#03040F" stop-opacity="0.8"/>
    </radialGradient>
    <radialGradient id="scrim">
      <stop offset="0" stop-color="#060A24" stop-opacity="0.72"/>
      <stop offset="0.6" stop-color="#060A24" stop-opacity="0.45"/>
      <stop offset="1" stop-color="#060A24" stop-opacity="0"/>
    </radialGradient>
    <filter id="grain" x="0" y="0" width="100%" height="100%">
      <feTurbulence type="fractalNoise" baseFrequency="0.85" numOctaves="4" stitchTiles="stitch"/>
      <feColorMatrix type="saturate" values="0"/>
    </filter>
    <radialGradient id="h-cyan"><stop offset="0" stop-color="#46BDE9" stop-opacity="0.75"/><stop offset="0.4" stop-color="#46BDE9" stop-opacity="0.22"/><stop offset="1" stop-color="#46BDE9" stop-opacity="0"/></radialGradient>
    <radialGradient id="h-ice"><stop offset="0" stop-color="#CCF1FF" stop-opacity="0.75"/><stop offset="0.4" stop-color="#CCF1FF" stop-opacity="0.22"/><stop offset="1" stop-color="#CCF1FF" stop-opacity="0"/></radialGradient>
    <radialGradient id="h-mint"><stop offset="0" stop-color="#2CD5C4" stop-opacity="0.75"/><stop offset="0.4" stop-color="#2CD5C4" stop-opacity="0.22"/><stop offset="1" stop-color="#2CD5C4" stop-opacity="0"/></radialGradient>
    <radialGradient id="h-coral"><stop offset="0" stop-color="#F65275" stop-opacity="0.75"/><stop offset="0.4" stop-color="#F65275" stop-opacity="0.22"/><stop offset="1" stop-color="#F65275" stop-opacity="0"/></radialGradient>
    <radialGradient id="h-violet"><stop offset="0" stop-color="#963CBD" stop-opacity="0.75"/><stop offset="0.4" stop-color="#963CBD" stop-opacity="0.22"/><stop offset="1" stop-color="#963CBD" stop-opacity="0"/></radialGradient>
    <radialGradient id="h-gold"><stop offset="0" stop-color="#FFB81C" stop-opacity="0.75"/><stop offset="0.4" stop-color="#FFB81C" stop-opacity="0.22"/><stop offset="1" stop-color="#FFB81C" stop-opacity="0"/></radialGradient>
    <filter id="blur3" x="-70%" y="-70%" width="240%" height="240%"><feGaussianBlur stdDeviation="3"/></filter>
    <filter id="blur8" x="-70%" y="-70%" width="240%" height="240%"><feGaussianBlur stdDeviation="8"/></filter>
    <filter id="blur18" x="-70%" y="-70%" width="240%" height="240%"><feGaussianBlur stdDeviation="18"/></filter>
    <filter id="blur40" x="-70%" y="-70%" width="240%" height="240%"><feGaussianBlur stdDeviation="40"/></filter>
  </defs>
  <rect width="1920" height="1080" fill="url(#sky)"/>

  <ellipse cx="960" cy="540" rx="640" ry="430" fill="url(#h-cyan)" opacity="0.16"/>
  <circle cx="600" cy="351" r="168" fill="url(#h-cyan)" opacity="0.16"/>
  <circle cx="960" cy="351" r="168" fill="url(#h-mint)" opacity="0.16"/>
  <circle cx="1320" cy="351" r="168" fill="url(#h-gold)" opacity="0.16"/>
  <circle cx="600" cy="729" r="168" fill="url(#h-coral)" opacity="0.16"/>
  <circle cx="960" cy="729" r="168" fill="url(#h-violet)" opacity="0.16"/>
  <circle cx="1320" cy="729" r="168" fill="url(#h-ice)" opacity="0.16"/>
  <g><rect x="440" y="182" width="320" height="338" rx="22" fill="#060A24" fill-opacity="0.26" stroke="#CCF1FF" stroke-width="2.4" opacity="0.32"/><line x1="466" y1="182" x2="540" y2="182" stroke="#46BDE9" stroke-width="6" stroke-linecap="round" opacity="0.9"/><rect x="800" y="182" width="320" height="338" rx="22" fill="#060A24" fill-opacity="0.26" stroke="#CCF1FF" stroke-width="2.4" opacity="0.32"/><line x1="826" y1="182" x2="900" y2="182" stroke="#2CD5C4" stroke-width="6" stroke-linecap="round" opacity="0.9"/><rect x="1160" y="182" width="320" height="338" rx="22" fill="#060A24" fill-opacity="0.26" stroke="#CCF1FF" stroke-width="2.4" opacity="0.32"/><line x1="1186" y1="182" x2="1260" y2="182" stroke="#FFB81C" stroke-width="6" stroke-linecap="round" opacity="0.9"/><rect x="440" y="560" width="320" height="338" rx="22" fill="#060A24" fill-opacity="0.26" stroke="#CCF1FF" stroke-width="2.4" opacity="0.32"/><line x1="466" y1="560" x2="540" y2="560" stroke="#F65275" stroke-width="6" stroke-linecap="round" opacity="0.9"/><rect x="800" y="560" width="320" height="338" rx="22" fill="#060A24" fill-opacity="0.26" stroke="#CCF1FF" stroke-width="2.4" opacity="0.32"/><line x1="826" y1="560" x2="900" y2="560" stroke="#963CBD" stroke-width="6" stroke-linecap="round" opacity="0.9"/><rect x="1160" y="560" width="320" height="338" rx="22" fill="#060A24" fill-opacity="0.26" stroke="#CCF1FF" stroke-width="2.4" opacity="0.32"/><line x1="1186" y1="560" x2="1260" y2="560" stroke="#CCF1FF" stroke-width="6" stroke-linecap="round" opacity="0.9"/></g>
  <g><rect x="460" y="341" width="40" height="52" rx="7" fill="#46BDE9" fill-opacity="0.4" stroke="#46BDE9" stroke-width="2.4" opacity="0.9"/><rect x="508" y="341" width="40" height="52" rx="7" fill="#46BDE9" fill-opacity="0.6" stroke="#46BDE9" stroke-width="2.4" opacity="0.9"/><rect x="556" y="341" width="40" height="52" rx="7" fill="#46BDE9" fill-opacity="0.6" stroke="#46BDE9" stroke-width="2.4" opacity="0.9"/><rect x="604" y="341" width="40" height="52" rx="7" fill="#46BDE9" fill-opacity="0.5" stroke="#46BDE9" stroke-width="2.4" opacity="0.9"/><rect x="652" y="341" width="40" height="52" rx="7" fill="#46BDE9" fill-opacity="0.5" stroke="#46BDE9" stroke-width="2.4" opacity="0.9"/><rect x="700" y="341" width="40" height="52" rx="7" fill="#46BDE9" fill-opacity="0.5" stroke="#46BDE9" stroke-width="2.4" opacity="0.9"/><path d="M 460 327 L 460 315 L 740 315 L 740 327" fill="none" stroke="#46BDE9" stroke-width="2.6" opacity="0.55"/><line x1="960" y1="269" x2="960" y2="286" stroke="#2CD5C4" stroke-width="3" opacity="0.6"/><path d="M 952 280 L 960 293 L 968 280" fill="none" stroke="#2CD5C4" stroke-width="3" stroke-linecap="round" stroke-linejoin="round" opacity="0.8"/><line x1="960" y1="339" x2="960" y2="356" stroke="#2CD5C4" stroke-width="3" opacity="0.6"/><path d="M 952 350 L 960 363 L 968 350" fill="none" stroke="#2CD5C4" stroke-width="3" stroke-linecap="round" stroke-linejoin="round" opacity="0.8"/><line x1="960" y1="409" x2="960" y2="426" stroke="#2CD5C4" stroke-width="3" opacity="0.6"/><path d="M 952 420 L 960 433 L 968 420" fill="none" stroke="#2CD5C4" stroke-width="3" stroke-linecap="round" stroke-linejoin="round" opacity="0.8"/><rect x="898" y="223" width="124" height="46" rx="11" fill="#2CD5C4" fill-opacity="0.16" stroke="#2CD5C4" stroke-width="2.8" opacity="0.9"/><line x1="978" y1="223" x2="978" y2="269" stroke="#2CD5C4" stroke-width="2" opacity="0.5"/><circle cx="938" cy="246" r="16.5" fill="url(#h-mint)" opacity="0.6"/><circle cx="938" cy="246" r="5.5" fill="#2CD5C4" opacity="0.9"/><rect x="898" y="293" width="124" height="46" rx="11" fill="#2CD5C4" fill-opacity="0.16" stroke="#2CD5C4" stroke-width="2.8" opacity="0.9"/><line x1="978" y1="293" x2="978" y2="339" stroke="#2CD5C4" stroke-width="2" opacity="0.5"/><circle cx="938" cy="316" r="16.5" fill="url(#h-mint)" opacity="0.6"/><circle cx="938" cy="316" r="5.5" fill="#2CD5C4" opacity="0.9"/><rect x="898" y="363" width="124" height="46" rx="11" fill="#2CD5C4" fill-opacity="0.16" stroke="#2CD5C4" stroke-width="2.8" opacity="0.9"/><line x1="978" y1="363" x2="978" y2="409" stroke="#2CD5C4" stroke-width="2" opacity="0.5"/><circle cx="938" cy="386" r="16.5" fill="url(#h-mint)" opacity="0.6"/><circle cx="938" cy="386" r="5.5" fill="#2CD5C4" opacity="0.9"/><rect x="898" y="433" width="124" height="46" rx="11" fill="#2CD5C4" fill-opacity="0.16" stroke="#2CD5C4" stroke-width="2.8" opacity="0.9"/><line x1="978" y1="433" x2="978" y2="479" stroke="#2CD5C4" stroke-width="2" opacity="0.5"/><circle cx="938" cy="456" r="16.5" fill="url(#h-mint)" opacity="0.6"/><circle cx="938" cy="456" r="5.5" fill="#2CD5C4" opacity="0.9"/><circle cx="1320" cy="351" r="104" fill="#060A24" fill-opacity="0.14" stroke="#FFB81C" stroke-width="3" stroke-dasharray="9 12" opacity="0.7"/><circle cx="1348.2" cy="304.5" r="21" fill="url(#h-gold)" opacity="0.6"/><circle cx="1348.2" cy="304.5" r="7" fill="#FFB81C" opacity="0.9"/><circle cx="1374.4" cy="327.8" r="21" fill="url(#h-gold)" opacity="0.6"/><circle cx="1374.4" cy="327.8" r="7" fill="#FFB81C" opacity="0.9"/><circle cx="1276.6" cy="378" r="21" fill="url(#h-gold)" opacity="0.6"/><circle cx="1276.6" cy="378" r="7" fill="#FFB81C" opacity="0.9"/><circle cx="1318.3" cy="396" r="21" fill="url(#h-gold)" opacity="0.6"/><circle cx="1318.3" cy="396" r="7" fill="#FFB81C" opacity="0.9"/><circle cx="1342.3" cy="378.7" r="21" fill="url(#h-gold)" opacity="0.6"/><circle cx="1342.3" cy="378.7" r="7" fill="#FFB81C" opacity="0.9"/><circle cx="1335.7" cy="361.1" r="21" fill="url(#h-gold)" opacity="0.6"/><circle cx="1335.7" cy="361.1" r="7" fill="#FFB81C" opacity="0.9"/><circle cx="1338.2" cy="376.2" r="21" fill="url(#h-gold)" opacity="0.6"/><circle cx="1338.2" cy="376.2" r="7" fill="#FFB81C" opacity="0.9"/><circle cx="1277.3" cy="415.2" r="21" fill="url(#h-gold)" opacity="0.6"/><circle cx="1277.3" cy="415.2" r="7" fill="#FFB81C" opacity="0.9"/><circle cx="1313.8" cy="322.5" r="21" fill="url(#h-gold)" opacity="0.6"/><circle cx="1313.8" cy="322.5" r="7" fill="#FFB81C" opacity="0.9"/><rect x="510" y="645" width="36" height="36" rx="8" fill="#F65275" fill-opacity="0.24" stroke="#F65275" stroke-width="2.6" opacity="0.9"/><line x1="552" y1="663" x2="568" y2="663" stroke="#F65275" stroke-width="2.4" opacity="0.55"/><line x1="574" y1="663" x2="644" y2="663" stroke="#F65275" stroke-width="7" stroke-linecap="round" opacity="0.7"/><rect x="510" y="689" width="36" height="36" rx="8" fill="#F65275" fill-opacity="0.24" stroke="#F65275" stroke-width="2.6" opacity="0.9"/><line x1="552" y1="707" x2="568" y2="707" stroke="#F65275" stroke-width="2.4" opacity="0.55"/><line x1="574" y1="707" x2="684" y2="707" stroke="#F65275" stroke-width="7" stroke-linecap="round" opacity="0.7"/><rect x="510" y="733" width="36" height="36" rx="8" fill="#F65275" fill-opacity="0.24" stroke="#F65275" stroke-width="2.6" opacity="0.9"/><line x1="552" y1="751" x2="568" y2="751" stroke="#F65275" stroke-width="2.4" opacity="0.55"/><line x1="574" y1="751" x2="658" y2="751" stroke="#F65275" stroke-width="7" stroke-linecap="round" opacity="0.7"/><rect x="510" y="777" width="36" height="36" rx="8" fill="#F65275" fill-opacity="0.24" stroke="#F65275" stroke-width="2.6" opacity="0.9"/><line x1="552" y1="795" x2="568" y2="795" stroke="#F65275" stroke-width="2.4" opacity="0.55"/><line x1="574" y1="795" x2="694" y2="795" stroke="#F65275" stroke-width="7" stroke-linecap="round" opacity="0.7"/><line x1="834" y1="827" x2="1086" y2="827" stroke="#963CBD" stroke-width="2.4" opacity="0.45"/><rect x="839" y="637" width="34" height="190" rx="7" fill="#963CBD" fill-opacity="0.6" stroke="#963CBD" stroke-width="2.2" opacity="0.9"/><circle cx="856" cy="637" r="18" fill="url(#h-violet)" opacity="0.6"/><circle cx="856" cy="637" r="6" fill="#963CBD" opacity="0.9"/><rect x="891" y="669" width="34" height="158" rx="7" fill="#963CBD" fill-opacity="0.5" stroke="#963CBD" stroke-width="2.2" opacity="0.9"/><circle cx="908" cy="669" r="18" fill="url(#h-violet)" opacity="0.6"/><circle cx="908" cy="669" r="6" fill="#963CBD" opacity="0.9"/><rect x="943" y="699" width="34" height="128" rx="7" fill="#963CBD" fill-opacity="0.5" stroke="#963CBD" stroke-width="2.2" opacity="0.9"/><circle cx="960" cy="699" r="18" fill="url(#h-violet)" opacity="0.6"/><circle cx="960" cy="699" r="6" fill="#963CBD" opacity="0.9"/><rect x="995" y="729" width="34" height="98" rx="7" fill="#963CBD" fill-opacity="0.4" stroke="#963CBD" stroke-width="2.2" opacity="0.9"/><circle cx="1012" cy="729" r="18" fill="url(#h-violet)" opacity="0.6"/><circle cx="1012" cy="729" r="6" fill="#963CBD" opacity="0.9"/><rect x="1047" y="757" width="34" height="70" rx="7" fill="#963CBD" fill-opacity="0.3" stroke="#963CBD" stroke-width="2.2" opacity="0.9"/><circle cx="1064" cy="757" r="18" fill="url(#h-violet)" opacity="0.6"/><circle cx="1064" cy="757" r="6" fill="#963CBD" opacity="0.9"/><rect x="1203" y="642" width="24" height="24" rx="4" fill="#CCF1FF" fill-opacity="0.82" stroke="#CCF1FF" stroke-width="1.6" opacity="0.95"/><rect x="1203" y="672" width="24" height="24" rx="4" fill="#CCF1FF" fill-opacity="0" stroke="#CCF1FF" stroke-width="1.6" opacity="0.26"/><rect x="1203" y="702" width="24" height="24" rx="4" fill="#CCF1FF" fill-opacity="0.82" stroke="#CCF1FF" stroke-width="1.6" opacity="0.95"/><rect x="1203" y="732" width="24" height="24" rx="4" fill="#CCF1FF" fill-opacity="0" stroke="#CCF1FF" stroke-width="1.6" opacity="0.26"/><rect x="1203" y="762" width="24" height="24" rx="4" fill="#CCF1FF" fill-opacity="0" stroke="#CCF1FF" stroke-width="1.6" opacity="0.26"/><rect x="1203" y="792" width="24" height="24" rx="4" fill="#CCF1FF" fill-opacity="0" stroke="#CCF1FF" stroke-width="1.6" opacity="0.26"/><rect x="1233" y="642" width="24" height="24" rx="4" fill="#CCF1FF" fill-opacity="0.82" stroke="#CCF1FF" stroke-width="1.6" opacity="0.95"/><rect x="1233" y="672" width="24" height="24" rx="4" fill="#CCF1FF" fill-opacity="0" stroke="#CCF1FF" stroke-width="1.6" opacity="0.26"/><rect x="1233" y="702" width="24" height="24" rx="4" fill="#CCF1FF" fill-opacity="0" stroke="#CCF1FF" stroke-width="1.6" opacity="0.26"/><rect x="1233" y="732" width="24" height="24" rx="4" fill="#CCF1FF" fill-opacity="0" stroke="#CCF1FF" stroke-width="1.6" opacity="0.26"/><rect x="1233" y="762" width="24" height="24" rx="4" fill="#CCF1FF" fill-opacity="0" stroke="#CCF1FF" stroke-width="1.6" opacity="0.26"/><rect x="1233" y="792" width="24" height="24" rx="4" fill="#CCF1FF" fill-opacity="0.82" stroke="#CCF1FF" stroke-width="1.6" opacity="0.95"/><rect x="1263" y="642" width="24" height="24" rx="4" fill="#CCF1FF" fill-opacity="0" stroke="#CCF1FF" stroke-width="1.6" opacity="0.26"/><rect x="1263" y="672" width="24" height="24" rx="4" fill="#CCF1FF" fill-opacity="0.82" stroke="#CCF1FF" stroke-width="1.6" opacity="0.95"/><rect x="1263" y="702" width="24" height="24" rx="4" fill="#CCF1FF" fill-opacity="0" stroke="#CCF1FF" stroke-width="1.6" opacity="0.26"/><rect x="1263" y="732" width="24" height="24" rx="4" fill="#CCF1FF" fill-opacity="0.82" stroke="#CCF1FF" stroke-width="1.6" opacity="0.95"/><rect x="1263" y="762" width="24" height="24" rx="4" fill="#CCF1FF" fill-opacity="0" stroke="#CCF1FF" stroke-width="1.6" opacity="0.26"/><rect x="1263" y="792" width="24" height="24" rx="4" fill="#CCF1FF" fill-opacity="0" stroke="#CCF1FF" stroke-width="1.6" opacity="0.26"/><rect x="1293" y="642" width="24" height="24" rx="4" fill="#CCF1FF" fill-opacity="0" stroke="#CCF1FF" stroke-width="1.6" opacity="0.26"/><rect x="1293" y="672" width="24" height="24" rx="4" fill="#CCF1FF" fill-opacity="0.82" stroke="#CCF1FF" stroke-width="1.6" opacity="0.95"/><rect x="1293" y="702" width="24" height="24" rx="4" fill="#CCF1FF" fill-opacity="0" stroke="#CCF1FF" stroke-width="1.6" opacity="0.26"/><rect x="1293" y="732" width="24" height="24" rx="4" fill="#CCF1FF" fill-opacity="0" stroke="#CCF1FF" stroke-width="1.6" opacity="0.26"/><rect x="1293" y="762" width="24" height="24" rx="4" fill="#CCF1FF" fill-opacity="0" stroke="#CCF1FF" stroke-width="1.6" opacity="0.26"/><rect x="1293" y="792" width="24" height="24" rx="4" fill="#CCF1FF" fill-opacity="0" stroke="#CCF1FF" stroke-width="1.6" opacity="0.26"/><rect x="1323" y="642" width="24" height="24" rx="4" fill="#CCF1FF" fill-opacity="0.82" stroke="#CCF1FF" stroke-width="1.6" opacity="0.95"/><rect x="1323" y="672" width="24" height="24" rx="4" fill="#CCF1FF" fill-opacity="0" stroke="#CCF1FF" stroke-width="1.6" opacity="0.26"/><rect x="1323" y="702" width="24" height="24" rx="4" fill="#CCF1FF" fill-opacity="0" stroke="#CCF1FF" stroke-width="1.6" opacity="0.26"/><rect x="1323" y="732" width="24" height="24" rx="4" fill="#CCF1FF" fill-opacity="0" stroke="#CCF1FF" stroke-width="1.6" opacity="0.26"/><rect x="1323" y="762" width="24" height="24" rx="4" fill="#CCF1FF" fill-opacity="0" stroke="#CCF1FF" stroke-width="1.6" opacity="0.26"/><rect x="1323" y="792" width="24" height="24" rx="4" fill="#CCF1FF" fill-opacity="0" stroke="#CCF1FF" stroke-width="1.6" opacity="0.26"/><rect x="1353" y="642" width="24" height="24" rx="4" fill="#CCF1FF" fill-opacity="0" stroke="#CCF1FF" stroke-width="1.6" opacity="0.26"/><rect x="1353" y="672" width="24" height="24" rx="4" fill="#CCF1FF" fill-opacity="0.82" stroke="#CCF1FF" stroke-width="1.6" opacity="0.95"/><rect x="1353" y="702" width="24" height="24" rx="4" fill="#CCF1FF" fill-opacity="0.82" stroke="#CCF1FF" stroke-width="1.6" opacity="0.95"/><rect x="1353" y="732" width="24" height="24" rx="4" fill="#CCF1FF" fill-opacity="0.82" stroke="#CCF1FF" stroke-width="1.6" opacity="0.95"/><rect x="1353" y="762" width="24" height="24" rx="4" fill="#CCF1FF" fill-opacity="0" stroke="#CCF1FF" stroke-width="1.6" opacity="0.26"/><rect x="1353" y="792" width="24" height="24" rx="4" fill="#CCF1FF" fill-opacity="0" stroke="#CCF1FF" stroke-width="1.6" opacity="0.26"/><rect x="1383" y="642" width="24" height="24" rx="4" fill="#CCF1FF" fill-opacity="0.82" stroke="#CCF1FF" stroke-width="1.6" opacity="0.95"/><rect x="1383" y="672" width="24" height="24" rx="4" fill="#CCF1FF" fill-opacity="0" stroke="#CCF1FF" stroke-width="1.6" opacity="0.26"/><rect x="1383" y="702" width="24" height="24" rx="4" fill="#CCF1FF" fill-opacity="0" stroke="#CCF1FF" stroke-width="1.6" opacity="0.26"/><rect x="1383" y="732" width="24" height="24" rx="4" fill="#CCF1FF" fill-opacity="0.82" stroke="#CCF1FF" stroke-width="1.6" opacity="0.95"/><rect x="1383" y="762" width="24" height="24" rx="4" fill="#CCF1FF" fill-opacity="0" stroke="#CCF1FF" stroke-width="1.6" opacity="0.26"/><rect x="1383" y="792" width="24" height="24" rx="4" fill="#CCF1FF" fill-opacity="0.82" stroke="#CCF1FF" stroke-width="1.6" opacity="0.95"/><rect x="1413" y="642" width="24" height="24" rx="4" fill="#CCF1FF" fill-opacity="0.82" stroke="#CCF1FF" stroke-width="1.6" opacity="0.95"/><rect x="1413" y="672" width="24" height="24" rx="4" fill="#CCF1FF" fill-opacity="0" stroke="#CCF1FF" stroke-width="1.6" opacity="0.26"/><rect x="1413" y="702" width="24" height="24" rx="4" fill="#CCF1FF" fill-opacity="0" stroke="#CCF1FF" stroke-width="1.6" opacity="0.26"/><rect x="1413" y="732" width="24" height="24" rx="4" fill="#CCF1FF" fill-opacity="0" stroke="#CCF1FF" stroke-width="1.6" opacity="0.26"/><rect x="1413" y="762" width="24" height="24" rx="4" fill="#CCF1FF" fill-opacity="0" stroke="#CCF1FF" stroke-width="1.6" opacity="0.26"/><rect x="1413" y="792" width="24" height="24" rx="4" fill="#CCF1FF" fill-opacity="0.82" stroke="#CCF1FF" stroke-width="1.6" opacity="0.95"/></g>
  <rect width="1920" height="1080" fill="url(#vignette)"/>
  <rect width="1920" height="1080" filter="url(#grain)" opacity="0.055" style="mix-blend-mode:overlay"/>
  <g opacity="0.92"><g transform="translate(227.2 139.5) scale(0.68241)"><path d="M15.2,50l-9.4-5.9v-25L28.8,6l22.3,13.1v26.3l-22.7,12.8-7.9-4.9v-12l-4.3-2.7v-13.6l12.4-7.1,12.1,7.1v14.2l-9.6,5.4v-5.7c2.9-1.1,4.9-3.9,4.9-7.3s-3.4-7.8-7.6-7.8-7.6,3.5-7.6,7.8,2.1,6.2,4.9,7.3v10.9l2.7,1.7,16.8-9.5v-19.7l-16.6-9.8-17.1,9.8v18.5l3.6,2.3v6.8ZM28.5,28.1c1.9,0,3.4,1.6,3.4,3.6s-1.5,3.6-3.4,3.6-3.4-1.6-3.4-3.6,1.5-3.6,3.4-3.6Z" fill="#FFFFFF" fill-rule="evenodd"/><path d="M85.2,11.4l-12.1,33.8h-4l-12.1-33.8h4.1l7.9,22.3c.3.9.6,1.8.9,2.6.3.8.5,1.6.7,2.4.2.8.4,1.5.5,2.2.2-.7.3-1.4.5-2.2.2-.8.4-1.6.7-2.4.3-.8.6-1.7.9-2.6l7.9-22.2h4.2Z" fill="#FFFFFF"/><path d="M94,19.5c3,0,5.3.7,6.7,2,1.5,1.4,2.2,3.5,2.2,6.5v17.2h-2.8l-.7-3.7h-.2c-.7.9-1.4,1.7-2.2,2.3-.8.6-1.7,1.1-2.7,1.4-1,.3-2.2.5-3.7.5s-2.9-.3-4.1-.8c-1.2-.5-2.1-1.4-2.8-2.5-.7-1.1-1-2.5-1-4.2,0-2.5,1-4.5,3-5.8,2-1.4,5.1-2.1,9.2-2.2l4.4-.2v-1.5c0-2.2-.5-3.7-1.4-4.6-.9-.9-2.3-1.3-4-1.3-1.3,0-2.6.2-3.8.6-1.2.4-2.3.8-3.4,1.4l-1.2-2.9c1.1-.6,2.5-1.1,3.9-1.5,1.5-.4,3-.6,4.7-.6h0ZM99.1,32.8l-3.9.2c-3.2.1-5.4.6-6.7,1.5s-1.9,2.2-1.9,3.9.4,2.5,1.3,3.2c.9.7,2,1,3.5,1,2.3,0,4.1-.6,5.5-1.9s2.2-3.1,2.2-5.6v-2.3Z" fill="#FFFFFF"/><path d="M112.1,45.3h-3.9V9.3h3.9v36Z" fill="#FFFFFF"/><path d="M121.3,9.3v18.7c0,.6,0,1.4,0,2.3,0,.9,0,1.7-.1,2.3h.2c.3-.4.8-1,1.4-1.8.6-.8,1.2-1.4,1.6-1.9l8.4-9h4.5l-10.2,10.8,10.9,14.5h-4.6l-9-12-3.1,2.8v9.2h-3.8V9.3h3.8Z" fill="#FFFFFF"/><path d="M148.2,19.4c2.2,0,4,.5,5.6,1.4,1.5,1,2.7,2.3,3.5,4,.8,1.7,1.2,3.7,1.2,6v2.4h-17.5c0,3,.8,5.2,2.2,6.8s3.5,2.3,6.1,2.3,3-.1,4.3-.4c1.2-.3,2.5-.7,3.8-1.3v3.4c-1.3.6-2.6,1-3.8,1.2-1.2.3-2.7.4-4.4.4-2.4,0-4.6-.5-6.4-1.5-1.8-1-3.2-2.5-4.2-4.4-1-1.9-1.5-4.3-1.5-7.1,0-2.7.5-5.1,1.4-7.1.9-2,2.2-3.5,3.9-4.6,1.7-1.1,3.7-1.6,5.9-1.6h0ZM148.2,22.6c-2.1,0-3.7.7-4.9,2-1.2,1.3-1.9,3.2-2.2,5.6h13.4c0-1.5-.3-2.8-.7-4-.4-1.2-1.1-2.1-2.1-2.7-.9-.6-2.1-1-3.6-1Z" fill="#FFFFFF"/><path d="M158.4,19.9h4.1l5.6,14.7c.3.9.6,1.7.9,2.5.3.8.5,1.5.7,2.3.2.7.4,1.4.5,2.1h.2c.2-.8.5-1.8.9-3,.4-1.3.8-2.6,1.3-3.9l5.3-14.7h4.1l-11,29.1c-.6,1.6-1.3,2.9-2.1,4.1-.8,1.2-1.7,2-2.8,2.7-1.1.6-2.5.9-4,.9s-1.4,0-1.9-.1c-.6,0-1-.2-1.4-.3v-3.1c.3,0,.7.1,1.2.2.5,0,1,0,1.5,0,1,0,1.8-.2,2.5-.6.7-.4,1.3-.9,1.8-1.6.5-.7.9-1.5,1.3-2.5l1.4-3.6-10.2-25.4Z" fill="#FFFFFF"/></g></g>
  <g><rect x="240" y="849.2" width="303.8" height="73.3" rx="3.3" fill="#CCF1FF"/><text x="258.3" y="900.8" fill="#060A24" font-family="Helvetica Neue, Helvetica, Arial, sans-serif" font-size="51.7" font-weight="600">Data types</text></g>
</svg>
