<svg xmlns="http://www.w3.org/2000/svg" width="1920" height="1080" viewBox="232.7 130.9 1454.5 818.2">
  <title>Valkey sorted set ranges in one walk</title>
  <desc>Seven separate member blocks at scattered heights joined by long purple arcs that climb out of each one to reach the next, above a chain of four green leaf nodes holding their members packed side by side with a single straight green arrow running the whole length of the chain, representing an ordered range read that no longer chases pointers. The title "Valkey sorted set ranges in one walk" is set on solid light blocks in the lower left.</desc>
  <defs>
    <linearGradient id="sky" x1="0" y1="0" x2="0.32" y2="1">
      <stop offset="0" stop-color="#060A24"/>
      <stop offset="0.48" stop-color="#171043"/>
      <stop offset="1" stop-color="#301868"/>
    </linearGradient>
    <radialGradient id="vignette" gradientUnits="userSpaceOnUse" cx="960" cy="540" r="1180">
      <stop offset="0.5" stop-color="#03040F" stop-opacity="0"/>
      <stop offset="1" stop-color="#03040F" stop-opacity="0.8"/>
    </radialGradient>
    <radialGradient id="scrim">
      <stop offset="0" stop-color="#060A24" stop-opacity="0.72"/>
      <stop offset="0.6" stop-color="#060A24" stop-opacity="0.45"/>
      <stop offset="1" stop-color="#060A24" stop-opacity="0"/>
    </radialGradient>
    <filter id="grain" x="0" y="0" width="100%" height="100%">
      <feTurbulence type="fractalNoise" baseFrequency="0.85" numOctaves="4" stitchTiles="stitch"/>
      <feColorMatrix type="saturate" values="0"/>
    </filter>
    <radialGradient id="h-cyan"><stop offset="0" stop-color="#46BDE9" stop-opacity="0.75"/><stop offset="0.4" stop-color="#46BDE9" stop-opacity="0.22"/><stop offset="1" stop-color="#46BDE9" stop-opacity="0"/></radialGradient>
    <radialGradient id="h-ice"><stop offset="0" stop-color="#CCF1FF" stop-opacity="0.75"/><stop offset="0.4" stop-color="#CCF1FF" stop-opacity="0.22"/><stop offset="1" stop-color="#CCF1FF" stop-opacity="0"/></radialGradient>
    <radialGradient id="h-mint"><stop offset="0" stop-color="#2CD5C4" stop-opacity="0.75"/><stop offset="0.4" stop-color="#2CD5C4" stop-opacity="0.22"/><stop offset="1" stop-color="#2CD5C4" stop-opacity="0"/></radialGradient>
    <radialGradient id="h-coral"><stop offset="0" stop-color="#F65275" stop-opacity="0.75"/><stop offset="0.4" stop-color="#F65275" stop-opacity="0.22"/><stop offset="1" stop-color="#F65275" stop-opacity="0"/></radialGradient>
    <radialGradient id="h-violet"><stop offset="0" stop-color="#963CBD" stop-opacity="0.75"/><stop offset="0.4" stop-color="#963CBD" stop-opacity="0.22"/><stop offset="1" stop-color="#963CBD" stop-opacity="0"/></radialGradient>
    <radialGradient id="h-gold"><stop offset="0" stop-color="#FFB81C" stop-opacity="0.75"/><stop offset="0.4" stop-color="#FFB81C" stop-opacity="0.22"/><stop offset="1" stop-color="#FFB81C" stop-opacity="0"/></radialGradient>
    <filter id="blur3" x="-70%" y="-70%" width="240%" height="240%"><feGaussianBlur stdDeviation="3"/></filter>
    <filter id="blur8" x="-70%" y="-70%" width="240%" height="240%"><feGaussianBlur stdDeviation="8"/></filter>
    <filter id="blur18" x="-70%" y="-70%" width="240%" height="240%"><feGaussianBlur stdDeviation="18"/></filter>
    <filter id="blur40" x="-70%" y="-70%" width="240%" height="240%"><feGaussianBlur stdDeviation="40"/></filter>
  </defs>
  <rect width="1920" height="1080" fill="url(#sky)"/>
  <ellipse cx="960" cy="716" rx="590" ry="230" fill="url(#h-mint)" opacity="0.3"/>
  <g><path d="M 512 255 C 546 171 630 239 664 323" fill="none" stroke="#963CBD" stroke-width="4" opacity="0.65"/><path d="M 664 323 C 698 239 782 356 816 440" fill="none" stroke="#963CBD" stroke-width="4" opacity="0.65"/><path d="M 816 440 C 850 356 934 338 968 422" fill="none" stroke="#963CBD" stroke-width="4" opacity="0.65"/><path d="M 968 422 C 1002 338 1086 305 1120 389" fill="none" stroke="#963CBD" stroke-width="4" opacity="0.65"/><path d="M 1120 389 C 1154 305 1238 357 1272 441" fill="none" stroke="#963CBD" stroke-width="4" opacity="0.65"/><path d="M 1272 441 C 1306 357 1390 324 1424 408" fill="none" stroke="#963CBD" stroke-width="4" opacity="0.65"/></g>
  <g><rect x="481" y="255" width="62" height="32" rx="7" fill="#00A3E0" fill-opacity="0.3" stroke="#46BDE9" stroke-width="2.6" opacity="0.6"/><rect x="633" y="323" width="62" height="32" rx="7" fill="#00A3E0" fill-opacity="0.3" stroke="#46BDE9" stroke-width="2.6" opacity="0.6"/><rect x="785" y="440" width="62" height="32" rx="7" fill="#00A3E0" fill-opacity="0.3" stroke="#46BDE9" stroke-width="2.6" opacity="0.6"/><rect x="937" y="422" width="62" height="32" rx="7" fill="#00A3E0" fill-opacity="0.3" stroke="#46BDE9" stroke-width="2.6" opacity="0.6"/><rect x="1089" y="389" width="62" height="32" rx="7" fill="#00A3E0" fill-opacity="0.3" stroke="#46BDE9" stroke-width="2.6" opacity="0.6"/><rect x="1241" y="441" width="62" height="32" rx="7" fill="#00A3E0" fill-opacity="0.3" stroke="#46BDE9" stroke-width="2.6" opacity="0.6"/><rect x="1393" y="408" width="62" height="32" rx="7" fill="#00A3E0" fill-opacity="0.3" stroke="#46BDE9" stroke-width="2.6" opacity="0.6"/></g>
  <g filter="url(#blur18)" opacity="0.45"><rect x="490" y="640" width="214" height="152" rx="18" fill="#060A24" fill-opacity="0.45" stroke="#2CD5C4" stroke-width="8" opacity="0.95"/><rect x="507" y="722" width="44" height="48" rx="6" fill="#46BDE9" opacity="0.85"/><rect x="555" y="722" width="44" height="48" rx="6" fill="#46BDE9" opacity="0.85"/><rect x="603" y="722" width="44" height="48" rx="6" fill="#46BDE9" opacity="0.85"/><rect x="651" y="722" width="44" height="48" rx="6" fill="#46BDE9" opacity="0.85"/><rect x="728" y="640" width="214" height="152" rx="18" fill="#060A24" fill-opacity="0.45" stroke="#2CD5C4" stroke-width="8" opacity="0.95"/><rect x="745" y="722" width="44" height="48" rx="6" fill="#46BDE9" opacity="0.85"/><rect x="793" y="722" width="44" height="48" rx="6" fill="#46BDE9" opacity="0.85"/><rect x="841" y="722" width="44" height="48" rx="6" fill="#46BDE9" opacity="0.85"/><rect x="889" y="722" width="44" height="48" rx="6" fill="#46BDE9" opacity="0.85"/><rect x="966" y="640" width="214" height="152" rx="18" fill="#060A24" fill-opacity="0.45" stroke="#2CD5C4" stroke-width="8" opacity="0.95"/><rect x="983" y="722" width="44" height="48" rx="6" fill="#46BDE9" opacity="0.85"/><rect x="1031" y="722" width="44" height="48" rx="6" fill="#46BDE9" opacity="0.85"/><rect x="1079" y="722" width="44" height="48" rx="6" fill="#46BDE9" opacity="0.85"/><rect x="1127" y="722" width="44" height="48" rx="6" fill="#46BDE9" opacity="0.85"/><rect x="1204" y="640" width="214" height="152" rx="18" fill="#060A24" fill-opacity="0.45" stroke="#2CD5C4" stroke-width="8" opacity="0.95"/><rect x="1221" y="722" width="44" height="48" rx="6" fill="#46BDE9" opacity="0.85"/><rect x="1269" y="722" width="44" height="48" rx="6" fill="#46BDE9" opacity="0.85"/><rect x="1317" y="722" width="44" height="48" rx="6" fill="#46BDE9" opacity="0.85"/><rect x="1365" y="722" width="44" height="48" rx="6" fill="#46BDE9" opacity="0.85"/></g>
  <g><rect x="490" y="640" width="214" height="152" rx="18" fill="#060A24" fill-opacity="0.45" stroke="#2CD5C4" stroke-width="8" opacity="0.95"/><rect x="507" y="722" width="44" height="48" rx="6" fill="#46BDE9" opacity="0.85"/><rect x="555" y="722" width="44" height="48" rx="6" fill="#46BDE9" opacity="0.85"/><rect x="603" y="722" width="44" height="48" rx="6" fill="#46BDE9" opacity="0.85"/><rect x="651" y="722" width="44" height="48" rx="6" fill="#46BDE9" opacity="0.85"/><rect x="728" y="640" width="214" height="152" rx="18" fill="#060A24" fill-opacity="0.45" stroke="#2CD5C4" stroke-width="8" opacity="0.95"/><rect x="745" y="722" width="44" height="48" rx="6" fill="#46BDE9" opacity="0.85"/><rect x="793" y="722" width="44" height="48" rx="6" fill="#46BDE9" opacity="0.85"/><rect x="841" y="722" width="44" height="48" rx="6" fill="#46BDE9" opacity="0.85"/><rect x="889" y="722" width="44" height="48" rx="6" fill="#46BDE9" opacity="0.85"/><rect x="966" y="640" width="214" height="152" rx="18" fill="#060A24" fill-opacity="0.45" stroke="#2CD5C4" stroke-width="8" opacity="0.95"/><rect x="983" y="722" width="44" height="48" rx="6" fill="#46BDE9" opacity="0.85"/><rect x="1031" y="722" width="44" height="48" rx="6" fill="#46BDE9" opacity="0.85"/><rect x="1079" y="722" width="44" height="48" rx="6" fill="#46BDE9" opacity="0.85"/><rect x="1127" y="722" width="44" height="48" rx="6" fill="#46BDE9" opacity="0.85"/><rect x="1204" y="640" width="214" height="152" rx="18" fill="#060A24" fill-opacity="0.45" stroke="#2CD5C4" stroke-width="8" opacity="0.95"/><rect x="1221" y="722" width="44" height="48" rx="6" fill="#46BDE9" opacity="0.85"/><rect x="1269" y="722" width="44" height="48" rx="6" fill="#46BDE9" opacity="0.85"/><rect x="1317" y="722" width="44" height="48" rx="6" fill="#46BDE9" opacity="0.85"/><rect x="1365" y="722" width="44" height="48" rx="6" fill="#46BDE9" opacity="0.85"/></g>
  <g filter="url(#blur8)" opacity="0.5"><line x1="516" y1="692" x2="1376" y2="692" stroke="#2CD5C4" stroke-width="11" stroke-linecap="round" opacity="0.95"/><path d="M 1370 666 L 1410 692 L 1370 718 Z" fill="#2CD5C4" opacity="0.95"/></g>
  <g><line x1="516" y1="692" x2="1376" y2="692" stroke="#2CD5C4" stroke-width="11" stroke-linecap="round" opacity="0.95"/><path d="M 1370 666 L 1410 692 L 1370 718 Z" fill="#2CD5C4" opacity="0.95"/></g>
  <rect width="1920" height="1080" fill="url(#vignette)"/>
  <rect width="1920" height="1080" filter="url(#grain)" opacity="0.055" style="mix-blend-mode:overlay"/>
  <g opacity="0.95"><g transform="translate(293.8 175.9) scale(1.04987)"><path d="M15.2,50l-9.4-5.9v-25L28.8,6l22.3,13.1v26.3l-22.7,12.8-7.9-4.9v-12l-4.3-2.7v-13.6l12.4-7.1,12.1,7.1v14.2l-9.6,5.4v-5.7c2.9-1.1,4.9-3.9,4.9-7.3s-3.4-7.8-7.6-7.8-7.6,3.5-7.6,7.8,2.1,6.2,4.9,7.3v10.9l2.7,1.7,16.8-9.5v-19.7l-16.6-9.8-17.1,9.8v18.5l3.6,2.3v6.8ZM28.5,28.1c1.9,0,3.4,1.6,3.4,3.6s-1.5,3.6-3.4,3.6-3.4-1.6-3.4-3.6,1.5-3.6,3.4-3.6Z" fill="#FFFFFF" fill-rule="evenodd"/><path d="M85.2,11.4l-12.1,33.8h-4l-12.1-33.8h4.1l7.9,22.3c.3.9.6,1.8.9,2.6.3.8.5,1.6.7,2.4.2.8.4,1.5.5,2.2.2-.7.3-1.4.5-2.2.2-.8.4-1.6.7-2.4.3-.8.6-1.7.9-2.6l7.9-22.2h4.2Z" fill="#FFFFFF"/><path d="M94,19.5c3,0,5.3.7,6.7,2,1.5,1.4,2.2,3.5,2.2,6.5v17.2h-2.8l-.7-3.7h-.2c-.7.9-1.4,1.7-2.2,2.3-.8.6-1.7,1.1-2.7,1.4-1,.3-2.2.5-3.7.5s-2.9-.3-4.1-.8c-1.2-.5-2.1-1.4-2.8-2.5-.7-1.1-1-2.5-1-4.2,0-2.5,1-4.5,3-5.8,2-1.4,5.1-2.1,9.2-2.2l4.4-.2v-1.5c0-2.2-.5-3.7-1.4-4.6-.9-.9-2.3-1.3-4-1.3-1.3,0-2.6.2-3.8.6-1.2.4-2.3.8-3.4,1.4l-1.2-2.9c1.1-.6,2.5-1.1,3.9-1.5,1.5-.4,3-.6,4.7-.6h0ZM99.1,32.8l-3.9.2c-3.2.1-5.4.6-6.7,1.5s-1.9,2.2-1.9,3.9.4,2.5,1.3,3.2c.9.7,2,1,3.5,1,2.3,0,4.1-.6,5.5-1.9s2.2-3.1,2.2-5.6v-2.3Z" fill="#FFFFFF"/><path d="M112.1,45.3h-3.9V9.3h3.9v36Z" fill="#FFFFFF"/><path d="M121.3,9.3v18.7c0,.6,0,1.4,0,2.3,0,.9,0,1.7-.1,2.3h.2c.3-.4.8-1,1.4-1.8.6-.8,1.2-1.4,1.6-1.9l8.4-9h4.5l-10.2,10.8,10.9,14.5h-4.6l-9-12-3.1,2.8v9.2h-3.8V9.3h3.8Z" fill="#FFFFFF"/><path d="M148.2,19.4c2.2,0,4,.5,5.6,1.4,1.5,1,2.7,2.3,3.5,4,.8,1.7,1.2,3.7,1.2,6v2.4h-17.5c0,3,.8,5.2,2.2,6.8s3.5,2.3,6.1,2.3,3-.1,4.3-.4c1.2-.3,2.5-.7,3.8-1.3v3.4c-1.3.6-2.6,1-3.8,1.2-1.2.3-2.7.4-4.4.4-2.4,0-4.6-.5-6.4-1.5-1.8-1-3.2-2.5-4.2-4.4-1-1.9-1.5-4.3-1.5-7.1,0-2.7.5-5.1,1.4-7.1.9-2,2.2-3.5,3.9-4.6,1.7-1.1,3.7-1.6,5.9-1.6h0ZM148.2,22.6c-2.1,0-3.7.7-4.9,2-1.2,1.3-1.9,3.2-2.2,5.6h13.4c0-1.5-.3-2.8-.7-4-.4-1.2-1.1-2.1-2.1-2.7-.9-.6-2.1-1-3.6-1Z" fill="#FFFFFF"/><path d="M158.4,19.9h4.1l5.6,14.7c.3.9.6,1.7.9,2.5.3.8.5,1.5.7,2.3.2.7.4,1.4.5,2.1h.2c.2-.8.5-1.8.9-3,.4-1.3.8-2.6,1.3-3.9l5.3-14.7h4.1l-11,29.1c-.6,1.6-1.3,2.9-2.1,4.1-.8,1.2-1.7,2-2.8,2.7-1.1.6-2.5.9-4,.9s-1.4,0-1.9-.1c-.6,0-1-.2-1.4-.3v-3.1c.3,0,.7.1,1.2.2.5,0,1,0,1.5,0,1,0,1.8-.2,2.5-.6.7-.4,1.3-.9,1.8-1.6.5-.7.9-1.5,1.3-2.5l1.4-3.6-10.2-25.4Z" fill="#FFFFFF"/></g></g>
  <g><rect x="305.5" y="840.8" width="699.8" height="66.7" rx="3" fill="#060A24" opacity="0.55" filter="url(#blur40)"/><rect x="305.5" y="828.6" width="699.8" height="66.7" rx="3" fill="#060A24" opacity="0.5" filter="url(#blur18)"/><rect x="305.5" y="824.1" width="699.8" height="66.7" rx="3" fill="#060A24" opacity="0.55" filter="url(#blur8)"/><rect x="305.5" y="821.1" width="699.8" height="66.7" rx="3" fill="#CCF1FF"/><text x="322.1" y="868" fill="#060A24" font-family="Helvetica Neue, Helvetica, Arial, sans-serif" font-size="47" font-weight="600">Sorted set ranges in one walk</text></g>
</svg>
