<svg xmlns="http://www.w3.org/2000/svg" width="1920" height="1080" viewBox="264.3 132.7 1391.3 782.6">
  <title>Valkey the same members, fewer nodes</title>
  <desc>Above, twelve small blue member cells spread far apart along a row with gaps between them, each carrying a short stack of purple forward-pointer cells with thin purple links skipping between the stacks at every level; below, unconnected to it, the same twelve cells three to a leaf inside four small hollow green leaf nodes joined by short green links, under one wide hollow green node divided into four child slots, each holding a small green routing bar and dropping a thin pointer onto one leaf, representing the ordered index moving from one allocation per member to a few wide nodes that hold them packed. The title "Valkey the same members, fewer nodes" is set on solid light blocks in the lower left.</desc>
  <defs>
    <linearGradient id="sky" x1="0" y1="0" x2="0.32" y2="1">
      <stop offset="0" stop-color="#060A24"/>
      <stop offset="0.48" stop-color="#171043"/>
      <stop offset="1" stop-color="#301868"/>
    </linearGradient>
    <radialGradient id="vignette" gradientUnits="userSpaceOnUse" cx="960" cy="540" r="1180">
      <stop offset="0.5" stop-color="#03040F" stop-opacity="0"/>
      <stop offset="1" stop-color="#03040F" stop-opacity="0.8"/>
    </radialGradient>
    <radialGradient id="scrim">
      <stop offset="0" stop-color="#060A24" stop-opacity="0.72"/>
      <stop offset="0.6" stop-color="#060A24" stop-opacity="0.45"/>
      <stop offset="1" stop-color="#060A24" stop-opacity="0"/>
    </radialGradient>
    <filter id="grain" x="0" y="0" width="100%" height="100%">
      <feTurbulence type="fractalNoise" baseFrequency="0.85" numOctaves="4" stitchTiles="stitch"/>
      <feColorMatrix type="saturate" values="0"/>
    </filter>
    <radialGradient id="h-cyan"><stop offset="0" stop-color="#46BDE9" stop-opacity="0.75"/><stop offset="0.4" stop-color="#46BDE9" stop-opacity="0.22"/><stop offset="1" stop-color="#46BDE9" stop-opacity="0"/></radialGradient>
    <radialGradient id="h-ice"><stop offset="0" stop-color="#CCF1FF" stop-opacity="0.75"/><stop offset="0.4" stop-color="#CCF1FF" stop-opacity="0.22"/><stop offset="1" stop-color="#CCF1FF" stop-opacity="0"/></radialGradient>
    <radialGradient id="h-mint"><stop offset="0" stop-color="#2CD5C4" stop-opacity="0.75"/><stop offset="0.4" stop-color="#2CD5C4" stop-opacity="0.22"/><stop offset="1" stop-color="#2CD5C4" stop-opacity="0"/></radialGradient>
    <radialGradient id="h-coral"><stop offset="0" stop-color="#F65275" stop-opacity="0.75"/><stop offset="0.4" stop-color="#F65275" stop-opacity="0.22"/><stop offset="1" stop-color="#F65275" stop-opacity="0"/></radialGradient>
    <radialGradient id="h-violet"><stop offset="0" stop-color="#963CBD" stop-opacity="0.75"/><stop offset="0.4" stop-color="#963CBD" stop-opacity="0.22"/><stop offset="1" stop-color="#963CBD" stop-opacity="0"/></radialGradient>
    <radialGradient id="h-gold"><stop offset="0" stop-color="#FFB81C" stop-opacity="0.75"/><stop offset="0.4" stop-color="#FFB81C" stop-opacity="0.22"/><stop offset="1" stop-color="#FFB81C" stop-opacity="0"/></radialGradient>
    <filter id="blur3" x="-70%" y="-70%" width="240%" height="240%"><feGaussianBlur stdDeviation="3"/></filter>
    <filter id="blur8" x="-70%" y="-70%" width="240%" height="240%"><feGaussianBlur stdDeviation="8"/></filter>
    <filter id="blur18" x="-70%" y="-70%" width="240%" height="240%"><feGaussianBlur stdDeviation="18"/></filter>
    <filter id="blur40" x="-70%" y="-70%" width="240%" height="240%"><feGaussianBlur stdDeviation="40"/></filter>
  </defs>
  <rect width="1920" height="1080" fill="url(#sky)"/>
  <circle cx="960" cy="595" r="430" fill="url(#h-mint)" opacity="0.18"/>
  <g><line x1="600" y1="250" x2="629.1" y2="250" stroke="#963CBD" stroke-width="1.7" opacity="0.5"/><line x1="669.1" y1="250" x2="698.2" y2="250" stroke="#963CBD" stroke-width="1.7" opacity="0.5"/><line x1="738.2" y1="250" x2="767.3" y2="250" stroke="#963CBD" stroke-width="1.7" opacity="0.4"/><line x1="807.3" y1="250" x2="836.4" y2="250" stroke="#963CBD" stroke-width="1.6" opacity="0.6"/><line x1="876.4" y1="250" x2="905.5" y2="250" stroke="#963CBD" stroke-width="1.8" opacity="0.5"/><line x1="945.5" y1="250" x2="974.5" y2="250" stroke="#963CBD" stroke-width="1.7" opacity="0.5"/><line x1="1014.5" y1="250" x2="1043.6" y2="250" stroke="#963CBD" stroke-width="1.7" opacity="0.5"/><line x1="1083.6" y1="250" x2="1112.7" y2="250" stroke="#963CBD" stroke-width="1.7" opacity="0.5"/><line x1="1152.7" y1="250" x2="1181.8" y2="250" stroke="#963CBD" stroke-width="1.7" opacity="0.6"/><line x1="1221.8" y1="250" x2="1250.9" y2="250" stroke="#963CBD" stroke-width="1.6" opacity="0.5"/><line x1="1290.9" y1="250" x2="1320" y2="250" stroke="#963CBD" stroke-width="1.6" opacity="0.5"/><line x1="600" y1="232" x2="767.3" y2="232" stroke="#963CBD" stroke-width="1.6" opacity="0.6"/><line x1="807.3" y1="232" x2="836.4" y2="232" stroke="#963CBD" stroke-width="1.7" opacity="0.4"/><line x1="876.4" y1="232" x2="974.5" y2="232" stroke="#963CBD" stroke-width="1.8" opacity="0.5"/><line x1="1014.5" y1="232" x2="1112.7" y2="232" stroke="#963CBD" stroke-width="1.7" opacity="0.5"/><line x1="1152.7" y1="232" x2="1181.8" y2="232" stroke="#963CBD" stroke-width="1.7" opacity="0.5"/><line x1="1221.8" y1="232" x2="1250.9" y2="232" stroke="#963CBD" stroke-width="1.6" opacity="0.6"/><line x1="1014.5" y1="214" x2="1112.7" y2="214" stroke="#963CBD" stroke-width="1.8" opacity="0.6"/><line x1="1152.7" y1="214" x2="1181.8" y2="214" stroke="#963CBD" stroke-width="1.7" opacity="0.5"/></g>
  <g><rect x="560" y="265" width="40" height="24" rx="4" fill="#00A3E0" opacity="0.4"/><rect x="560" y="243" width="40" height="14" rx="4" fill="#963CBD" opacity="0.3"/><rect x="560" y="225" width="40" height="14" rx="4" fill="#963CBD" opacity="0.4"/><rect x="629.1" y="265" width="40" height="24" rx="4" fill="#46BDE9" opacity="0.5"/><rect x="629.1" y="243" width="40" height="14" rx="4" fill="#963CBD" opacity="0.5"/><rect x="698.2" y="265" width="40" height="24" rx="4" fill="#00A3E0" opacity="0.8"/><rect x="698.2" y="243" width="40" height="14" rx="4" fill="#963CBD" opacity="0.5"/><rect x="767.3" y="265" width="40" height="24" rx="4" fill="#00A3E0" opacity="0.6"/><rect x="767.3" y="243" width="40" height="14" rx="4" fill="#963CBD" opacity="0.4"/><rect x="767.3" y="225" width="40" height="14" rx="4" fill="#963CBD" opacity="0.4"/><rect x="836.4" y="265" width="40" height="24" rx="4" fill="#46BDE9" opacity="0.5"/><rect x="836.4" y="243" width="40" height="14" rx="4" fill="#963CBD" opacity="0.4"/><rect x="836.4" y="225" width="40" height="14" rx="4" fill="#963CBD" opacity="0.4"/><rect x="905.5" y="265" width="40" height="24" rx="4" fill="#00A3E0" opacity="0.5"/><rect x="905.5" y="243" width="40" height="14" rx="4" fill="#963CBD" opacity="0.4"/><rect x="974.5" y="265" width="40" height="24" rx="4" fill="#00A3E0" opacity="0.7"/><rect x="974.5" y="243" width="40" height="14" rx="4" fill="#963CBD" opacity="0.4"/><rect x="974.5" y="225" width="40" height="14" rx="4" fill="#963CBD" opacity="0.5"/><rect x="974.5" y="207" width="40" height="14" rx="4" fill="#963CBD" opacity="0.4"/><rect x="1043.6" y="265" width="40" height="24" rx="4" fill="#00A3E0" opacity="0.5"/><rect x="1043.6" y="243" width="40" height="14" rx="4" fill="#963CBD" opacity="0.4"/><rect x="1112.7" y="265" width="40" height="24" rx="4" fill="#46BDE9" opacity="0.6"/><rect x="1112.7" y="243" width="40" height="14" rx="4" fill="#963CBD" opacity="0.4"/><rect x="1112.7" y="225" width="40" height="14" rx="4" fill="#963CBD" opacity="0.4"/><rect x="1112.7" y="207" width="40" height="14" rx="4" fill="#963CBD" opacity="0.4"/><rect x="1181.8" y="265" width="40" height="24" rx="4" fill="#46BDE9" opacity="0.7"/><rect x="1181.8" y="243" width="40" height="14" rx="4" fill="#963CBD" opacity="0.4"/><rect x="1181.8" y="225" width="40" height="14" rx="4" fill="#963CBD" opacity="0.4"/><rect x="1181.8" y="207" width="40" height="14" rx="4" fill="#963CBD" opacity="0.4"/><rect x="1250.9" y="265" width="40" height="24" rx="4" fill="#00A3E0" opacity="0.7"/><rect x="1250.9" y="243" width="40" height="14" rx="4" fill="#963CBD" opacity="0.3"/><rect x="1250.9" y="225" width="40" height="14" rx="4" fill="#963CBD" opacity="0.4"/><rect x="1320" y="265" width="40" height="24" rx="4" fill="#46BDE9" opacity="0.6"/><rect x="1320" y="243" width="40" height="14" rx="4" fill="#963CBD" opacity="0.5"/></g>
  <g><line x1="765" y1="508" x2="700" y2="655" stroke="#2CD5C4" stroke-width="1.4" opacity="0.3"/><line x1="895" y1="508" x2="873.3" y2="655" stroke="#2CD5C4" stroke-width="1.7" opacity="0.3"/><line x1="1025" y1="508" x2="1046.7" y2="655" stroke="#2CD5C4" stroke-width="1.4" opacity="0.4"/><line x1="1155" y1="508" x2="1220" y2="655" stroke="#2CD5C4" stroke-width="1.5" opacity="0.3"/></g>
  <g><rect x="620" y="655" width="160" height="64" rx="5" fill="#2CD5C4" fill-opacity="0.12" stroke="#2CD5C4" stroke-width="1.5" opacity="0.4"/><rect x="634" y="675" width="40" height="24" rx="4" fill="#46BDE9" opacity="0.6"/><rect x="680" y="675" width="40" height="24" rx="4" fill="#46BDE9" opacity="0.5"/><rect x="726" y="675" width="40" height="24" rx="4" fill="#00A3E0" opacity="0.4"/><rect x="793.3" y="655" width="160" height="64" rx="5" fill="#2CD5C4" fill-opacity="0.12" stroke="#2CD5C4" stroke-width="1.7" opacity="0.4"/><rect x="807.3" y="675" width="40" height="24" rx="4" fill="#00A3E0" opacity="0.4"/><rect x="853.3" y="675" width="40" height="24" rx="4" fill="#46BDE9" opacity="0.6"/><rect x="899.3" y="675" width="40" height="24" rx="4" fill="#00A3E0" opacity="0.6"/><rect x="966.7" y="655" width="160" height="64" rx="5" fill="#2CD5C4" fill-opacity="0.12" stroke="#2CD5C4" stroke-width="1.3" opacity="0.4"/><rect x="980.7" y="675" width="40" height="24" rx="4" fill="#46BDE9" opacity="0.4"/><rect x="1026.7" y="675" width="40" height="24" rx="4" fill="#46BDE9" opacity="0.6"/><rect x="1072.7" y="675" width="40" height="24" rx="4" fill="#46BDE9" opacity="0.6"/><rect x="1140" y="655" width="160" height="64" rx="5" fill="#2CD5C4" fill-opacity="0.12" stroke="#2CD5C4" stroke-width="1.4" opacity="0.4"/><rect x="1154" y="675" width="40" height="24" rx="4" fill="#46BDE9" opacity="0.4"/><rect x="1200" y="675" width="40" height="24" rx="4" fill="#00A3E0" opacity="0.7"/><rect x="1246" y="675" width="40" height="24" rx="4" fill="#00A3E0" opacity="0.7"/></g>
  <g><line x1="780" y1="687" x2="793.3" y2="687" stroke="#2CD5C4" stroke-width="2.6" opacity="0.72"/><line x1="953.3" y1="687" x2="966.7" y2="687" stroke="#2CD5C4" stroke-width="2.6" opacity="0.72"/><line x1="1126.7" y1="687" x2="1140" y2="687" stroke="#2CD5C4" stroke-width="2.6" opacity="0.72"/></g>
  <rect x="700" y="440" width="520" height="68" rx="7" fill="#2CD5C4" fill-opacity="0.12" stroke="#2CD5C4" stroke-width="1.8" opacity="0.6"/><line x1="830" y1="440" x2="830" y2="508" stroke="#2CD5C4" stroke-width="1.8" opacity="0.55"/><line x1="960" y1="440" x2="960" y2="508" stroke="#2CD5C4" stroke-width="1.8" opacity="0.55"/><line x1="1090" y1="440" x2="1090" y2="508" stroke="#2CD5C4" stroke-width="1.8" opacity="0.55"/><rect x="732.5" y="467" width="65" height="14" rx="4" fill="#2CD5C4" opacity="0.5"/><rect x="862.5" y="467" width="65" height="14" rx="4" fill="#2CD5C4" opacity="0.5"/><rect x="992.5" y="467" width="65" height="14" rx="4" fill="#2CD5C4" opacity="0.5"/><rect x="1122.5" y="467" width="65" height="14" rx="4" fill="#2CD5C4" opacity="0.5"/>
  <rect width="1920" height="1080" fill="url(#vignette)"/>
  <rect width="1920" height="1080" filter="url(#grain)" opacity="0.055" style="mix-blend-mode:overlay"/>
  <g opacity="0.95"><g transform="translate(322.8 175.7) scale(1.00422)"><path d="M15.2,50l-9.4-5.9v-25L28.8,6l22.3,13.1v26.3l-22.7,12.8-7.9-4.9v-12l-4.3-2.7v-13.6l12.4-7.1,12.1,7.1v14.2l-9.6,5.4v-5.7c2.9-1.1,4.9-3.9,4.9-7.3s-3.4-7.8-7.6-7.8-7.6,3.5-7.6,7.8,2.1,6.2,4.9,7.3v10.9l2.7,1.7,16.8-9.5v-19.7l-16.6-9.8-17.1,9.8v18.5l3.6,2.3v6.8ZM28.5,28.1c1.9,0,3.4,1.6,3.4,3.6s-1.5,3.6-3.4,3.6-3.4-1.6-3.4-3.6,1.5-3.6,3.4-3.6Z" fill="#FFFFFF" fill-rule="evenodd"/><path d="M85.2,11.4l-12.1,33.8h-4l-12.1-33.8h4.1l7.9,22.3c.3.9.6,1.8.9,2.6.3.8.5,1.6.7,2.4.2.8.4,1.5.5,2.2.2-.7.3-1.4.5-2.2.2-.8.4-1.6.7-2.4.3-.8.6-1.7.9-2.6l7.9-22.2h4.2Z" fill="#FFFFFF"/><path d="M94,19.5c3,0,5.3.7,6.7,2,1.5,1.4,2.2,3.5,2.2,6.5v17.2h-2.8l-.7-3.7h-.2c-.7.9-1.4,1.7-2.2,2.3-.8.6-1.7,1.1-2.7,1.4-1,.3-2.2.5-3.7.5s-2.9-.3-4.1-.8c-1.2-.5-2.1-1.4-2.8-2.5-.7-1.1-1-2.5-1-4.2,0-2.5,1-4.5,3-5.8,2-1.4,5.1-2.1,9.2-2.2l4.4-.2v-1.5c0-2.2-.5-3.7-1.4-4.6-.9-.9-2.3-1.3-4-1.3-1.3,0-2.6.2-3.8.6-1.2.4-2.3.8-3.4,1.4l-1.2-2.9c1.1-.6,2.5-1.1,3.9-1.5,1.5-.4,3-.6,4.7-.6h0ZM99.1,32.8l-3.9.2c-3.2.1-5.4.6-6.7,1.5s-1.9,2.2-1.9,3.9.4,2.5,1.3,3.2c.9.7,2,1,3.5,1,2.3,0,4.1-.6,5.5-1.9s2.2-3.1,2.2-5.6v-2.3Z" fill="#FFFFFF"/><path d="M112.1,45.3h-3.9V9.3h3.9v36Z" fill="#FFFFFF"/><path d="M121.3,9.3v18.7c0,.6,0,1.4,0,2.3,0,.9,0,1.7-.1,2.3h.2c.3-.4.8-1,1.4-1.8.6-.8,1.2-1.4,1.6-1.9l8.4-9h4.5l-10.2,10.8,10.9,14.5h-4.6l-9-12-3.1,2.8v9.2h-3.8V9.3h3.8Z" fill="#FFFFFF"/><path d="M148.2,19.4c2.2,0,4,.5,5.6,1.4,1.5,1,2.7,2.3,3.5,4,.8,1.7,1.2,3.7,1.2,6v2.4h-17.5c0,3,.8,5.2,2.2,6.8s3.5,2.3,6.1,2.3,3-.1,4.3-.4c1.2-.3,2.5-.7,3.8-1.3v3.4c-1.3.6-2.6,1-3.8,1.2-1.2.3-2.7.4-4.4.4-2.4,0-4.6-.5-6.4-1.5-1.8-1-3.2-2.5-4.2-4.4-1-1.9-1.5-4.3-1.5-7.1,0-2.7.5-5.1,1.4-7.1.9-2,2.2-3.5,3.9-4.6,1.7-1.1,3.7-1.6,5.9-1.6h0ZM148.2,22.6c-2.1,0-3.7.7-4.9,2-1.2,1.3-1.9,3.2-2.2,5.6h13.4c0-1.5-.3-2.8-.7-4-.4-1.2-1.1-2.1-2.1-2.7-.9-.6-2.1-1-3.6-1Z" fill="#FFFFFF"/><path d="M158.4,19.9h4.1l5.6,14.7c.3.9.6,1.7.9,2.5.3.8.5,1.5.7,2.3.2.7.4,1.4.5,2.1h.2c.2-.8.5-1.8.9-3,.4-1.3.8-2.6,1.3-3.9l5.3-14.7h4.1l-11,29.1c-.6,1.6-1.3,2.9-2.1,4.1-.8,1.2-1.7,2-2.8,2.7-1.1.6-2.5.9-4,.9s-1.4,0-1.9-.1c-.6,0-1-.2-1.4-.3v-3.1c.3,0,.7.1,1.2.2.5,0,1,0,1.5,0,1,0,1.8-.2,2.5-.6.7-.4,1.3-.9,1.8-1.6.5-.7.9-1.5,1.3-2.5l1.4-3.6-10.2-25.4Z" fill="#FFFFFF"/></g></g>
  <g><rect x="333.9" y="811.7" width="759.7" height="63.8" rx="2.9" fill="#060A24" opacity="0.55" filter="url(#blur40)"/><rect x="333.9" y="800.1" width="759.7" height="63.8" rx="2.9" fill="#060A24" opacity="0.5" filter="url(#blur18)"/><rect x="333.9" y="795.7" width="759.7" height="63.8" rx="2.9" fill="#060A24" opacity="0.55" filter="url(#blur8)"/><rect x="333.9" y="792.8" width="759.7" height="63.8" rx="2.9" fill="#CCF1FF"/><text x="349.9" y="837.8" fill="#060A24" font-family="Helvetica Neue, Helvetica, Arial, sans-serif" font-size="44.9" font-weight="600">The same members, fewer nodes</text></g>
</svg>
