<svg xmlns="http://www.w3.org/2000/svg" width="1920" height="1080" viewBox="198.1 111.4 1523.8 857.1">
  <title>Valkey keyspace scan</title>
  <desc>A wide field of keys with one bounded window lit in green, the keys behind it dimmed and the keys ahead of it unlit, above a track of uneven cursor steps, representing scanning a keyspace a window at a time instead of reading it all at once.</desc>
  <defs>
    <linearGradient id="sky" x1="0" y1="0" x2="0.32" y2="1">
      <stop offset="0" stop-color="#060A24"/>
      <stop offset="0.48" stop-color="#171043"/>
      <stop offset="1" stop-color="#301868"/>
    </linearGradient>
    <radialGradient id="focus" gradientUnits="userSpaceOnUse" cx="960" cy="540" r="900">
      <stop offset="0" stop-color="#00A3E0" stop-opacity="0.42"/>
      <stop offset="0.35" stop-color="#963CBD" stop-opacity="0.20"/>
      <stop offset="1" stop-color="#963CBD" stop-opacity="0"/>
    </radialGradient>
    <radialGradient id="vignette" gradientUnits="userSpaceOnUse" cx="960" cy="540" r="1180">
      <stop offset="0.5" stop-color="#03040F" stop-opacity="0"/>
      <stop offset="1" stop-color="#03040F" stop-opacity="0.8"/>
    </radialGradient>
    <radialGradient id="scrim">
      <stop offset="0" stop-color="#060A24" stop-opacity="0.72"/>
      <stop offset="0.6" stop-color="#060A24" stop-opacity="0.45"/>
      <stop offset="1" stop-color="#060A24" stop-opacity="0"/>
    </radialGradient>
    <filter id="grain" x="0" y="0" width="100%" height="100%">
      <feTurbulence type="fractalNoise" baseFrequency="0.85" numOctaves="4" stitchTiles="stitch"/>
      <feColorMatrix type="saturate" values="0"/>
    </filter>
    <radialGradient id="h-cyan"><stop offset="0" stop-color="#46BDE9" stop-opacity="0.75"/><stop offset="0.4" stop-color="#46BDE9" stop-opacity="0.22"/><stop offset="1" stop-color="#46BDE9" stop-opacity="0"/></radialGradient>
    <radialGradient id="h-ice"><stop offset="0" stop-color="#CCF1FF" stop-opacity="0.75"/><stop offset="0.4" stop-color="#CCF1FF" stop-opacity="0.22"/><stop offset="1" stop-color="#CCF1FF" stop-opacity="0"/></radialGradient>
    <radialGradient id="h-mint"><stop offset="0" stop-color="#2CD5C4" stop-opacity="0.75"/><stop offset="0.4" stop-color="#2CD5C4" stop-opacity="0.22"/><stop offset="1" stop-color="#2CD5C4" stop-opacity="0"/></radialGradient>
    <radialGradient id="h-coral"><stop offset="0" stop-color="#F65275" stop-opacity="0.75"/><stop offset="0.4" stop-color="#F65275" stop-opacity="0.22"/><stop offset="1" stop-color="#F65275" stop-opacity="0"/></radialGradient>
    <radialGradient id="h-violet"><stop offset="0" stop-color="#963CBD" stop-opacity="0.75"/><stop offset="0.4" stop-color="#963CBD" stop-opacity="0.22"/><stop offset="1" stop-color="#963CBD" stop-opacity="0"/></radialGradient>
    <radialGradient id="h-gold"><stop offset="0" stop-color="#FFB81C" stop-opacity="0.75"/><stop offset="0.4" stop-color="#FFB81C" stop-opacity="0.22"/><stop offset="1" stop-color="#FFB81C" stop-opacity="0"/></radialGradient>
    <filter id="blur3" x="-70%" y="-70%" width="240%" height="240%"><feGaussianBlur stdDeviation="3"/></filter>
    <filter id="blur8" x="-70%" y="-70%" width="240%" height="240%"><feGaussianBlur stdDeviation="8"/></filter>
    <filter id="blur18" x="-70%" y="-70%" width="240%" height="240%"><feGaussianBlur stdDeviation="18"/></filter>
    <filter id="blur40" x="-70%" y="-70%" width="240%" height="240%"><feGaussianBlur stdDeviation="40"/></filter>
  </defs>
  <rect width="1920" height="1080" fill="url(#sky)"/>
  <rect width="1920" height="1080" fill="url(#focus)"/>
  <g><circle cx="645.9" cy="1.4" r="1.3" fill="#CCF1FF" opacity="0.2"/><circle cx="11.4" cy="620.8" r="1" fill="#CCF1FF" opacity="0.1"/><circle cx="41.2" cy="523.3" r="1.4" fill="#CCF1FF" opacity="0.2"/><circle cx="1316.1" cy="674.2" r="1.2" fill="#CCF1FF" opacity="0.2"/><circle cx="38.9" cy="472.8" r="2.3" fill="#CCF1FF" opacity="0.2"/><circle cx="951.8" cy="860.7" r="1.8" fill="#CCF1FF" opacity="0.3"/><circle cx="1735.2" cy="287.1" r="1.3" fill="#CCF1FF" opacity="0.3"/><circle cx="159.4" cy="130.7" r="2.1" fill="#CCF1FF" opacity="0.4"/><circle cx="1685.4" cy="540.5" r="1" fill="#CCF1FF" opacity="0.2"/><circle cx="1012.5" cy="858.4" r="2.2" fill="#CCF1FF" opacity="0.2"/><circle cx="316.8" cy="725.8" r="1.5" fill="#CCF1FF" opacity="0.2"/><circle cx="1475.4" cy="893.8" r="2.6" fill="#CCF1FF" opacity="0.2"/><circle cx="1153.1" cy="108.6" r="2.6" fill="#CCF1FF" opacity="0.1"/><circle cx="906.2" cy="287" r="1.1" fill="#CCF1FF" opacity="0.3"/><circle cx="1042.4" cy="954.4" r="2.2" fill="#CCF1FF" opacity="0.2"/><circle cx="1643.3" cy="486.6" r="2.4" fill="#CCF1FF" opacity="0.1"/><circle cx="903.2" cy="460.3" r="1.2" fill="#CCF1FF" opacity="0.3"/><circle cx="650.2" cy="249.8" r="1" fill="#CCF1FF" opacity="0.2"/><circle cx="1436.5" cy="879.7" r="0.9" fill="#CCF1FF" opacity="0.4"/><circle cx="737.5" cy="458.3" r="2.4" fill="#CCF1FF" opacity="0.3"/><circle cx="389.9" cy="69.3" r="2.1" fill="#CCF1FF" opacity="0.2"/><circle cx="840.6" cy="811.4" r="1.3" fill="#CCF1FF" opacity="0.3"/><circle cx="506.3" cy="561.5" r="1" fill="#CCF1FF" opacity="0.3"/><circle cx="1090.7" cy="185.5" r="2.1" fill="#CCF1FF" opacity="0.1"/><circle cx="333.1" cy="971.1" r="2.1" fill="#CCF1FF" opacity="0.1"/><circle cx="1895" cy="996.1" r="2.2" fill="#CCF1FF" opacity="0.3"/><circle cx="1181.3" cy="617" r="1.5" fill="#CCF1FF" opacity="0.1"/><circle cx="1205.5" cy="7.9" r="2.3" fill="#CCF1FF" opacity="0.4"/><circle cx="1623" cy="368.2" r="1.5" fill="#CCF1FF" opacity="0.3"/><circle cx="1692.4" cy="393.7" r="2.4" fill="#CCF1FF" opacity="0.1"/><circle cx="1907.6" cy="1028.1" r="1.8" fill="#CCF1FF" opacity="0.3"/><circle cx="1084.7" cy="176.5" r="2" fill="#CCF1FF" opacity="0.1"/><circle cx="1569.9" cy="515.7" r="1.5" fill="#CCF1FF" opacity="0.1"/><circle cx="99.1" cy="379.5" r="2.1" fill="#CCF1FF" opacity="0.4"/><circle cx="1734" cy="756" r="2.1" fill="#CCF1FF" opacity="0.4"/><circle cx="1243.5" cy="953.6" r="1.1" fill="#CCF1FF" opacity="0.2"/><circle cx="5.8" cy="451.5" r="1.2" fill="#CCF1FF" opacity="0.2"/><circle cx="980.9" cy="867.6" r="1.7" fill="#CCF1FF" opacity="0.3"/><circle cx="988" cy="815" r="1.2" fill="#CCF1FF" opacity="0.2"/><circle cx="1850.4" cy="412" r="2.3" fill="#CCF1FF" opacity="0.3"/><circle cx="681.6" cy="548.9" r="2" fill="#CCF1FF" opacity="0.2"/><circle cx="1393.4" cy="102.5" r="2.7" fill="#CCF1FF" opacity="0.2"/><circle cx="1648.2" cy="298.7" r="1.7" fill="#CCF1FF" opacity="0.3"/><circle cx="1508.6" cy="432.5" r="2.3" fill="#CCF1FF" opacity="0.3"/><circle cx="1369.3" cy="822" r="1.3" fill="#CCF1FF" opacity="0.1"/><circle cx="147.4" cy="1055.1" r="1.4" fill="#CCF1FF" opacity="0.1"/><circle cx="892.6" cy="628.4" r="0.9" fill="#CCF1FF" opacity="0.1"/><circle cx="254.8" cy="241.1" r="2.4" fill="#CCF1FF" opacity="0.3"/><circle cx="1165" cy="502.7" r="1.6" fill="#CCF1FF" opacity="0.3"/><circle cx="124.6" cy="639.7" r="1.2" fill="#CCF1FF" opacity="0.1"/><circle cx="1155.3" cy="1056" r="1.9" fill="#CCF1FF" opacity="0.1"/><circle cx="442.5" cy="633.1" r="2.6" fill="#CCF1FF" opacity="0.2"/><circle cx="1306.4" cy="911.8" r="1.4" fill="#CCF1FF" opacity="0.1"/><circle cx="337" cy="222.7" r="1.1" fill="#CCF1FF" opacity="0.2"/><circle cx="177.1" cy="53.9" r="1.4" fill="#CCF1FF" opacity="0.1"/></g>
  <ellipse cx="960" cy="540" rx="470" ry="400" fill="url(#h-mint)" opacity="0.16"/>
  <line x1="180" y1="872" x2="1740" y2="872" stroke="#CCF1FF" stroke-width="1.6" stroke-dasharray="9 15" opacity="0.22"/>
  <rect x="792" y="216" width="336" height="636" rx="26" fill="#CCF1FF" opacity="0.07"/>
  <g stroke="#CCF1FF" stroke-width="12" opacity="0.28" filter="url(#blur18)"><line x1="792" y1="216" x2="792" y2="852"/><line x1="1128" y1="216" x2="1128" y2="852"/></g>
  <g><circle cx="394.8" cy="761.3" r="13.3" fill="url(#h-cyan)" opacity="0.4"/><circle cx="394.8" cy="761.3" r="5.1" fill="#46BDE9" opacity="0.5"/><circle cx="367.4" cy="697.4" r="14.6" fill="url(#h-cyan)" opacity="0.4"/><circle cx="367.4" cy="697.4" r="5.6" fill="#46BDE9" opacity="0.5"/><circle cx="1226.2" cy="698.2" r="13.7" fill="url(#h-violet)" opacity="0.3"/><circle cx="1226.2" cy="698.2" r="4.9" fill="#963CBD" opacity="0.4"/><circle cx="756.1" cy="448.9" r="13.4" fill="url(#h-cyan)" opacity="0.4"/><circle cx="756.1" cy="448.9" r="5.1" fill="#46BDE9" opacity="0.5"/><circle cx="1591.3" cy="387.1" r="12.6" fill="url(#h-violet)" opacity="0.3"/><circle cx="1591.3" cy="387.1" r="4.5" fill="#963CBD" opacity="0.4"/><circle cx="1807.7" cy="381" r="14.2" fill="url(#h-violet)" opacity="0.3"/><circle cx="1807.7" cy="381" r="5.1" fill="#963CBD" opacity="0.4"/><circle cx="676.2" cy="495.7" r="14.3" fill="url(#h-cyan)" opacity="0.4"/><circle cx="676.2" cy="495.7" r="5.5" fill="#46BDE9" opacity="0.5"/><circle cx="1580.5" cy="538.3" r="13.6" fill="url(#h-violet)" opacity="0.3"/><circle cx="1580.5" cy="538.3" r="4.8" fill="#963CBD" opacity="0.4"/><circle cx="1317.3" cy="708.7" r="14.9" fill="url(#h-violet)" opacity="0.3"/><circle cx="1317.3" cy="708.7" r="5.3" fill="#963CBD" opacity="0.4"/><circle cx="402.3" cy="391.1" r="10.7" fill="url(#h-cyan)" opacity="0.4"/><circle cx="402.3" cy="391.1" r="4.1" fill="#46BDE9" opacity="0.5"/><circle cx="241" cy="799.8" r="13" fill="url(#h-cyan)" opacity="0.4"/><circle cx="241" cy="799.8" r="5" fill="#46BDE9" opacity="0.5"/><circle cx="443.5" cy="509.8" r="14.4" fill="url(#h-cyan)" opacity="0.4"/><circle cx="443.5" cy="509.8" r="5.5" fill="#46BDE9" opacity="0.5"/><circle cx="186.8" cy="710.5" r="11.5" fill="url(#h-cyan)" opacity="0.4"/><circle cx="186.8" cy="710.5" r="4.4" fill="#46BDE9" opacity="0.5"/><circle cx="384" cy="619.1" r="11.5" fill="url(#h-cyan)" opacity="0.4"/><circle cx="384" cy="619.1" r="4.4" fill="#46BDE9" opacity="0.5"/><circle cx="1710.5" cy="371.9" r="14.9" fill="url(#h-violet)" opacity="0.3"/><circle cx="1710.5" cy="371.9" r="5.3" fill="#963CBD" opacity="0.4"/><circle cx="290" cy="553.8" r="15.4" fill="url(#h-cyan)" opacity="0.4"/><circle cx="290" cy="553.8" r="5.9" fill="#46BDE9" opacity="0.5"/><circle cx="1149" cy="602.9" r="10.3" fill="url(#h-violet)" opacity="0.3"/><circle cx="1149" cy="602.9" r="3.7" fill="#963CBD" opacity="0.4"/><circle cx="128.2" cy="632.9" r="15.5" fill="url(#h-cyan)" opacity="0.4"/><circle cx="128.2" cy="632.9" r="6" fill="#46BDE9" opacity="0.5"/><circle cx="1559" cy="756.6" r="13.1" fill="url(#h-violet)" opacity="0.3"/><circle cx="1559" cy="756.6" r="4.7" fill="#963CBD" opacity="0.4"/><circle cx="1422.1" cy="561" r="9.9" fill="url(#h-violet)" opacity="0.3"/><circle cx="1422.1" cy="561" r="3.5" fill="#963CBD" opacity="0.4"/><circle cx="1618.1" cy="349.6" r="14.3" fill="url(#h-violet)" opacity="0.3"/><circle cx="1618.1" cy="349.6" r="5.1" fill="#963CBD" opacity="0.4"/><circle cx="777.8" cy="749.3" r="15.3" fill="url(#h-cyan)" opacity="0.4"/><circle cx="777.8" cy="749.3" r="5.9" fill="#46BDE9" opacity="0.5"/><circle cx="1310.8" cy="777.6" r="12.7" fill="url(#h-violet)" opacity="0.3"/><circle cx="1310.8" cy="777.6" r="4.5" fill="#963CBD" opacity="0.4"/><circle cx="1205.7" cy="776.1" r="11.3" fill="url(#h-violet)" opacity="0.3"/><circle cx="1205.7" cy="776.1" r="4" fill="#963CBD" opacity="0.4"/><circle cx="1207.5" cy="411" r="14.1" fill="url(#h-violet)" opacity="0.3"/><circle cx="1207.5" cy="411" r="5" fill="#963CBD" opacity="0.4"/><circle cx="578.9" cy="728.4" r="12" fill="url(#h-cyan)" opacity="0.4"/><circle cx="578.9" cy="728.4" r="4.6" fill="#46BDE9" opacity="0.5"/><circle cx="511.1" cy="478.6" r="14.9" fill="url(#h-cyan)" opacity="0.4"/><circle cx="511.1" cy="478.6" r="5.7" fill="#46BDE9" opacity="0.5"/><circle cx="1610.7" cy="499.4" r="10" fill="url(#h-violet)" opacity="0.3"/><circle cx="1610.7" cy="499.4" r="3.6" fill="#963CBD" opacity="0.4"/><circle cx="379.5" cy="500.3" r="15.4" fill="url(#h-cyan)" opacity="0.4"/><circle cx="379.5" cy="500.3" r="5.9" fill="#46BDE9" opacity="0.5"/><circle cx="1738.3" cy="276.1" r="13" fill="url(#h-violet)" opacity="0.3"/><circle cx="1738.3" cy="276.1" r="4.7" fill="#963CBD" opacity="0.4"/><circle cx="1330" cy="578.7" r="10" fill="url(#h-violet)" opacity="0.3"/><circle cx="1330" cy="578.7" r="3.6" fill="#963CBD" opacity="0.4"/><circle cx="1129.1" cy="698.3" r="10.1" fill="url(#h-violet)" opacity="0.3"/><circle cx="1129.1" cy="698.3" r="3.6" fill="#963CBD" opacity="0.4"/><circle cx="1489.7" cy="363.7" r="12.5" fill="url(#h-violet)" opacity="0.3"/><circle cx="1489.7" cy="363.7" r="4.4" fill="#963CBD" opacity="0.4"/><circle cx="63.9" cy="518.3" r="15.9" fill="url(#h-cyan)" opacity="0.4"/><circle cx="63.9" cy="518.3" r="6.1" fill="#46BDE9" opacity="0.5"/><circle cx="317.9" cy="389.8" r="15.9" fill="url(#h-cyan)" opacity="0.4"/><circle cx="317.9" cy="389.8" r="6.1" fill="#46BDE9" opacity="0.5"/><circle cx="1548" cy="661.7" r="15.1" fill="url(#h-violet)" opacity="0.3"/><circle cx="1548" cy="661.7" r="5.4" fill="#963CBD" opacity="0.4"/><circle cx="264.1" cy="746.6" r="12.2" fill="url(#h-cyan)" opacity="0.4"/><circle cx="264.1" cy="746.6" r="4.7" fill="#46BDE9" opacity="0.5"/><circle cx="1351.3" cy="403.4" r="12.3" fill="url(#h-violet)" opacity="0.3"/><circle cx="1351.3" cy="403.4" r="4.4" fill="#963CBD" opacity="0.4"/><circle cx="79.6" cy="281.9" r="12.1" fill="url(#h-cyan)" opacity="0.4"/><circle cx="79.6" cy="281.9" r="4.7" fill="#46BDE9" opacity="0.5"/><circle cx="1739.1" cy="781.3" r="12.2" fill="url(#h-violet)" opacity="0.3"/><circle cx="1739.1" cy="781.3" r="4.3" fill="#963CBD" opacity="0.4"/><circle cx="1705.6" cy="523.8" r="13" fill="url(#h-violet)" opacity="0.3"/><circle cx="1705.6" cy="523.8" r="4.7" fill="#963CBD" opacity="0.4"/><circle cx="558.8" cy="310.1" r="14.3" fill="url(#h-cyan)" opacity="0.4"/><circle cx="558.8" cy="310.1" r="5.5" fill="#46BDE9" opacity="0.5"/><circle cx="1426.5" cy="389.2" r="13.9" fill="url(#h-violet)" opacity="0.3"/><circle cx="1426.5" cy="389.2" r="5" fill="#963CBD" opacity="0.4"/><circle cx="1451.7" cy="666.5" r="12.3" fill="url(#h-violet)" opacity="0.3"/><circle cx="1451.7" cy="666.5" r="4.4" fill="#963CBD" opacity="0.4"/><circle cx="608.2" cy="605.6" r="14.6" fill="url(#h-cyan)" opacity="0.4"/><circle cx="608.2" cy="605.6" r="5.6" fill="#46BDE9" opacity="0.5"/><circle cx="127.5" cy="757.6" r="11.3" fill="url(#h-cyan)" opacity="0.4"/><circle cx="127.5" cy="757.6" r="4.3" fill="#46BDE9" opacity="0.5"/><circle cx="180.1" cy="653.2" r="13.5" fill="url(#h-cyan)" opacity="0.4"/><circle cx="180.1" cy="653.2" r="5.2" fill="#46BDE9" opacity="0.5"/><circle cx="1204.2" cy="337.6" r="10.8" fill="url(#h-violet)" opacity="0.3"/><circle cx="1204.2" cy="337.6" r="3.9" fill="#963CBD" opacity="0.4"/><circle cx="554" cy="448.4" r="11.1" fill="url(#h-cyan)" opacity="0.4"/><circle cx="554" cy="448.4" r="4.3" fill="#46BDE9" opacity="0.5"/><circle cx="618.1" cy="524.1" r="10.7" fill="url(#h-cyan)" opacity="0.4"/><circle cx="618.1" cy="524.1" r="4.1" fill="#46BDE9" opacity="0.5"/><circle cx="1490.8" cy="450.6" r="13.1" fill="url(#h-violet)" opacity="0.3"/><circle cx="1490.8" cy="450.6" r="4.7" fill="#963CBD" opacity="0.4"/><circle cx="1248.8" cy="512.7" r="11.9" fill="url(#h-violet)" opacity="0.3"/><circle cx="1248.8" cy="512.7" r="4.3" fill="#963CBD" opacity="0.4"/><circle cx="193.2" cy="579.6" r="15.4" fill="url(#h-cyan)" opacity="0.4"/><circle cx="193.2" cy="579.6" r="5.9" fill="#46BDE9" opacity="0.5"/><circle cx="111.3" cy="425" r="13.1" fill="url(#h-cyan)" opacity="0.4"/><circle cx="111.3" cy="425" r="5" fill="#46BDE9" opacity="0.5"/><circle cx="672.1" cy="324.1" r="10.8" fill="url(#h-cyan)" opacity="0.4"/><circle cx="672.1" cy="324.1" r="4.2" fill="#46BDE9" opacity="0.5"/><circle cx="520.1" cy="276.8" r="12.3" fill="url(#h-cyan)" opacity="0.4"/><circle cx="520.1" cy="276.8" r="4.7" fill="#46BDE9" opacity="0.5"/><circle cx="249.3" cy="449.5" r="14.1" fill="url(#h-cyan)" opacity="0.4"/><circle cx="249.3" cy="449.5" r="5.4" fill="#46BDE9" opacity="0.5"/><circle cx="686.5" cy="771.8" r="12.1" fill="url(#h-cyan)" opacity="0.4"/><circle cx="686.5" cy="771.8" r="4.7" fill="#46BDE9" opacity="0.5"/><circle cx="1807.8" cy="277.8" r="10" fill="url(#h-violet)" opacity="0.3"/><circle cx="1807.8" cy="277.8" r="3.6" fill="#963CBD" opacity="0.4"/><circle cx="755.2" cy="615.6" r="15.3" fill="url(#h-cyan)" opacity="0.4"/><circle cx="755.2" cy="615.6" r="5.9" fill="#46BDE9" opacity="0.5"/><circle cx="1622.7" cy="651.5" r="11.8" fill="url(#h-violet)" opacity="0.3"/><circle cx="1622.7" cy="651.5" r="4.2" fill="#963CBD" opacity="0.4"/><circle cx="1442" cy="772.3" r="15" fill="url(#h-violet)" opacity="0.3"/><circle cx="1442" cy="772.3" r="5.3" fill="#963CBD" opacity="0.4"/><circle cx="59.9" cy="367.1" r="11.2" fill="url(#h-cyan)" opacity="0.4"/><circle cx="59.9" cy="367.1" r="4.3" fill="#46BDE9" opacity="0.5"/><circle cx="653.3" cy="737.4" r="12.7" fill="url(#h-cyan)" opacity="0.4"/><circle cx="653.3" cy="737.4" r="4.9" fill="#46BDE9" opacity="0.5"/><circle cx="1813.6" cy="731.3" r="13.8" fill="url(#h-violet)" opacity="0.3"/><circle cx="1813.6" cy="731.3" r="4.9" fill="#963CBD" opacity="0.4"/><circle cx="358.2" cy="327.3" r="13.5" fill="url(#h-cyan)" opacity="0.4"/><circle cx="358.2" cy="327.3" r="5.2" fill="#46BDE9" opacity="0.5"/><circle cx="1605.6" cy="789.2" r="10.8" fill="url(#h-violet)" opacity="0.3"/><circle cx="1605.6" cy="789.2" r="3.9" fill="#963CBD" opacity="0.4"/><circle cx="1725.5" cy="432.8" r="11.7" fill="url(#h-violet)" opacity="0.3"/><circle cx="1725.5" cy="432.8" r="4.2" fill="#963CBD" opacity="0.4"/><circle cx="1219.6" cy="567.5" r="14.4" fill="url(#h-violet)" opacity="0.3"/><circle cx="1219.6" cy="567.5" r="5.1" fill="#963CBD" opacity="0.4"/><circle cx="140.8" cy="712.5" r="10.5" fill="url(#h-cyan)" opacity="0.4"/><circle cx="140.8" cy="712.5" r="4" fill="#46BDE9" opacity="0.5"/><circle cx="1568.3" cy="608.7" r="10.1" fill="url(#h-violet)" opacity="0.3"/><circle cx="1568.3" cy="608.7" r="3.6" fill="#963CBD" opacity="0.4"/><circle cx="1749.3" cy="637.6" r="11" fill="url(#h-violet)" opacity="0.3"/><circle cx="1749.3" cy="637.6" r="3.9" fill="#963CBD" opacity="0.4"/><circle cx="291.5" cy="785.6" r="12.8" fill="url(#h-cyan)" opacity="0.4"/><circle cx="291.5" cy="785.6" r="4.9" fill="#46BDE9" opacity="0.5"/><circle cx="323.7" cy="715.8" r="12.9" fill="url(#h-cyan)" opacity="0.4"/><circle cx="323.7" cy="715.8" r="5" fill="#46BDE9" opacity="0.5"/><circle cx="1511.3" cy="714.4" r="11.7" fill="url(#h-violet)" opacity="0.3"/><circle cx="1511.3" cy="714.4" r="4.2" fill="#963CBD" opacity="0.4"/><circle cx="289.5" cy="346.1" r="11" fill="url(#h-cyan)" opacity="0.4"/><circle cx="289.5" cy="346.1" r="4.2" fill="#46BDE9" opacity="0.5"/><circle cx="1668.6" cy="496.2" r="11.7" fill="url(#h-violet)" opacity="0.3"/><circle cx="1668.6" cy="496.2" r="4.2" fill="#963CBD" opacity="0.4"/><circle cx="451.8" cy="297.4" r="14.7" fill="url(#h-cyan)" opacity="0.4"/><circle cx="451.8" cy="297.4" r="5.7" fill="#46BDE9" opacity="0.5"/><circle cx="503.6" cy="750.8" r="15.5" fill="url(#h-cyan)" opacity="0.4"/><circle cx="503.6" cy="750.8" r="6" fill="#46BDE9" opacity="0.5"/><circle cx="485" cy="334.1" r="16.1" fill="url(#h-cyan)" opacity="0.4"/><circle cx="485" cy="334.1" r="6.2" fill="#46BDE9" opacity="0.5"/><circle cx="567.4" cy="544.3" r="13.4" fill="url(#h-cyan)" opacity="0.4"/><circle cx="567.4" cy="544.3" r="5.2" fill="#46BDE9" opacity="0.5"/><circle cx="1643" cy="587.8" r="11.6" fill="url(#h-violet)" opacity="0.3"/><circle cx="1643" cy="587.8" r="4.1" fill="#963CBD" opacity="0.4"/><circle cx="58.9" cy="678.8" r="16.1" fill="url(#h-cyan)" opacity="0.4"/><circle cx="58.9" cy="678.8" r="6.2" fill="#46BDE9" opacity="0.5"/><circle cx="1663.1" cy="324.5" r="10.1" fill="url(#h-violet)" opacity="0.3"/><circle cx="1663.1" cy="324.5" r="3.6" fill="#963CBD" opacity="0.4"/><circle cx="1866.7" cy="571" r="12.9" fill="url(#h-violet)" opacity="0.3"/><circle cx="1866.7" cy="571" r="4.6" fill="#963CBD" opacity="0.4"/><circle cx="1740.4" cy="565.9" r="14.8" fill="url(#h-violet)" opacity="0.3"/><circle cx="1740.4" cy="565.9" r="5.3" fill="#963CBD" opacity="0.4"/><circle cx="238.1" cy="369.7" r="13.2" fill="url(#h-cyan)" opacity="0.4"/><circle cx="238.1" cy="369.7" r="5.1" fill="#46BDE9" opacity="0.5"/><circle cx="1350.4" cy="655.3" r="12.3" fill="url(#h-violet)" opacity="0.3"/><circle cx="1350.4" cy="655.3" r="4.4" fill="#963CBD" opacity="0.4"/><circle cx="1810.9" cy="630.3" r="10.3" fill="url(#h-violet)" opacity="0.3"/><circle cx="1810.9" cy="630.3" r="3.7" fill="#963CBD" opacity="0.4"/><circle cx="1153.3" cy="451.3" r="10" fill="url(#h-violet)" opacity="0.3"/><circle cx="1153.3" cy="451.3" r="3.6" fill="#963CBD" opacity="0.4"/><circle cx="537.2" cy="355.8" r="16.3" fill="url(#h-cyan)" opacity="0.4"/><circle cx="537.2" cy="355.8" r="6.3" fill="#46BDE9" opacity="0.5"/><circle cx="1682.6" cy="676.9" r="13.2" fill="url(#h-violet)" opacity="0.3"/><circle cx="1682.6" cy="676.9" r="4.7" fill="#963CBD" opacity="0.4"/><circle cx="1457.7" cy="527.8" r="12.4" fill="url(#h-violet)" opacity="0.3"/><circle cx="1457.7" cy="527.8" r="4.4" fill="#963CBD" opacity="0.4"/><circle cx="1146.7" cy="524.5" r="10" fill="url(#h-violet)" opacity="0.3"/><circle cx="1146.7" cy="524.5" r="3.6" fill="#963CBD" opacity="0.4"/><circle cx="175.1" cy="359.1" r="14.5" fill="url(#h-cyan)" opacity="0.4"/><circle cx="175.1" cy="359.1" r="5.6" fill="#46BDE9" opacity="0.5"/><circle cx="505.5" cy="595.2" r="12.4" fill="url(#h-cyan)" opacity="0.4"/><circle cx="505.5" cy="595.2" r="4.8" fill="#46BDE9" opacity="0.5"/><circle cx="784.8" cy="798.8" r="16.5" fill="url(#h-cyan)" opacity="0.4"/><circle cx="784.8" cy="798.8" r="6.4" fill="#46BDE9" opacity="0.5"/><circle cx="1533" cy="321.1" r="11" fill="url(#h-violet)" opacity="0.3"/><circle cx="1533" cy="321.1" r="3.9" fill="#963CBD" opacity="0.4"/><circle cx="319" cy="510.5" r="15.4" fill="url(#h-cyan)" opacity="0.4"/><circle cx="319" cy="510.5" r="5.9" fill="#46BDE9" opacity="0.5"/><circle cx="470" cy="789.8" r="12.4" fill="url(#h-cyan)" opacity="0.4"/><circle cx="470" cy="789.8" r="4.8" fill="#46BDE9" opacity="0.5"/><circle cx="1145.4" cy="791" r="13.8" fill="url(#h-violet)" opacity="0.3"/><circle cx="1145.4" cy="791" r="4.9" fill="#963CBD" opacity="0.4"/><circle cx="1410" cy="636.4" r="12.2" fill="url(#h-violet)" opacity="0.3"/><circle cx="1410" cy="636.4" r="4.4" fill="#963CBD" opacity="0.4"/><circle cx="722.6" cy="505.9" r="10.7" fill="url(#h-cyan)" opacity="0.4"/><circle cx="722.6" cy="505.9" r="4.1" fill="#46BDE9" opacity="0.5"/><circle cx="125.2" cy="375.3" r="14.9" fill="url(#h-cyan)" opacity="0.4"/><circle cx="125.2" cy="375.3" r="5.7" fill="#46BDE9" opacity="0.5"/><circle cx="685.5" cy="270.8" r="16.3" fill="url(#h-cyan)" opacity="0.4"/><circle cx="685.5" cy="270.8" r="6.3" fill="#46BDE9" opacity="0.5"/><circle cx="1793.3" cy="490.4" r="13" fill="url(#h-violet)" opacity="0.3"/><circle cx="1793.3" cy="490.4" r="4.6" fill="#963CBD" opacity="0.4"/><circle cx="598.5" cy="682.5" r="15.8" fill="url(#h-cyan)" opacity="0.4"/><circle cx="598.5" cy="682.5" r="6.1" fill="#46BDE9" opacity="0.5"/><circle cx="1380" cy="795.1" r="14.8" fill="url(#h-violet)" opacity="0.3"/><circle cx="1380" cy="795.1" r="5.3" fill="#963CBD" opacity="0.4"/><circle cx="681" cy="646.2" r="12.6" fill="url(#h-cyan)" opacity="0.4"/><circle cx="681" cy="646.2" r="4.9" fill="#46BDE9" opacity="0.5"/><circle cx="1456.6" cy="598.7" r="11.9" fill="url(#h-violet)" opacity="0.3"/><circle cx="1456.6" cy="598.7" r="4.3" fill="#963CBD" opacity="0.4"/><circle cx="715.6" cy="395.6" r="16.2" fill="url(#h-cyan)" opacity="0.4"/><circle cx="715.6" cy="395.6" r="6.2" fill="#46BDE9" opacity="0.5"/><circle cx="554.3" cy="655.9" r="12.3" fill="url(#h-cyan)" opacity="0.4"/><circle cx="554.3" cy="655.9" r="4.7" fill="#46BDE9" opacity="0.5"/><circle cx="1297.6" cy="640.6" r="11.9" fill="url(#h-violet)" opacity="0.3"/><circle cx="1297.6" cy="640.6" r="4.3" fill="#963CBD" opacity="0.4"/><circle cx="1276.2" cy="290.5" r="11" fill="url(#h-violet)" opacity="0.3"/><circle cx="1276.2" cy="290.5" r="3.9" fill="#963CBD" opacity="0.4"/><circle cx="1487.7" cy="758.9" r="15.4" fill="url(#h-violet)" opacity="0.3"/><circle cx="1487.7" cy="758.9" r="5.5" fill="#963CBD" opacity="0.4"/><circle cx="346.6" cy="280.9" r="12.3" fill="url(#h-cyan)" opacity="0.4"/><circle cx="346.6" cy="280.9" r="4.7" fill="#46BDE9" opacity="0.5"/><circle cx="1602.5" cy="287.8" r="12.8" fill="url(#h-violet)" opacity="0.3"/><circle cx="1602.5" cy="287.8" r="4.6" fill="#963CBD" opacity="0.4"/><circle cx="284.9" cy="625.6" r="12.3" fill="url(#h-cyan)" opacity="0.4"/><circle cx="284.9" cy="625.6" r="4.7" fill="#46BDE9" opacity="0.5"/><circle cx="742.4" cy="678.7" r="12.7" fill="url(#h-cyan)" opacity="0.4"/><circle cx="742.4" cy="678.7" r="4.9" fill="#46BDE9" opacity="0.5"/><circle cx="1282.3" cy="413.7" r="10.3" fill="url(#h-violet)" opacity="0.3"/><circle cx="1282.3" cy="413.7" r="3.7" fill="#963CBD" opacity="0.4"/><circle cx="1172.5" cy="657.3" r="10.8" fill="url(#h-violet)" opacity="0.3"/><circle cx="1172.5" cy="657.3" r="3.8" fill="#963CBD" opacity="0.4"/><circle cx="629.3" cy="442" r="12.6" fill="url(#h-cyan)" opacity="0.4"/><circle cx="629.3" cy="442" r="4.9" fill="#46BDE9" opacity="0.5"/><circle cx="1305.7" cy="457.8" r="10.9" fill="url(#h-violet)" opacity="0.3"/><circle cx="1305.7" cy="457.8" r="3.9" fill="#963CBD" opacity="0.4"/><circle cx="235.8" cy="269.6" r="13.6" fill="url(#h-cyan)" opacity="0.4"/><circle cx="235.8" cy="269.6" r="5.2" fill="#46BDE9" opacity="0.5"/><circle cx="346.5" cy="467.8" r="11.2" fill="url(#h-cyan)" opacity="0.4"/><circle cx="346.5" cy="467.8" r="4.3" fill="#46BDE9" opacity="0.5"/><circle cx="274.3" cy="678.2" r="10.8" fill="url(#h-cyan)" opacity="0.4"/><circle cx="274.3" cy="678.2" r="4.2" fill="#46BDE9" opacity="0.5"/><circle cx="1392.2" cy="280.7" r="10.1" fill="url(#h-violet)" opacity="0.3"/><circle cx="1392.2" cy="280.7" r="3.6" fill="#963CBD" opacity="0.4"/><circle cx="255" cy="502.6" r="11.2" fill="url(#h-cyan)" opacity="0.4"/><circle cx="255" cy="502.6" r="4.3" fill="#46BDE9" opacity="0.5"/><circle cx="445.9" cy="690.9" r="15.6" fill="url(#h-cyan)" opacity="0.4"/><circle cx="445.9" cy="690.9" r="6" fill="#46BDE9" opacity="0.5"/><circle cx="719.3" cy="570.9" r="14.9" fill="url(#h-cyan)" opacity="0.4"/><circle cx="719.3" cy="570.9" r="5.7" fill="#46BDE9" opacity="0.5"/><circle cx="387.9" cy="549.7" r="12" fill="url(#h-cyan)" opacity="0.4"/><circle cx="387.9" cy="549.7" r="4.6" fill="#46BDE9" opacity="0.5"/><circle cx="551.2" cy="765.2" r="13.7" fill="url(#h-cyan)" opacity="0.4"/><circle cx="551.2" cy="765.2" r="5.3" fill="#46BDE9" opacity="0.5"/><circle cx="446.8" cy="450.6" r="14.9" fill="url(#h-cyan)" opacity="0.4"/><circle cx="446.8" cy="450.6" r="5.7" fill="#46BDE9" opacity="0.5"/><circle cx="1791.7" cy="685.9" r="13.2" fill="url(#h-violet)" opacity="0.3"/><circle cx="1791.7" cy="685.9" r="4.7" fill="#963CBD" opacity="0.4"/><circle cx="1828.1" cy="331.3" r="12.8" fill="url(#h-violet)" opacity="0.3"/><circle cx="1828.1" cy="331.3" r="4.6" fill="#963CBD" opacity="0.4"/><circle cx="1792.6" cy="583.1" r="10.9" fill="url(#h-violet)" opacity="0.3"/><circle cx="1792.6" cy="583.1" r="3.9" fill="#963CBD" opacity="0.4"/><circle cx="1155.1" cy="285.7" r="10.5" fill="url(#h-violet)" opacity="0.3"/><circle cx="1155.1" cy="285.7" r="3.7" fill="#963CBD" opacity="0.4"/><circle cx="1317.5" cy="528.8" r="10.5" fill="url(#h-violet)" opacity="0.3"/><circle cx="1317.5" cy="528.8" r="3.7" fill="#963CBD" opacity="0.4"/><circle cx="1836.9" cy="474" r="11.3" fill="url(#h-violet)" opacity="0.3"/><circle cx="1836.9" cy="474" r="4" fill="#963CBD" opacity="0.4"/><circle cx="422.8" cy="644" r="13.8" fill="url(#h-cyan)" opacity="0.4"/><circle cx="422.8" cy="644" r="5.3" fill="#46BDE9" opacity="0.5"/><circle cx="190.3" cy="795.3" r="12" fill="url(#h-cyan)" opacity="0.4"/><circle cx="190.3" cy="795.3" r="4.6" fill="#46BDE9" opacity="0.5"/><circle cx="1365.9" cy="342.3" r="12.6" fill="url(#h-violet)" opacity="0.3"/><circle cx="1365.9" cy="342.3" r="4.5" fill="#963CBD" opacity="0.4"/><circle cx="410.6" cy="270.9" r="13.9" fill="url(#h-cyan)" opacity="0.4"/><circle cx="410.6" cy="270.9" r="5.4" fill="#46BDE9" opacity="0.5"/><circle cx="503" cy="665.4" r="10.9" fill="url(#h-cyan)" opacity="0.4"/><circle cx="503" cy="665.4" r="4.2" fill="#46BDE9" opacity="0.5"/><circle cx="1541.1" cy="510.3" r="14.5" fill="url(#h-violet)" opacity="0.3"/><circle cx="1541.1" cy="510.3" r="5.2" fill="#963CBD" opacity="0.4"/><circle cx="1433.6" cy="470.7" r="13.8" fill="url(#h-violet)" opacity="0.3"/><circle cx="1433.6" cy="470.7" r="4.9" fill="#963CBD" opacity="0.4"/><circle cx="614.1" cy="358.1" r="10.5" fill="url(#h-cyan)" opacity="0.4"/><circle cx="614.1" cy="358.1" r="4" fill="#46BDE9" opacity="0.5"/><circle cx="672.7" cy="575.6" r="15.2" fill="url(#h-cyan)" opacity="0.4"/><circle cx="672.7" cy="575.6" r="5.8" fill="#46BDE9" opacity="0.5"/><circle cx="1646.7" cy="763.9" r="10.6" fill="url(#h-violet)" opacity="0.3"/><circle cx="1646.7" cy="763.9" r="3.8" fill="#963CBD" opacity="0.4"/><circle cx="597" cy="777.9" r="14.3" fill="url(#h-cyan)" opacity="0.4"/><circle cx="597" cy="777.9" r="5.5" fill="#46BDE9" opacity="0.5"/><circle cx="237.5" cy="625.9" r="12.5" fill="url(#h-cyan)" opacity="0.4"/><circle cx="237.5" cy="625.9" r="4.8" fill="#46BDE9" opacity="0.5"/><circle cx="62.4" cy="416.3" r="11" fill="url(#h-cyan)" opacity="0.4"/><circle cx="62.4" cy="416.3" r="4.2" fill="#46BDE9" opacity="0.5"/></g>
  <g stroke="#CCF1FF" stroke-width="3.4" opacity="0.9"><line x1="792" y1="216" x2="792" y2="852"/><line x1="1128" y1="216" x2="1128" y2="852"/></g>
  <g><circle cx="1057.4" cy="758.2" r="25.2" fill="url(#h-mint)" opacity="0.7"/><circle cx="1057.4" cy="758.2" r="7.9" fill="#2CD5C4" opacity="1"/><circle cx="1075.1" cy="693.2" r="22.4" fill="url(#h-mint)" opacity="0.7"/><circle cx="1075.1" cy="693.2" r="7" fill="#2CD5C4" opacity="1"/><circle cx="1061.2" cy="289.8" r="19.5" fill="url(#h-mint)" opacity="0.7"/><circle cx="1061.2" cy="289.8" r="6.1" fill="#2CD5C4" opacity="1"/><circle cx="949.6" cy="407.1" r="23.6" fill="url(#h-mint)" opacity="0.7"/><circle cx="949.6" cy="407.1" r="7.4" fill="#2CD5C4" opacity="1"/><circle cx="855.7" cy="432.1" r="26.2" fill="url(#h-mint)" opacity="0.7"/><circle cx="855.7" cy="432.1" r="8.2" fill="#2CD5C4" opacity="1"/><circle cx="971.6" cy="354.2" r="24.4" fill="url(#h-mint)" opacity="0.7"/><circle cx="971.6" cy="354.2" r="7.6" fill="#2CD5C4" opacity="1"/><circle cx="859.9" cy="651.3" r="23.3" fill="url(#h-mint)" opacity="0.7"/><circle cx="859.9" cy="651.3" r="7.3" fill="#2CD5C4" opacity="1"/><circle cx="1063.2" cy="404.9" r="27.2" fill="url(#h-mint)" opacity="0.7"/><circle cx="1063.2" cy="404.9" r="8.5" fill="#2CD5C4" opacity="1"/><circle cx="1047.9" cy="590.4" r="20.7" fill="url(#h-mint)" opacity="0.7"/><circle cx="1047.9" cy="590.4" r="6.5" fill="#2CD5C4" opacity="1"/><circle cx="1108.5" cy="480.6" r="21.3" fill="url(#h-mint)" opacity="0.7"/><circle cx="1108.5" cy="480.6" r="6.7" fill="#2CD5C4" opacity="1"/><circle cx="793.9" cy="585.8" r="19.7" fill="url(#h-mint)" opacity="0.7"/><circle cx="793.9" cy="585.8" r="6.1" fill="#2CD5C4" opacity="1"/><circle cx="1098.4" cy="350.7" r="20" fill="url(#h-mint)" opacity="0.7"/><circle cx="1098.4" cy="350.7" r="6.3" fill="#2CD5C4" opacity="1"/><circle cx="821.6" cy="707.2" r="22.8" fill="url(#h-mint)" opacity="0.7"/><circle cx="821.6" cy="707.2" r="7.1" fill="#2CD5C4" opacity="1"/><circle cx="1005.6" cy="307.8" r="23.2" fill="url(#h-mint)" opacity="0.7"/><circle cx="1005.6" cy="307.8" r="7.2" fill="#2CD5C4" opacity="1"/><circle cx="919.8" cy="723.3" r="20.5" fill="url(#h-mint)" opacity="0.7"/><circle cx="919.8" cy="723.3" r="6.4" fill="#2CD5C4" opacity="1"/><circle cx="884" cy="773.6" r="26.1" fill="url(#h-mint)" opacity="0.7"/><circle cx="884" cy="773.6" r="8.2" fill="#2CD5C4" opacity="1"/><circle cx="924.2" cy="652.5" r="20.4" fill="url(#h-mint)" opacity="0.7"/><circle cx="924.2" cy="652.5" r="6.4" fill="#2CD5C4" opacity="1"/><circle cx="866.9" cy="581.8" r="25" fill="url(#h-mint)" opacity="0.7"/><circle cx="866.9" cy="581.8" r="7.8" fill="#2CD5C4" opacity="1"/><circle cx="854.2" cy="348" r="19.6" fill="url(#h-mint)" opacity="0.7"/><circle cx="854.2" cy="348" r="6.1" fill="#2CD5C4" opacity="1"/><circle cx="798.1" cy="656.2" r="22.8" fill="url(#h-mint)" opacity="0.7"/><circle cx="798.1" cy="656.2" r="7.1" fill="#2CD5C4" opacity="1"/><circle cx="986.1" cy="607.4" r="25" fill="url(#h-mint)" opacity="0.7"/><circle cx="986.1" cy="607.4" r="7.8" fill="#2CD5C4" opacity="1"/><circle cx="887.6" cy="487.9" r="20.4" fill="url(#h-mint)" opacity="0.7"/><circle cx="887.6" cy="487.9" r="6.4" fill="#2CD5C4" opacity="1"/><circle cx="796.6" cy="306.2" r="21.4" fill="url(#h-mint)" opacity="0.7"/><circle cx="796.6" cy="306.2" r="6.7" fill="#2CD5C4" opacity="1"/><circle cx="951.8" cy="470.7" r="25.1" fill="url(#h-mint)" opacity="0.7"/><circle cx="951.8" cy="470.7" r="7.8" fill="#2CD5C4" opacity="1"/><circle cx="812.7" cy="524.5" r="21.8" fill="url(#h-mint)" opacity="0.7"/><circle cx="812.7" cy="524.5" r="6.8" fill="#2CD5C4" opacity="1"/><circle cx="976" cy="699" r="23.4" fill="url(#h-mint)" opacity="0.7"/><circle cx="976" cy="699" r="7.3" fill="#2CD5C4" opacity="1"/><circle cx="1096.1" cy="584" r="19.8" fill="url(#h-mint)" opacity="0.7"/><circle cx="1096.1" cy="584" r="6.2" fill="#2CD5C4" opacity="1"/><circle cx="969.1" cy="782" r="21.6" fill="url(#h-mint)" opacity="0.7"/><circle cx="969.1" cy="782" r="6.8" fill="#2CD5C4" opacity="1"/><circle cx="812.6" cy="383.6" r="21.2" fill="url(#h-mint)" opacity="0.7"/><circle cx="812.6" cy="383.6" r="6.6" fill="#2CD5C4" opacity="1"/><circle cx="988" cy="499.4" r="22.6" fill="url(#h-mint)" opacity="0.7"/><circle cx="988" cy="499.4" r="7.1" fill="#2CD5C4" opacity="1"/><circle cx="1009.9" cy="562.1" r="26.4" fill="url(#h-mint)" opacity="0.7"/><circle cx="1009.9" cy="562.1" r="8.2" fill="#2CD5C4" opacity="1"/><circle cx="1027.3" cy="363" r="20.4" fill="url(#h-mint)" opacity="0.7"/><circle cx="1027.3" cy="363" r="6.4" fill="#2CD5C4" opacity="1"/><circle cx="1006.2" cy="434" r="24.6" fill="url(#h-mint)" opacity="0.7"/><circle cx="1006.2" cy="434" r="7.7" fill="#2CD5C4" opacity="1"/></g>
  <g><line x1="200" y1="872" x2="326.6" y2="872" stroke="#2CD5C4" stroke-width="5" stroke-linecap="round" opacity="0.7"/><line x1="200" y1="861" x2="200" y2="883" stroke="#CCF1FF" stroke-width="2" opacity="0.45"/><line x1="326.6" y1="872" x2="438.4" y2="872" stroke="#2CD5C4" stroke-width="5" stroke-linecap="round" opacity="0.7"/><line x1="326.6" y1="861" x2="326.6" y2="883" stroke="#CCF1FF" stroke-width="2" opacity="0.45"/><line x1="438.4" y1="872" x2="624.2" y2="872" stroke="#2CD5C4" stroke-width="5" stroke-linecap="round" opacity="0.7"/><line x1="438.4" y1="861" x2="438.4" y2="883" stroke="#CCF1FF" stroke-width="2" opacity="0.45"/><line x1="624.2" y1="872" x2="802.8" y2="872" stroke="#CCF1FF" stroke-width="7" stroke-linecap="round" opacity="0.95"/><line x1="624.2" y1="861" x2="624.2" y2="883" stroke="#CCF1FF" stroke-width="2" opacity="0.45"/><line x1="802.8" y1="872" x2="1063" y2="872" stroke="#CCF1FF" stroke-width="7" stroke-linecap="round" opacity="0.95"/><line x1="802.8" y1="861" x2="802.8" y2="883" stroke="#CCF1FF" stroke-width="2" opacity="0.45"/><line x1="1063" y1="872" x2="1181.8" y2="872" stroke="#CCF1FF" stroke-width="7" stroke-linecap="round" opacity="0.95"/><line x1="1063" y1="861" x2="1063" y2="883" stroke="#CCF1FF" stroke-width="2" opacity="0.45"/><line x1="1181.8" y1="872" x2="1395.5" y2="872" stroke="#46BDE9" stroke-width="2.4" stroke-linecap="round" opacity="0.25"/><line x1="1181.8" y1="861" x2="1181.8" y2="883" stroke="#CCF1FF" stroke-width="2" opacity="0.16"/><line x1="1395.5" y1="872" x2="1610.8" y2="872" stroke="#46BDE9" stroke-width="2.4" stroke-linecap="round" opacity="0.25"/><line x1="1395.5" y1="861" x2="1395.5" y2="883" stroke="#CCF1FF" stroke-width="2" opacity="0.16"/><line x1="1610.8" y1="872" x2="1697" y2="872" stroke="#46BDE9" stroke-width="2.4" stroke-linecap="round" opacity="0.25"/><line x1="1610.8" y1="861" x2="1610.8" y2="883" stroke="#CCF1FF" stroke-width="2" opacity="0.16"/><line x1="1697" y1="872" x2="1720" y2="872" stroke="#46BDE9" stroke-width="2.4" stroke-linecap="round" opacity="0.25"/><line x1="1697" y1="861" x2="1697" y2="883" stroke="#CCF1FF" stroke-width="2" opacity="0.16"/></g>
  <line x1="1128" y1="854" x2="1128" y2="890" stroke="#CCF1FF" stroke-width="4" stroke-linecap="round" opacity="0.95"/>
  <path d="M 1180 857 L 1202 872 L 1180 887" fill="none" stroke="#CCF1FF" stroke-width="4" stroke-linecap="round" stroke-linejoin="round" opacity="0.75"/>
  <g opacity="0.92"><g transform="translate(280.9 184.3) scale(0.7828)"><path d="M 13.482285 60.694962 L 0.998384 52.884399 L 0.998384 19.502914 L 31.527868 2.001205 L 61.317604 19.532024 L 61.317604 54.64489 L 31.054855 71.68927 L 20.548372 65.115807 L 20.548372 51.041328 L 20.548372 49.119896 L 14.851504 45.555508 L 14.851504 27.453159 L 31.346497 17.99712 L 47.464485 27.482262 L 47.464485 46.451157 L 34.703495 53.638138 L 34.703495 45.998573 C 38.52874 44.52552 41.274452 40.739189 41.274452 36.270489 C 41.274452 30.510658 36.712814 25.88438 31.158138 25.88438 C 25.603172 25.88438 21.041817 30.510658 21.041817 36.270489 C 21.041817 40.739189 23.787249 44.52552 27.612494 45.998573 L 27.612494 60.473576 L 31.261133 62.756348 L 53.635483 50.15464 L 53.635483 23.924595 L 31.477489 10.884869 L 8.680504 23.953705 L 8.680504 48.628967 L 13.482285 51.633297 L 13.482285 60.694962 Z M 31.158138 31.498383 C 33.671822 31.498383 35.660439 33.664162 35.660439 36.270489 C 35.660439 38.876804 33.671822 41.042587 31.158138 41.042587 C 28.644447 41.042587 26.655558 38.876804 26.655558 36.270489 C 26.655558 33.664162 28.644447 31.498383 31.158138 31.498383 Z" fill="#FFFFFF" fill-rule="evenodd"/></g></g>
  <rect width="1920" height="1080" fill="url(#vignette)"/>
  <rect width="1920" height="1080" filter="url(#grain)" opacity="0.055" style="mix-blend-mode:overlay"/>
</svg>
