<svg xmlns="http://www.w3.org/2000/svg" width="1920" height="1080" viewBox="198.1 111.4 1523.8 857.1">
  <title>Valkey keyspace scan</title>
  <desc>A wide field of keys with one bounded window lit in green, the keys behind it dimmed and the keys ahead of it unlit, above a track of uneven cursor steps, representing scanning a keyspace a window at a time instead of reading it all at once. The title "Valkey keyspace scan" is set on solid light blocks in the lower left.</desc>
  <defs>
    <linearGradient id="sky" x1="0" y1="0" x2="0.32" y2="1">
      <stop offset="0" stop-color="#060A24"/>
      <stop offset="0.48" stop-color="#171043"/>
      <stop offset="1" stop-color="#301868"/>
    </linearGradient>
    <radialGradient id="focus" gradientUnits="userSpaceOnUse" cx="960" cy="540" r="900">
      <stop offset="0" stop-color="#00A3E0" stop-opacity="0.42"/>
      <stop offset="0.35" stop-color="#963CBD" stop-opacity="0.20"/>
      <stop offset="1" stop-color="#963CBD" stop-opacity="0"/>
    </radialGradient>
    <radialGradient id="vignette" gradientUnits="userSpaceOnUse" cx="960" cy="540" r="1180">
      <stop offset="0.5" stop-color="#03040F" stop-opacity="0"/>
      <stop offset="1" stop-color="#03040F" stop-opacity="0.8"/>
    </radialGradient>
    <radialGradient id="scrim">
      <stop offset="0" stop-color="#060A24" stop-opacity="0.72"/>
      <stop offset="0.6" stop-color="#060A24" stop-opacity="0.45"/>
      <stop offset="1" stop-color="#060A24" stop-opacity="0"/>
    </radialGradient>
    <filter id="grain" x="0" y="0" width="100%" height="100%">
      <feTurbulence type="fractalNoise" baseFrequency="0.85" numOctaves="4" stitchTiles="stitch"/>
      <feColorMatrix type="saturate" values="0"/>
    </filter>
    <radialGradient id="h-cyan"><stop offset="0" stop-color="#46BDE9" stop-opacity="0.75"/><stop offset="0.4" stop-color="#46BDE9" stop-opacity="0.22"/><stop offset="1" stop-color="#46BDE9" stop-opacity="0"/></radialGradient>
    <radialGradient id="h-ice"><stop offset="0" stop-color="#CCF1FF" stop-opacity="0.75"/><stop offset="0.4" stop-color="#CCF1FF" stop-opacity="0.22"/><stop offset="1" stop-color="#CCF1FF" stop-opacity="0"/></radialGradient>
    <radialGradient id="h-mint"><stop offset="0" stop-color="#2CD5C4" stop-opacity="0.75"/><stop offset="0.4" stop-color="#2CD5C4" stop-opacity="0.22"/><stop offset="1" stop-color="#2CD5C4" stop-opacity="0"/></radialGradient>
    <radialGradient id="h-coral"><stop offset="0" stop-color="#F65275" stop-opacity="0.75"/><stop offset="0.4" stop-color="#F65275" stop-opacity="0.22"/><stop offset="1" stop-color="#F65275" stop-opacity="0"/></radialGradient>
    <radialGradient id="h-violet"><stop offset="0" stop-color="#963CBD" stop-opacity="0.75"/><stop offset="0.4" stop-color="#963CBD" stop-opacity="0.22"/><stop offset="1" stop-color="#963CBD" stop-opacity="0"/></radialGradient>
    <radialGradient id="h-gold"><stop offset="0" stop-color="#FFB81C" stop-opacity="0.75"/><stop offset="0.4" stop-color="#FFB81C" stop-opacity="0.22"/><stop offset="1" stop-color="#FFB81C" stop-opacity="0"/></radialGradient>
    <filter id="blur3" x="-70%" y="-70%" width="240%" height="240%"><feGaussianBlur stdDeviation="3"/></filter>
    <filter id="blur8" x="-70%" y="-70%" width="240%" height="240%"><feGaussianBlur stdDeviation="8"/></filter>
    <filter id="blur18" x="-70%" y="-70%" width="240%" height="240%"><feGaussianBlur stdDeviation="18"/></filter>
    <filter id="blur40" x="-70%" y="-70%" width="240%" height="240%"><feGaussianBlur stdDeviation="40"/></filter>
  </defs>
  <rect width="1920" height="1080" fill="url(#sky)"/>
  <rect width="1920" height="1080" fill="url(#focus)"/>
  <g transform="translate(378.8 24.5) scale(0.78)">
  <g><circle cx="165.8" cy="253.5" r="2.1" fill="#CCF1FF" opacity="0.3"/><circle cx="931.5" cy="133.3" r="2.1" fill="#CCF1FF" opacity="0.1"/><circle cx="1024" cy="124.9" r="2.3" fill="#CCF1FF" opacity="0.4"/><circle cx="1501.8" cy="774.7" r="2.4" fill="#CCF1FF" opacity="0.2"/><circle cx="1381.2" cy="71.1" r="0.9" fill="#CCF1FF" opacity="0.3"/><circle cx="95.6" cy="453.6" r="2.6" fill="#CCF1FF" opacity="0.3"/><circle cx="709.5" cy="1019.8" r="1.8" fill="#CCF1FF" opacity="0.3"/><circle cx="1153.8" cy="708.1" r="1.8" fill="#CCF1FF" opacity="0.2"/><circle cx="1125" cy="248.6" r="1.2" fill="#CCF1FF" opacity="0.3"/><circle cx="864.9" cy="905.5" r="2.1" fill="#CCF1FF" opacity="0.3"/><circle cx="503.6" cy="448.8" r="2.2" fill="#CCF1FF" opacity="0.3"/><circle cx="932.9" cy="1012" r="1.8" fill="#CCF1FF" opacity="0.4"/><circle cx="1779.3" cy="553.9" r="1.8" fill="#CCF1FF" opacity="0.4"/><circle cx="1246.5" cy="649.3" r="1" fill="#CCF1FF" opacity="0.3"/><circle cx="1851.5" cy="889" r="1.9" fill="#CCF1FF" opacity="0.3"/><circle cx="611.6" cy="915.6" r="2.4" fill="#CCF1FF" opacity="0.3"/><circle cx="860.7" cy="1032.2" r="2.4" fill="#CCF1FF" opacity="0.2"/><circle cx="1465.9" cy="1004.8" r="1.1" fill="#CCF1FF" opacity="0.3"/><circle cx="1472.1" cy="217" r="2.1" fill="#CCF1FF" opacity="0.2"/><circle cx="137.8" cy="205.3" r="1.7" fill="#CCF1FF" opacity="0.1"/><circle cx="1360" cy="602.8" r="1.9" fill="#CCF1FF" opacity="0.2"/><circle cx="277.8" cy="859.9" r="2.2" fill="#CCF1FF" opacity="0.2"/><circle cx="1434.6" cy="166.7" r="1.8" fill="#CCF1FF" opacity="0.2"/><circle cx="567.4" cy="568.3" r="1.5" fill="#CCF1FF" opacity="0.1"/><circle cx="1326.5" cy="170.1" r="1.3" fill="#CCF1FF" opacity="0.2"/><circle cx="1043.5" cy="954" r="1.9" fill="#CCF1FF" opacity="0.2"/><circle cx="1782" cy="74.2" r="2.2" fill="#CCF1FF" opacity="0.4"/><circle cx="15.1" cy="111.4" r="2.7" fill="#CCF1FF" opacity="0.3"/><circle cx="820.7" cy="484.9" r="0.9" fill="#CCF1FF" opacity="0.3"/><circle cx="347.2" cy="229" r="0.9" fill="#CCF1FF" opacity="0.4"/><circle cx="413.2" cy="778.8" r="2.5" fill="#CCF1FF" opacity="0.3"/><circle cx="1349.7" cy="149.9" r="0.8" fill="#CCF1FF" opacity="0.1"/><circle cx="1180.9" cy="649.3" r="2.2" fill="#CCF1FF" opacity="0.2"/><circle cx="1139.3" cy="494.2" r="1.4" fill="#CCF1FF" opacity="0.3"/><circle cx="446.8" cy="89.7" r="0.9" fill="#CCF1FF" opacity="0.2"/><circle cx="1663.5" cy="43.2" r="1.2" fill="#CCF1FF" opacity="0.4"/><circle cx="1438.6" cy="877.4" r="1.8" fill="#CCF1FF" opacity="0.1"/><circle cx="1272.8" cy="288" r="2.2" fill="#CCF1FF" opacity="0.2"/><circle cx="300.2" cy="1063.9" r="0.9" fill="#CCF1FF" opacity="0.2"/><circle cx="1003" cy="954.6" r="2.1" fill="#CCF1FF" opacity="0.3"/><circle cx="985.7" cy="126" r="2" fill="#CCF1FF" opacity="0.4"/><circle cx="712.6" cy="842.8" r="1.9" fill="#CCF1FF" opacity="0.1"/><circle cx="1216" cy="26.2" r="1.9" fill="#CCF1FF" opacity="0.1"/><circle cx="57.1" cy="538" r="1.5" fill="#CCF1FF" opacity="0.2"/><circle cx="1464" cy="673" r="1.8" fill="#CCF1FF" opacity="0.1"/><circle cx="1008.8" cy="77" r="2.4" fill="#CCF1FF" opacity="0.2"/><circle cx="459.5" cy="1031.2" r="1.4" fill="#CCF1FF" opacity="0.1"/><circle cx="1251.3" cy="1056.3" r="2.4" fill="#CCF1FF" opacity="0.1"/><circle cx="1651.1" cy="1056.1" r="2" fill="#CCF1FF" opacity="0.4"/><circle cx="43.6" cy="1057.6" r="1.3" fill="#CCF1FF" opacity="0.3"/><circle cx="1784.9" cy="564.9" r="2.7" fill="#CCF1FF" opacity="0.3"/><circle cx="1490.7" cy="1038.6" r="2.1" fill="#CCF1FF" opacity="0.1"/><circle cx="887.2" cy="82.6" r="1.5" fill="#CCF1FF" opacity="0.1"/><circle cx="111.6" cy="467.3" r="1.5" fill="#CCF1FF" opacity="0.3"/><circle cx="1467.9" cy="637.1" r="1.5" fill="#CCF1FF" opacity="0.2"/></g>
  <ellipse cx="960" cy="540" rx="470" ry="400" fill="url(#h-mint)" opacity="0.16"/>
  <line x1="180" y1="872" x2="1740" y2="872" stroke="#CCF1FF" stroke-width="1.6" stroke-dasharray="9 15" opacity="0.22"/>
  <rect x="792" y="216" width="336" height="636" rx="26" fill="#CCF1FF" opacity="0.07"/>
  <g stroke="#CCF1FF" stroke-width="12" opacity="0.28" filter="url(#blur18)"><line x1="792" y1="216" x2="792" y2="852"/><line x1="1128" y1="216" x2="1128" y2="852"/></g>
  <g><circle cx="1428.1" cy="661" r="15.3" fill="url(#h-violet)" opacity="0.3"/><circle cx="1428.1" cy="661" r="5.5" fill="#963CBD" opacity="0.4"/><circle cx="188" cy="779.1" r="11.1" fill="url(#h-cyan)" opacity="0.4"/><circle cx="188" cy="779.1" r="4.3" fill="#46BDE9" opacity="0.5"/><circle cx="316.4" cy="395.1" r="13.2" fill="url(#h-cyan)" opacity="0.4"/><circle cx="316.4" cy="395.1" r="5.1" fill="#46BDE9" opacity="0.5"/><circle cx="1273.2" cy="451.8" r="13.3" fill="url(#h-violet)" opacity="0.3"/><circle cx="1273.2" cy="451.8" r="4.8" fill="#963CBD" opacity="0.4"/><circle cx="588" cy="600.6" r="11.5" fill="url(#h-cyan)" opacity="0.4"/><circle cx="588" cy="600.6" r="4.4" fill="#46BDE9" opacity="0.5"/><circle cx="1340.5" cy="745.1" r="12.6" fill="url(#h-violet)" opacity="0.3"/><circle cx="1340.5" cy="745.1" r="4.5" fill="#963CBD" opacity="0.4"/><circle cx="1795.4" cy="293.4" r="14.3" fill="url(#h-violet)" opacity="0.3"/><circle cx="1795.4" cy="293.4" r="5.1" fill="#963CBD" opacity="0.4"/><circle cx="252.1" cy="376.9" r="11.3" fill="url(#h-cyan)" opacity="0.4"/><circle cx="252.1" cy="376.9" r="4.4" fill="#46BDE9" opacity="0.5"/><circle cx="59.8" cy="353.4" r="13.1" fill="url(#h-cyan)" opacity="0.4"/><circle cx="59.8" cy="353.4" r="5.1" fill="#46BDE9" opacity="0.5"/><circle cx="1243" cy="765.7" r="11.7" fill="url(#h-violet)" opacity="0.3"/><circle cx="1243" cy="765.7" r="4.2" fill="#963CBD" opacity="0.4"/><circle cx="1619.7" cy="313.3" r="10.3" fill="url(#h-violet)" opacity="0.3"/><circle cx="1619.7" cy="313.3" r="3.7" fill="#963CBD" opacity="0.4"/><circle cx="1129.9" cy="413.6" r="12.8" fill="url(#h-violet)" opacity="0.3"/><circle cx="1129.9" cy="413.6" r="4.6" fill="#963CBD" opacity="0.4"/><circle cx="1425.3" cy="488.6" r="13.6" fill="url(#h-violet)" opacity="0.3"/><circle cx="1425.3" cy="488.6" r="4.9" fill="#963CBD" opacity="0.4"/><circle cx="267.2" cy="647.8" r="13.7" fill="url(#h-cyan)" opacity="0.4"/><circle cx="267.2" cy="647.8" r="5.3" fill="#46BDE9" opacity="0.5"/><circle cx="1768.2" cy="631.6" r="12.5" fill="url(#h-violet)" opacity="0.3"/><circle cx="1768.2" cy="631.6" r="4.5" fill="#963CBD" opacity="0.4"/><circle cx="1689.3" cy="624.3" r="13" fill="url(#h-violet)" opacity="0.3"/><circle cx="1689.3" cy="624.3" r="4.6" fill="#963CBD" opacity="0.4"/><circle cx="486.5" cy="330.9" r="12.4" fill="url(#h-cyan)" opacity="0.4"/><circle cx="486.5" cy="330.9" r="4.8" fill="#46BDE9" opacity="0.5"/><circle cx="591.7" cy="352.3" r="15.3" fill="url(#h-cyan)" opacity="0.4"/><circle cx="591.7" cy="352.3" r="5.9" fill="#46BDE9" opacity="0.5"/><circle cx="1140.5" cy="287.2" r="14.4" fill="url(#h-violet)" opacity="0.3"/><circle cx="1140.5" cy="287.2" r="5.1" fill="#963CBD" opacity="0.4"/><circle cx="1673.6" cy="360.1" r="13.5" fill="url(#h-violet)" opacity="0.3"/><circle cx="1673.6" cy="360.1" r="4.8" fill="#963CBD" opacity="0.4"/><circle cx="1138.5" cy="702.7" r="13.9" fill="url(#h-violet)" opacity="0.3"/><circle cx="1138.5" cy="702.7" r="5" fill="#963CBD" opacity="0.4"/><circle cx="1534.8" cy="340.6" r="11.1" fill="url(#h-violet)" opacity="0.3"/><circle cx="1534.8" cy="340.6" r="4" fill="#963CBD" opacity="0.4"/><circle cx="1408.3" cy="774.1" r="10.6" fill="url(#h-violet)" opacity="0.3"/><circle cx="1408.3" cy="774.1" r="3.8" fill="#963CBD" opacity="0.4"/><circle cx="1752.2" cy="558.6" r="10.9" fill="url(#h-violet)" opacity="0.3"/><circle cx="1752.2" cy="558.6" r="3.9" fill="#963CBD" opacity="0.4"/><circle cx="324.5" cy="787.3" r="12.1" fill="url(#h-cyan)" opacity="0.4"/><circle cx="324.5" cy="787.3" r="4.6" fill="#46BDE9" opacity="0.5"/><circle cx="1802.8" cy="567.5" r="12" fill="url(#h-violet)" opacity="0.3"/><circle cx="1802.8" cy="567.5" r="4.3" fill="#963CBD" opacity="0.4"/><circle cx="1686.8" cy="487" r="12" fill="url(#h-violet)" opacity="0.3"/><circle cx="1686.8" cy="487" r="4.3" fill="#963CBD" opacity="0.4"/><circle cx="500.1" cy="760.4" r="16" fill="url(#h-cyan)" opacity="0.4"/><circle cx="500.1" cy="760.4" r="6.1" fill="#46BDE9" opacity="0.5"/><circle cx="1618.4" cy="417.9" r="11.6" fill="url(#h-violet)" opacity="0.3"/><circle cx="1618.4" cy="417.9" r="4.2" fill="#963CBD" opacity="0.4"/><circle cx="252.1" cy="475.8" r="16.8" fill="url(#h-cyan)" opacity="0.4"/><circle cx="252.1" cy="475.8" r="6.4" fill="#46BDE9" opacity="0.5"/><circle cx="1194.5" cy="383" r="15.3" fill="url(#h-violet)" opacity="0.3"/><circle cx="1194.5" cy="383" r="5.5" fill="#963CBD" opacity="0.4"/><circle cx="1315.8" cy="672.7" r="9.9" fill="url(#h-violet)" opacity="0.3"/><circle cx="1315.8" cy="672.7" r="3.5" fill="#963CBD" opacity="0.4"/><circle cx="1502" cy="573.4" r="11.8" fill="url(#h-violet)" opacity="0.3"/><circle cx="1502" cy="573.4" r="4.2" fill="#963CBD" opacity="0.4"/><circle cx="432.9" cy="313.1" r="14.6" fill="url(#h-cyan)" opacity="0.4"/><circle cx="432.9" cy="313.1" r="5.6" fill="#46BDE9" opacity="0.5"/><circle cx="1676.1" cy="670.6" r="14.1" fill="url(#h-violet)" opacity="0.3"/><circle cx="1676.1" cy="670.6" r="5" fill="#963CBD" opacity="0.4"/><circle cx="200.9" cy="524.4" r="16.4" fill="url(#h-cyan)" opacity="0.4"/><circle cx="200.9" cy="524.4" r="6.3" fill="#46BDE9" opacity="0.5"/><circle cx="1441.4" cy="606.1" r="13.9" fill="url(#h-violet)" opacity="0.3"/><circle cx="1441.4" cy="606.1" r="4.9" fill="#963CBD" opacity="0.4"/><circle cx="1439.2" cy="429.3" r="13.5" fill="url(#h-violet)" opacity="0.3"/><circle cx="1439.2" cy="429.3" r="4.8" fill="#963CBD" opacity="0.4"/><circle cx="671.6" cy="643.1" r="11.1" fill="url(#h-cyan)" opacity="0.4"/><circle cx="671.6" cy="643.1" r="4.3" fill="#46BDE9" opacity="0.5"/><circle cx="432.8" cy="785" r="10.7" fill="url(#h-cyan)" opacity="0.4"/><circle cx="432.8" cy="785" r="4.1" fill="#46BDE9" opacity="0.5"/><circle cx="367.5" cy="648.7" r="12.4" fill="url(#h-cyan)" opacity="0.4"/><circle cx="367.5" cy="648.7" r="4.8" fill="#46BDE9" opacity="0.5"/><circle cx="77.1" cy="529.8" r="13.2" fill="url(#h-cyan)" opacity="0.4"/><circle cx="77.1" cy="529.8" r="5.1" fill="#46BDE9" opacity="0.5"/><circle cx="1553.3" cy="588.6" r="11.4" fill="url(#h-violet)" opacity="0.3"/><circle cx="1553.3" cy="588.6" r="4.1" fill="#963CBD" opacity="0.4"/><circle cx="1562.6" cy="535.4" r="13.9" fill="url(#h-violet)" opacity="0.3"/><circle cx="1562.6" cy="535.4" r="5" fill="#963CBD" opacity="0.4"/><circle cx="1396.1" cy="524.6" r="10.3" fill="url(#h-violet)" opacity="0.3"/><circle cx="1396.1" cy="524.6" r="3.7" fill="#963CBD" opacity="0.4"/><circle cx="670.4" cy="573" r="16.7" fill="url(#h-cyan)" opacity="0.4"/><circle cx="670.4" cy="573" r="6.4" fill="#46BDE9" opacity="0.5"/><circle cx="211.1" cy="660.1" r="16.3" fill="url(#h-cyan)" opacity="0.4"/><circle cx="211.1" cy="660.1" r="6.3" fill="#46BDE9" opacity="0.5"/><circle cx="1178.4" cy="775.4" r="9.9" fill="url(#h-violet)" opacity="0.3"/><circle cx="1178.4" cy="775.4" r="3.5" fill="#963CBD" opacity="0.4"/><circle cx="143.7" cy="659.5" r="13.9" fill="url(#h-cyan)" opacity="0.4"/><circle cx="143.7" cy="659.5" r="5.3" fill="#46BDE9" opacity="0.5"/><circle cx="184.4" cy="471.3" r="15.3" fill="url(#h-cyan)" opacity="0.4"/><circle cx="184.4" cy="471.3" r="5.9" fill="#46BDE9" opacity="0.5"/><circle cx="1653.5" cy="717.3" r="13" fill="url(#h-violet)" opacity="0.3"/><circle cx="1653.5" cy="717.3" r="4.7" fill="#963CBD" opacity="0.4"/><circle cx="135.1" cy="359.5" r="12.1" fill="url(#h-cyan)" opacity="0.4"/><circle cx="135.1" cy="359.5" r="4.6" fill="#46BDE9" opacity="0.5"/><circle cx="1858.9" cy="444.9" r="13.1" fill="url(#h-violet)" opacity="0.3"/><circle cx="1858.9" cy="444.9" r="4.7" fill="#963CBD" opacity="0.4"/><circle cx="612.1" cy="712.7" r="15.5" fill="url(#h-cyan)" opacity="0.4"/><circle cx="612.1" cy="712.7" r="6" fill="#46BDE9" opacity="0.5"/><circle cx="1749.2" cy="722.5" r="14.1" fill="url(#h-violet)" opacity="0.3"/><circle cx="1749.2" cy="722.5" r="5" fill="#963CBD" opacity="0.4"/><circle cx="1316.2" cy="788.5" r="11.5" fill="url(#h-violet)" opacity="0.3"/><circle cx="1316.2" cy="788.5" r="4.1" fill="#963CBD" opacity="0.4"/><circle cx="408.1" cy="717.6" r="13.5" fill="url(#h-cyan)" opacity="0.4"/><circle cx="408.1" cy="717.6" r="5.2" fill="#46BDE9" opacity="0.5"/><circle cx="1540.3" cy="685.9" r="15.4" fill="url(#h-violet)" opacity="0.3"/><circle cx="1540.3" cy="685.9" r="5.5" fill="#963CBD" opacity="0.4"/><circle cx="133.3" cy="431" r="16.1" fill="url(#h-cyan)" opacity="0.4"/><circle cx="133.3" cy="431" r="6.2" fill="#46BDE9" opacity="0.5"/><circle cx="1420.5" cy="277.7" r="14.4" fill="url(#h-violet)" opacity="0.3"/><circle cx="1420.5" cy="277.7" r="5.2" fill="#963CBD" opacity="0.4"/><circle cx="530.2" cy="281.6" r="14.9" fill="url(#h-cyan)" opacity="0.4"/><circle cx="530.2" cy="281.6" r="5.7" fill="#46BDE9" opacity="0.5"/><circle cx="1358.9" cy="581.4" r="12.4" fill="url(#h-violet)" opacity="0.3"/><circle cx="1358.9" cy="581.4" r="4.4" fill="#963CBD" opacity="0.4"/><circle cx="1390.5" cy="403.7" r="10.2" fill="url(#h-violet)" opacity="0.3"/><circle cx="1390.5" cy="403.7" r="3.7" fill="#963CBD" opacity="0.4"/><circle cx="291.3" cy="544.4" r="14.6" fill="url(#h-cyan)" opacity="0.4"/><circle cx="291.3" cy="544.4" r="5.6" fill="#46BDE9" opacity="0.5"/><circle cx="1305.4" cy="619.7" r="12.6" fill="url(#h-violet)" opacity="0.3"/><circle cx="1305.4" cy="619.7" r="4.5" fill="#963CBD" opacity="0.4"/><circle cx="1154.6" cy="347.2" r="14.5" fill="url(#h-violet)" opacity="0.3"/><circle cx="1154.6" cy="347.2" r="5.2" fill="#963CBD" opacity="0.4"/><circle cx="1293.6" cy="502.8" r="13.3" fill="url(#h-violet)" opacity="0.3"/><circle cx="1293.6" cy="502.8" r="4.7" fill="#963CBD" opacity="0.4"/><circle cx="1232.3" cy="497.4" r="12.7" fill="url(#h-violet)" opacity="0.3"/><circle cx="1232.3" cy="497.4" r="4.5" fill="#963CBD" opacity="0.4"/><circle cx="1844.2" cy="274.1" r="13.3" fill="url(#h-violet)" opacity="0.3"/><circle cx="1844.2" cy="274.1" r="4.8" fill="#963CBD" opacity="0.4"/><circle cx="537.6" cy="632.8" r="12.7" fill="url(#h-cyan)" opacity="0.4"/><circle cx="537.6" cy="632.8" r="4.9" fill="#46BDE9" opacity="0.5"/><circle cx="329.9" cy="441.2" r="16.6" fill="url(#h-cyan)" opacity="0.4"/><circle cx="329.9" cy="441.2" r="6.4" fill="#46BDE9" opacity="0.5"/><circle cx="523.1" cy="420.8" r="16.3" fill="url(#h-cyan)" opacity="0.4"/><circle cx="523.1" cy="420.8" r="6.3" fill="#46BDE9" opacity="0.5"/><circle cx="144.2" cy="585" r="14.2" fill="url(#h-cyan)" opacity="0.4"/><circle cx="144.2" cy="585" r="5.4" fill="#46BDE9" opacity="0.5"/><circle cx="1252.1" cy="564.5" r="14.8" fill="url(#h-violet)" opacity="0.3"/><circle cx="1252.1" cy="564.5" r="5.3" fill="#963CBD" opacity="0.4"/><circle cx="91.8" cy="484.4" r="14.6" fill="url(#h-cyan)" opacity="0.4"/><circle cx="91.8" cy="484.4" r="5.6" fill="#46BDE9" opacity="0.5"/><circle cx="243.4" cy="280.9" r="14" fill="url(#h-cyan)" opacity="0.4"/><circle cx="243.4" cy="280.9" r="5.4" fill="#46BDE9" opacity="0.5"/><circle cx="1725" cy="389.6" r="12.4" fill="url(#h-violet)" opacity="0.3"/><circle cx="1725" cy="389.6" r="4.4" fill="#963CBD" opacity="0.4"/><circle cx="1403.8" cy="345.9" r="13.6" fill="url(#h-violet)" opacity="0.3"/><circle cx="1403.8" cy="345.9" r="4.9" fill="#963CBD" opacity="0.4"/><circle cx="341.7" cy="571.8" r="11" fill="url(#h-cyan)" opacity="0.4"/><circle cx="341.7" cy="571.8" r="4.2" fill="#46BDE9" opacity="0.5"/><circle cx="178.3" cy="303.2" r="16.5" fill="url(#h-cyan)" opacity="0.4"/><circle cx="178.3" cy="303.2" r="6.4" fill="#46BDE9" opacity="0.5"/><circle cx="245.8" cy="596.7" r="12.4" fill="url(#h-cyan)" opacity="0.4"/><circle cx="245.8" cy="596.7" r="4.8" fill="#46BDE9" opacity="0.5"/><circle cx="1319.1" cy="312.6" r="13.8" fill="url(#h-violet)" opacity="0.3"/><circle cx="1319.1" cy="312.6" r="4.9" fill="#963CBD" opacity="0.4"/><circle cx="313.7" cy="281.4" r="16" fill="url(#h-cyan)" opacity="0.4"/><circle cx="313.7" cy="281.4" r="6.2" fill="#46BDE9" opacity="0.5"/><circle cx="1616.5" cy="500.4" r="10.8" fill="url(#h-violet)" opacity="0.3"/><circle cx="1616.5" cy="500.4" r="3.8" fill="#963CBD" opacity="0.4"/><circle cx="617.8" cy="796.8" r="15.3" fill="url(#h-cyan)" opacity="0.4"/><circle cx="617.8" cy="796.8" r="5.9" fill="#46BDE9" opacity="0.5"/><circle cx="736.6" cy="553.1" r="11.5" fill="url(#h-cyan)" opacity="0.4"/><circle cx="736.6" cy="553.1" r="4.4" fill="#46BDE9" opacity="0.5"/><circle cx="480.7" cy="660.3" r="12.5" fill="url(#h-cyan)" opacity="0.4"/><circle cx="480.7" cy="660.3" r="4.8" fill="#46BDE9" opacity="0.5"/><circle cx="692.5" cy="430.4" r="16.9" fill="url(#h-cyan)" opacity="0.4"/><circle cx="692.5" cy="430.4" r="6.5" fill="#46BDE9" opacity="0.5"/><circle cx="87.8" cy="280.2" r="11" fill="url(#h-cyan)" opacity="0.4"/><circle cx="87.8" cy="280.2" r="4.2" fill="#46BDE9" opacity="0.5"/><circle cx="1701.5" cy="554.6" r="12.2" fill="url(#h-violet)" opacity="0.3"/><circle cx="1701.5" cy="554.6" r="4.3" fill="#963CBD" opacity="0.4"/><circle cx="1743.2" cy="481.1" r="14" fill="url(#h-violet)" opacity="0.3"/><circle cx="1743.2" cy="481.1" r="5" fill="#963CBD" opacity="0.4"/><circle cx="1357.9" cy="340.5" r="12.9" fill="url(#h-violet)" opacity="0.3"/><circle cx="1357.9" cy="340.5" r="4.6" fill="#963CBD" opacity="0.4"/><circle cx="505.8" cy="504.2" r="16.5" fill="url(#h-cyan)" opacity="0.4"/><circle cx="505.8" cy="504.2" r="6.3" fill="#46BDE9" opacity="0.5"/><circle cx="625.2" cy="317.8" r="16.6" fill="url(#h-cyan)" opacity="0.4"/><circle cx="625.2" cy="317.8" r="6.4" fill="#46BDE9" opacity="0.5"/><circle cx="1144.8" cy="490.4" r="14.3" fill="url(#h-violet)" opacity="0.3"/><circle cx="1144.8" cy="490.4" r="5.1" fill="#963CBD" opacity="0.4"/><circle cx="1200.8" cy="577.7" r="10.1" fill="url(#h-violet)" opacity="0.3"/><circle cx="1200.8" cy="577.7" r="3.6" fill="#963CBD" opacity="0.4"/><circle cx="1605.7" cy="794.7" r="10.1" fill="url(#h-violet)" opacity="0.3"/><circle cx="1605.7" cy="794.7" r="3.6" fill="#963CBD" opacity="0.4"/><circle cx="1809.1" cy="711" r="12.8" fill="url(#h-violet)" opacity="0.3"/><circle cx="1809.1" cy="711" r="4.6" fill="#963CBD" opacity="0.4"/><circle cx="128.9" cy="743.5" r="16.7" fill="url(#h-cyan)" opacity="0.4"/><circle cx="128.9" cy="743.5" r="6.4" fill="#46BDE9" opacity="0.5"/><circle cx="1749.5" cy="796.3" r="14.8" fill="url(#h-violet)" opacity="0.3"/><circle cx="1749.5" cy="796.3" r="5.3" fill="#963CBD" opacity="0.4"/><circle cx="761.1" cy="436.8" r="16.5" fill="url(#h-cyan)" opacity="0.4"/><circle cx="761.1" cy="436.8" r="6.3" fill="#46BDE9" opacity="0.5"/><circle cx="1579.5" cy="733.5" r="12.1" fill="url(#h-violet)" opacity="0.3"/><circle cx="1579.5" cy="733.5" r="4.3" fill="#963CBD" opacity="0.4"/><circle cx="668.4" cy="358.2" r="14.9" fill="url(#h-cyan)" opacity="0.4"/><circle cx="668.4" cy="358.2" r="5.7" fill="#46BDE9" opacity="0.5"/><circle cx="1857.5" cy="712.9" r="13.6" fill="url(#h-violet)" opacity="0.3"/><circle cx="1857.5" cy="712.9" r="4.9" fill="#963CBD" opacity="0.4"/><circle cx="1491.4" cy="446.9" r="12.4" fill="url(#h-violet)" opacity="0.3"/><circle cx="1491.4" cy="446.9" r="4.4" fill="#963CBD" opacity="0.4"/><circle cx="746.3" cy="485" r="14.4" fill="url(#h-cyan)" opacity="0.4"/><circle cx="746.3" cy="485" r="5.5" fill="#46BDE9" opacity="0.5"/><circle cx="55.3" cy="656.1" r="12.6" fill="url(#h-cyan)" opacity="0.4"/><circle cx="55.3" cy="656.1" r="4.9" fill="#46BDE9" opacity="0.5"/><circle cx="201" cy="424" r="16.4" fill="url(#h-cyan)" opacity="0.4"/><circle cx="201" cy="424" r="6.3" fill="#46BDE9" opacity="0.5"/><circle cx="1482.8" cy="774.5" r="11.8" fill="url(#h-violet)" opacity="0.3"/><circle cx="1482.8" cy="774.5" r="4.2" fill="#963CBD" opacity="0.4"/><circle cx="629.6" cy="511.6" r="13.5" fill="url(#h-cyan)" opacity="0.4"/><circle cx="629.6" cy="511.6" r="5.2" fill="#46BDE9" opacity="0.5"/><circle cx="1350.1" cy="495.9" r="12.3" fill="url(#h-violet)" opacity="0.3"/><circle cx="1350.1" cy="495.9" r="4.4" fill="#963CBD" opacity="0.4"/><circle cx="1713.4" cy="303.4" r="14.8" fill="url(#h-violet)" opacity="0.3"/><circle cx="1713.4" cy="303.4" r="5.3" fill="#963CBD" opacity="0.4"/><circle cx="1466.2" cy="705.5" r="12.3" fill="url(#h-violet)" opacity="0.3"/><circle cx="1466.2" cy="705.5" r="4.4" fill="#963CBD" opacity="0.4"/><circle cx="718.8" cy="349.7" r="16" fill="url(#h-cyan)" opacity="0.4"/><circle cx="718.8" cy="349.7" r="6.2" fill="#46BDE9" opacity="0.5"/><circle cx="1817.2" cy="371.1" r="10.6" fill="url(#h-violet)" opacity="0.3"/><circle cx="1817.2" cy="371.1" r="3.8" fill="#963CBD" opacity="0.4"/><circle cx="1554.6" cy="461.7" r="10" fill="url(#h-violet)" opacity="0.3"/><circle cx="1554.6" cy="461.7" r="3.6" fill="#963CBD" opacity="0.4"/><circle cx="606.1" cy="462.9" r="15.1" fill="url(#h-cyan)" opacity="0.4"/><circle cx="606.1" cy="462.9" r="5.8" fill="#46BDE9" opacity="0.5"/><circle cx="56.5" cy="753.1" r="11.6" fill="url(#h-cyan)" opacity="0.4"/><circle cx="56.5" cy="753.1" r="4.5" fill="#46BDE9" opacity="0.5"/><circle cx="1828.1" cy="488" r="15" fill="url(#h-violet)" opacity="0.3"/><circle cx="1828.1" cy="488" r="5.4" fill="#963CBD" opacity="0.4"/><circle cx="1455.6" cy="333.9" r="12.9" fill="url(#h-violet)" opacity="0.3"/><circle cx="1455.6" cy="333.9" r="4.6" fill="#963CBD" opacity="0.4"/><circle cx="1226" cy="632" r="12.2" fill="url(#h-violet)" opacity="0.3"/><circle cx="1226" cy="632" r="4.4" fill="#963CBD" opacity="0.4"/><circle cx="375.3" cy="799.2" r="11.3" fill="url(#h-cyan)" opacity="0.4"/><circle cx="375.3" cy="799.2" r="4.3" fill="#46BDE9" opacity="0.5"/><circle cx="1217.4" cy="282.9" r="15.3" fill="url(#h-violet)" opacity="0.3"/><circle cx="1217.4" cy="282.9" r="5.5" fill="#963CBD" opacity="0.4"/><circle cx="676" cy="268.7" r="16.7" fill="url(#h-cyan)" opacity="0.4"/><circle cx="676" cy="268.7" r="6.4" fill="#46BDE9" opacity="0.5"/><circle cx="560.9" cy="764.5" r="11.2" fill="url(#h-cyan)" opacity="0.4"/><circle cx="560.9" cy="764.5" r="4.3" fill="#46BDE9" opacity="0.5"/><circle cx="1457" cy="559.2" r="9.9" fill="url(#h-violet)" opacity="0.3"/><circle cx="1457" cy="559.2" r="3.5" fill="#963CBD" opacity="0.4"/><circle cx="99.4" cy="617.4" r="14.1" fill="url(#h-cyan)" opacity="0.4"/><circle cx="99.4" cy="617.4" r="5.4" fill="#46BDE9" opacity="0.5"/><circle cx="415.7" cy="521.5" r="11.7" fill="url(#h-cyan)" opacity="0.4"/><circle cx="415.7" cy="521.5" r="4.5" fill="#46BDE9" opacity="0.5"/><circle cx="455.1" cy="579.7" r="13.1" fill="url(#h-cyan)" opacity="0.4"/><circle cx="455.1" cy="579.7" r="5" fill="#46BDE9" opacity="0.5"/><circle cx="420.8" cy="466.4" r="12" fill="url(#h-cyan)" opacity="0.4"/><circle cx="420.8" cy="466.4" r="4.6" fill="#46BDE9" opacity="0.5"/><circle cx="1663.8" cy="429.7" r="12.2" fill="url(#h-violet)" opacity="0.3"/><circle cx="1663.8" cy="429.7" r="4.4" fill="#963CBD" opacity="0.4"/><circle cx="520" cy="691" r="16.2" fill="url(#h-cyan)" opacity="0.4"/><circle cx="520" cy="691" r="6.2" fill="#46BDE9" opacity="0.5"/><circle cx="1473.2" cy="493.3" r="12.6" fill="url(#h-violet)" opacity="0.3"/><circle cx="1473.2" cy="493.3" r="4.5" fill="#963CBD" opacity="0.4"/><circle cx="1600.4" cy="583.5" r="10" fill="url(#h-violet)" opacity="0.3"/><circle cx="1600.4" cy="583.5" r="3.6" fill="#963CBD" opacity="0.4"/><circle cx="564.5" cy="491.6" r="10.4" fill="url(#h-cyan)" opacity="0.4"/><circle cx="564.5" cy="491.6" r="4" fill="#46BDE9" opacity="0.5"/><circle cx="1377.7" cy="670.7" r="13.3" fill="url(#h-violet)" opacity="0.3"/><circle cx="1377.7" cy="670.7" r="4.7" fill="#963CBD" opacity="0.4"/><circle cx="1829.3" cy="753.4" r="14" fill="url(#h-violet)" opacity="0.3"/><circle cx="1829.3" cy="753.4" r="5" fill="#963CBD" opacity="0.4"/><circle cx="1298.3" cy="268.8" r="14.4" fill="url(#h-violet)" opacity="0.3"/><circle cx="1298.3" cy="268.8" r="5.1" fill="#963CBD" opacity="0.4"/><circle cx="1530.9" cy="790.9" r="11.5" fill="url(#h-violet)" opacity="0.3"/><circle cx="1530.9" cy="790.9" r="4.1" fill="#963CBD" opacity="0.4"/><circle cx="1647" cy="774.1" r="10.3" fill="url(#h-violet)" opacity="0.3"/><circle cx="1647" cy="774.1" r="3.7" fill="#963CBD" opacity="0.4"/><circle cx="359.7" cy="703.6" r="12.8" fill="url(#h-cyan)" opacity="0.4"/><circle cx="359.7" cy="703.6" r="4.9" fill="#46BDE9" opacity="0.5"/><circle cx="739.8" cy="793.3" r="16.7" fill="url(#h-cyan)" opacity="0.4"/><circle cx="739.8" cy="793.3" r="6.4" fill="#46BDE9" opacity="0.5"/><circle cx="396.6" cy="425.2" r="13.7" fill="url(#h-cyan)" opacity="0.4"/><circle cx="396.6" cy="425.2" r="5.3" fill="#46BDE9" opacity="0.5"/><circle cx="719.1" cy="725.7" r="10.5" fill="url(#h-cyan)" opacity="0.4"/><circle cx="719.1" cy="725.7" r="4" fill="#46BDE9" opacity="0.5"/><circle cx="488.5" cy="389.6" r="12.5" fill="url(#h-cyan)" opacity="0.4"/><circle cx="488.5" cy="389.6" r="4.8" fill="#46BDE9" opacity="0.5"/><circle cx="1511.2" cy="630.9" r="15.2" fill="url(#h-violet)" opacity="0.3"/><circle cx="1511.2" cy="630.9" r="5.4" fill="#963CBD" opacity="0.4"/><circle cx="1477.7" cy="268.1" r="14" fill="url(#h-violet)" opacity="0.3"/><circle cx="1477.7" cy="268.1" r="5" fill="#963CBD" opacity="0.4"/><circle cx="447.8" cy="741" r="12.4" fill="url(#h-cyan)" opacity="0.4"/><circle cx="447.8" cy="741" r="4.8" fill="#46BDE9" opacity="0.5"/></g>
  <g stroke="#CCF1FF" stroke-width="3.4" opacity="0.9"><line x1="792" y1="216" x2="792" y2="852"/><line x1="1128" y1="216" x2="1128" y2="852"/></g>
  <g><circle cx="918.5" cy="405.2" r="22.7" fill="url(#h-mint)" opacity="0.7"/><circle cx="918.5" cy="405.2" r="7.1" fill="#2CD5C4" opacity="1"/><circle cx="875.9" cy="732.7" r="20.7" fill="url(#h-mint)" opacity="0.7"/><circle cx="875.9" cy="732.7" r="6.5" fill="#2CD5C4" opacity="1"/><circle cx="1003.3" cy="721.2" r="22.7" fill="url(#h-mint)" opacity="0.7"/><circle cx="1003.3" cy="721.2" r="7.1" fill="#2CD5C4" opacity="1"/><circle cx="927" cy="351" r="19.5" fill="url(#h-mint)" opacity="0.7"/><circle cx="927" cy="351" r="6.1" fill="#2CD5C4" opacity="1"/><circle cx="1105.8" cy="622.9" r="20.2" fill="url(#h-mint)" opacity="0.7"/><circle cx="1105.8" cy="622.9" r="6.3" fill="#2CD5C4" opacity="1"/><circle cx="955.5" cy="737.6" r="26.2" fill="url(#h-mint)" opacity="0.7"/><circle cx="955.5" cy="737.6" r="8.2" fill="#2CD5C4" opacity="1"/><circle cx="1081.9" cy="370.2" r="20.2" fill="url(#h-mint)" opacity="0.7"/><circle cx="1081.9" cy="370.2" r="6.3" fill="#2CD5C4" opacity="1"/><circle cx="870.4" cy="477.8" r="19.4" fill="url(#h-mint)" opacity="0.7"/><circle cx="870.4" cy="477.8" r="6.1" fill="#2CD5C4" opacity="1"/><circle cx="815.8" cy="779.8" r="19.6" fill="url(#h-mint)" opacity="0.7"/><circle cx="815.8" cy="779.8" r="6.1" fill="#2CD5C4" opacity="1"/><circle cx="1012" cy="673.2" r="26.4" fill="url(#h-mint)" opacity="0.7"/><circle cx="1012" cy="673.2" r="8.3" fill="#2CD5C4" opacity="1"/><circle cx="826.9" cy="346" r="20.8" fill="url(#h-mint)" opacity="0.7"/><circle cx="826.9" cy="346" r="6.5" fill="#2CD5C4" opacity="1"/><circle cx="906.1" cy="300.2" r="23" fill="url(#h-mint)" opacity="0.7"/><circle cx="906.1" cy="300.2" r="7.2" fill="#2CD5C4" opacity="1"/><circle cx="988.2" cy="409.8" r="26.1" fill="url(#h-mint)" opacity="0.7"/><circle cx="988.2" cy="409.8" r="8.1" fill="#2CD5C4" opacity="1"/><circle cx="951.1" cy="269.1" r="21.3" fill="url(#h-mint)" opacity="0.7"/><circle cx="951.1" cy="269.1" r="6.7" fill="#2CD5C4" opacity="1"/><circle cx="964.1" cy="509.2" r="22.2" fill="url(#h-mint)" opacity="0.7"/><circle cx="964.1" cy="509.2" r="6.9" fill="#2CD5C4" opacity="1"/><circle cx="1095.1" cy="576.8" r="21.7" fill="url(#h-mint)" opacity="0.7"/><circle cx="1095.1" cy="576.8" r="6.8" fill="#2CD5C4" opacity="1"/><circle cx="1114.5" cy="795.5" r="23.1" fill="url(#h-mint)" opacity="0.7"/><circle cx="1114.5" cy="795.5" r="7.2" fill="#2CD5C4" opacity="1"/><circle cx="983.4" cy="615.5" r="22.6" fill="url(#h-mint)" opacity="0.7"/><circle cx="983.4" cy="615.5" r="7.1" fill="#2CD5C4" opacity="1"/><circle cx="1036.4" cy="520.7" r="25.2" fill="url(#h-mint)" opacity="0.7"/><circle cx="1036.4" cy="520.7" r="7.9" fill="#2CD5C4" opacity="1"/><circle cx="1100.9" cy="520.4" r="23" fill="url(#h-mint)" opacity="0.7"/><circle cx="1100.9" cy="520.4" r="7.2" fill="#2CD5C4" opacity="1"/><circle cx="913.4" cy="521.8" r="21.9" fill="url(#h-mint)" opacity="0.7"/><circle cx="913.4" cy="521.8" r="6.8" fill="#2CD5C4" opacity="1"/><circle cx="1082.3" cy="752.7" r="26.9" fill="url(#h-mint)" opacity="0.7"/><circle cx="1082.3" cy="752.7" r="8.4" fill="#2CD5C4" opacity="1"/><circle cx="936.2" cy="620.7" r="23.5" fill="url(#h-mint)" opacity="0.7"/><circle cx="936.2" cy="620.7" r="7.3" fill="#2CD5C4" opacity="1"/><circle cx="1035.7" cy="578" r="24.1" fill="url(#h-mint)" opacity="0.7"/><circle cx="1035.7" cy="578" r="7.5" fill="#2CD5C4" opacity="1"/><circle cx="860.8" cy="588.8" r="22.7" fill="url(#h-mint)" opacity="0.7"/><circle cx="860.8" cy="588.8" r="7.1" fill="#2CD5C4" opacity="1"/><circle cx="824.4" cy="271.5" r="27.1" fill="url(#h-mint)" opacity="0.7"/><circle cx="824.4" cy="271.5" r="8.5" fill="#2CD5C4" opacity="1"/><circle cx="1033.8" cy="376.3" r="19.9" fill="url(#h-mint)" opacity="0.7"/><circle cx="1033.8" cy="376.3" r="6.2" fill="#2CD5C4" opacity="1"/><circle cx="1089.7" cy="446.3" r="21.9" fill="url(#h-mint)" opacity="0.7"/><circle cx="1089.7" cy="446.3" r="6.9" fill="#2CD5C4" opacity="1"/><circle cx="799.2" cy="508.8" r="24.8" fill="url(#h-mint)" opacity="0.7"/><circle cx="799.2" cy="508.8" r="7.8" fill="#2CD5C4" opacity="1"/><circle cx="1080.8" cy="678.9" r="26.5" fill="url(#h-mint)" opacity="0.7"/><circle cx="1080.8" cy="678.9" r="8.3" fill="#2CD5C4" opacity="1"/><circle cx="1015.5" cy="458.9" r="26.2" fill="url(#h-mint)" opacity="0.7"/><circle cx="1015.5" cy="458.9" r="8.2" fill="#2CD5C4" opacity="1"/><circle cx="827.1" cy="705.5" r="25.1" fill="url(#h-mint)" opacity="0.7"/><circle cx="827.1" cy="705.5" r="7.8" fill="#2CD5C4" opacity="1"/><circle cx="865.5" cy="374.6" r="25.3" fill="url(#h-mint)" opacity="0.7"/><circle cx="865.5" cy="374.6" r="7.9" fill="#2CD5C4" opacity="1"/><circle cx="991.8" cy="312.4" r="22.2" fill="url(#h-mint)" opacity="0.7"/><circle cx="991.8" cy="312.4" r="6.9" fill="#2CD5C4" opacity="1"/><circle cx="1074.1" cy="289.9" r="22" fill="url(#h-mint)" opacity="0.7"/><circle cx="1074.1" cy="289.9" r="6.9" fill="#2CD5C4" opacity="1"/><circle cx="1045.4" cy="630" r="25" fill="url(#h-mint)" opacity="0.7"/><circle cx="1045.4" cy="630" r="7.8" fill="#2CD5C4" opacity="1"/><circle cx="933" cy="796" r="19.5" fill="url(#h-mint)" opacity="0.7"/><circle cx="933" cy="796" r="6.1" fill="#2CD5C4" opacity="1"/></g>
  <g><line x1="200" y1="872" x2="302.5" y2="872" stroke="#2CD5C4" stroke-width="5" stroke-linecap="round" opacity="0.7"/><line x1="200" y1="861" x2="200" y2="883" stroke="#CCF1FF" stroke-width="2" opacity="0.45"/><line x1="302.5" y1="872" x2="538.2" y2="872" stroke="#2CD5C4" stroke-width="5" stroke-linecap="round" opacity="0.7"/><line x1="302.5" y1="861" x2="302.5" y2="883" stroke="#CCF1FF" stroke-width="2" opacity="0.45"/><line x1="538.2" y1="872" x2="675" y2="872" stroke="#2CD5C4" stroke-width="5" stroke-linecap="round" opacity="0.7"/><line x1="538.2" y1="861" x2="538.2" y2="883" stroke="#CCF1FF" stroke-width="2" opacity="0.45"/><line x1="675" y1="872" x2="768.9" y2="872" stroke="#2CD5C4" stroke-width="5" stroke-linecap="round" opacity="0.7"/><line x1="675" y1="861" x2="675" y2="883" stroke="#CCF1FF" stroke-width="2" opacity="0.45"/><line x1="768.9" y1="872" x2="971.5" y2="872" stroke="#CCF1FF" stroke-width="7" stroke-linecap="round" opacity="0.95"/><line x1="768.9" y1="861" x2="768.9" y2="883" stroke="#CCF1FF" stroke-width="2" opacity="0.45"/><line x1="971.5" y1="872" x2="1069.4" y2="872" stroke="#CCF1FF" stroke-width="7" stroke-linecap="round" opacity="0.95"/><line x1="971.5" y1="861" x2="971.5" y2="883" stroke="#CCF1FF" stroke-width="2" opacity="0.45"/><line x1="1069.4" y1="872" x2="1156.7" y2="872" stroke="#CCF1FF" stroke-width="7" stroke-linecap="round" opacity="0.95"/><line x1="1069.4" y1="861" x2="1069.4" y2="883" stroke="#CCF1FF" stroke-width="2" opacity="0.45"/><line x1="1156.7" y1="872" x2="1279.5" y2="872" stroke="#46BDE9" stroke-width="2.4" stroke-linecap="round" opacity="0.25"/><line x1="1156.7" y1="861" x2="1156.7" y2="883" stroke="#CCF1FF" stroke-width="2" opacity="0.16"/><line x1="1279.5" y1="872" x2="1517" y2="872" stroke="#46BDE9" stroke-width="2.4" stroke-linecap="round" opacity="0.25"/><line x1="1279.5" y1="861" x2="1279.5" y2="883" stroke="#CCF1FF" stroke-width="2" opacity="0.16"/><line x1="1517" y1="872" x2="1700.6" y2="872" stroke="#46BDE9" stroke-width="2.4" stroke-linecap="round" opacity="0.25"/><line x1="1517" y1="861" x2="1517" y2="883" stroke="#CCF1FF" stroke-width="2" opacity="0.16"/><line x1="1700.6" y1="872" x2="1720" y2="872" stroke="#46BDE9" stroke-width="2.4" stroke-linecap="round" opacity="0.25"/><line x1="1700.6" y1="861" x2="1700.6" y2="883" stroke="#CCF1FF" stroke-width="2" opacity="0.16"/></g>
  <line x1="1128" y1="854" x2="1128" y2="890" stroke="#CCF1FF" stroke-width="4" stroke-linecap="round" opacity="0.95"/>
  <path d="M 1180 857 L 1202 872 L 1180 887" fill="none" stroke="#CCF1FF" stroke-width="4" stroke-linecap="round" stroke-linejoin="round" opacity="0.75"/>
  </g>
  <g opacity="0.92"><g transform="translate(262.1 158.6) scale(0.64992)"><path d="M15.2,50l-9.4-5.9v-25L28.8,6l22.3,13.1v26.3l-22.7,12.8-7.9-4.9v-12l-4.3-2.7v-13.6l12.4-7.1,12.1,7.1v14.2l-9.6,5.4v-5.7c2.9-1.1,4.9-3.9,4.9-7.3s-3.4-7.8-7.6-7.8-7.6,3.5-7.6,7.8,2.1,6.2,4.9,7.3v10.9l2.7,1.7,16.8-9.5v-19.7l-16.6-9.8-17.1,9.8v18.5l3.6,2.3v6.8ZM28.5,28.1c1.9,0,3.4,1.6,3.4,3.6s-1.5,3.6-3.4,3.6-3.4-1.6-3.4-3.6,1.5-3.6,3.4-3.6Z" fill="#FFFFFF" fill-rule="evenodd"/><path d="M85.2,11.4l-12.1,33.8h-4l-12.1-33.8h4.1l7.9,22.3c.3.9.6,1.8.9,2.6.3.8.5,1.6.7,2.4.2.8.4,1.5.5,2.2.2-.7.3-1.4.5-2.2.2-.8.4-1.6.7-2.4.3-.8.6-1.7.9-2.6l7.9-22.2h4.2Z" fill="#FFFFFF"/><path d="M94,19.5c3,0,5.3.7,6.7,2,1.5,1.4,2.2,3.5,2.2,6.5v17.2h-2.8l-.7-3.7h-.2c-.7.9-1.4,1.7-2.2,2.3-.8.6-1.7,1.1-2.7,1.4-1,.3-2.2.5-3.7.5s-2.9-.3-4.1-.8c-1.2-.5-2.1-1.4-2.8-2.5-.7-1.1-1-2.5-1-4.2,0-2.5,1-4.5,3-5.8,2-1.4,5.1-2.1,9.2-2.2l4.4-.2v-1.5c0-2.2-.5-3.7-1.4-4.6-.9-.9-2.3-1.3-4-1.3-1.3,0-2.6.2-3.8.6-1.2.4-2.3.8-3.4,1.4l-1.2-2.9c1.1-.6,2.5-1.1,3.9-1.5,1.5-.4,3-.6,4.7-.6h0ZM99.1,32.8l-3.9.2c-3.2.1-5.4.6-6.7,1.5s-1.9,2.2-1.9,3.9.4,2.5,1.3,3.2c.9.7,2,1,3.5,1,2.3,0,4.1-.6,5.5-1.9s2.2-3.1,2.2-5.6v-2.3Z" fill="#FFFFFF"/><path d="M112.1,45.3h-3.9V9.3h3.9v36Z" fill="#FFFFFF"/><path d="M121.3,9.3v18.7c0,.6,0,1.4,0,2.3,0,.9,0,1.7-.1,2.3h.2c.3-.4.8-1,1.4-1.8.6-.8,1.2-1.4,1.6-1.9l8.4-9h4.5l-10.2,10.8,10.9,14.5h-4.6l-9-12-3.1,2.8v9.2h-3.8V9.3h3.8Z" fill="#FFFFFF"/><path d="M148.2,19.4c2.2,0,4,.5,5.6,1.4,1.5,1,2.7,2.3,3.5,4,.8,1.7,1.2,3.7,1.2,6v2.4h-17.5c0,3,.8,5.2,2.2,6.8s3.5,2.3,6.1,2.3,3-.1,4.3-.4c1.2-.3,2.5-.7,3.8-1.3v3.4c-1.3.6-2.6,1-3.8,1.2-1.2.3-2.7.4-4.4.4-2.4,0-4.6-.5-6.4-1.5-1.8-1-3.2-2.5-4.2-4.4-1-1.9-1.5-4.3-1.5-7.1,0-2.7.5-5.1,1.4-7.1.9-2,2.2-3.5,3.9-4.6,1.7-1.1,3.7-1.6,5.9-1.6h0ZM148.2,22.6c-2.1,0-3.7.7-4.9,2-1.2,1.3-1.9,3.2-2.2,5.6h13.4c0-1.5-.3-2.8-.7-4-.4-1.2-1.1-2.1-2.1-2.7-.9-.6-2.1-1-3.6-1Z" fill="#FFFFFF"/><path d="M158.4,19.9h4.1l5.6,14.7c.3.9.6,1.7.9,2.5.3.8.5,1.5.7,2.3.2.7.4,1.4.5,2.1h.2c.2-.8.5-1.8.9-3,.4-1.3.8-2.6,1.3-3.9l5.3-14.7h4.1l-11,29.1c-.6,1.6-1.3,2.9-2.1,4.1-.8,1.2-1.7,2-2.8,2.7-1.1.6-2.5.9-4,.9s-1.4,0-1.9-.1c-.6,0-1-.2-1.4-.3v-3.1c.3,0,.7.1,1.2.2.5,0,1,0,1.5,0,1,0,1.8-.2,2.5-.6.7-.4,1.3-.9,1.8-1.6.5-.7.9-1.5,1.3-2.5l1.4-3.6-10.2-25.4Z" fill="#FFFFFF"/></g></g>
  <g><rect x="281.9" y="824.3" width="397.6" height="71.4" rx="3.2" fill="#CCF1FF"/><text x="299.4" y="874.3" fill="#060A24" font-family="Helvetica Neue, Helvetica, Arial, sans-serif" font-size="49.2" font-weight="600">Keyspace scan</text></g>
  <rect width="1920" height="1080" fill="url(#vignette)"/>
  <rect width="1920" height="1080" filter="url(#grain)" opacity="0.055" style="mix-blend-mode:overlay"/>
</svg>
