<svg xmlns="http://www.w3.org/2000/svg" width="1920" height="1080" viewBox="274.3 166.3 1371.4 771.4">
  <title>Valkey large key</title>
  <desc>An even field of small key tiles with one key occupying the space of dozens of them, outlined in red and densely packed with elements, representing a single key far larger than the rest of the keyspace.</desc>
  <defs>
    <linearGradient id="sky" x1="0" y1="0" x2="0.32" y2="1">
      <stop offset="0" stop-color="#060A24"/>
      <stop offset="0.48" stop-color="#171043"/>
      <stop offset="1" stop-color="#301868"/>
    </linearGradient>
    <radialGradient id="focus" gradientUnits="userSpaceOnUse" cx="960" cy="550" r="900">
      <stop offset="0" stop-color="#00A3E0" stop-opacity="0.42"/>
      <stop offset="0.35" stop-color="#963CBD" stop-opacity="0.20"/>
      <stop offset="1" stop-color="#963CBD" stop-opacity="0"/>
    </radialGradient>
    <radialGradient id="vignette" gradientUnits="userSpaceOnUse" cx="960" cy="540" r="1180">
      <stop offset="0.5" stop-color="#03040F" stop-opacity="0"/>
      <stop offset="1" stop-color="#03040F" stop-opacity="0.8"/>
    </radialGradient>
    <radialGradient id="scrim">
      <stop offset="0" stop-color="#060A24" stop-opacity="0.72"/>
      <stop offset="0.6" stop-color="#060A24" stop-opacity="0.45"/>
      <stop offset="1" stop-color="#060A24" stop-opacity="0"/>
    </radialGradient>
    <filter id="grain" x="0" y="0" width="100%" height="100%">
      <feTurbulence type="fractalNoise" baseFrequency="0.85" numOctaves="4" stitchTiles="stitch"/>
      <feColorMatrix type="saturate" values="0"/>
    </filter>
    <radialGradient id="h-cyan"><stop offset="0" stop-color="#46BDE9" stop-opacity="0.75"/><stop offset="0.4" stop-color="#46BDE9" stop-opacity="0.22"/><stop offset="1" stop-color="#46BDE9" stop-opacity="0"/></radialGradient>
    <radialGradient id="h-ice"><stop offset="0" stop-color="#CCF1FF" stop-opacity="0.75"/><stop offset="0.4" stop-color="#CCF1FF" stop-opacity="0.22"/><stop offset="1" stop-color="#CCF1FF" stop-opacity="0"/></radialGradient>
    <radialGradient id="h-mint"><stop offset="0" stop-color="#2CD5C4" stop-opacity="0.75"/><stop offset="0.4" stop-color="#2CD5C4" stop-opacity="0.22"/><stop offset="1" stop-color="#2CD5C4" stop-opacity="0"/></radialGradient>
    <radialGradient id="h-coral"><stop offset="0" stop-color="#F65275" stop-opacity="0.75"/><stop offset="0.4" stop-color="#F65275" stop-opacity="0.22"/><stop offset="1" stop-color="#F65275" stop-opacity="0"/></radialGradient>
    <radialGradient id="h-violet"><stop offset="0" stop-color="#963CBD" stop-opacity="0.75"/><stop offset="0.4" stop-color="#963CBD" stop-opacity="0.22"/><stop offset="1" stop-color="#963CBD" stop-opacity="0"/></radialGradient>
    <radialGradient id="h-gold"><stop offset="0" stop-color="#FFB81C" stop-opacity="0.75"/><stop offset="0.4" stop-color="#FFB81C" stop-opacity="0.22"/><stop offset="1" stop-color="#FFB81C" stop-opacity="0"/></radialGradient>
    <filter id="blur3" x="-70%" y="-70%" width="240%" height="240%"><feGaussianBlur stdDeviation="3"/></filter>
    <filter id="blur8" x="-70%" y="-70%" width="240%" height="240%"><feGaussianBlur stdDeviation="8"/></filter>
    <filter id="blur18" x="-70%" y="-70%" width="240%" height="240%"><feGaussianBlur stdDeviation="18"/></filter>
    <filter id="blur40" x="-70%" y="-70%" width="240%" height="240%"><feGaussianBlur stdDeviation="40"/></filter>
  </defs>
  <rect width="1920" height="1080" fill="url(#sky)"/>
  <rect width="1920" height="1080" fill="url(#focus)"/>
  <g><circle cx="914" cy="239.7" r="2.4" fill="#CCF1FF" opacity="0.1"/><circle cx="1269.5" cy="542.1" r="0.8" fill="#CCF1FF" opacity="0.2"/><circle cx="155.4" cy="684.2" r="0.8" fill="#CCF1FF" opacity="0.2"/><circle cx="67" cy="661.8" r="1.3" fill="#CCF1FF" opacity="0.2"/><circle cx="1182.4" cy="548.2" r="1.3" fill="#CCF1FF" opacity="0.3"/><circle cx="1841.1" cy="236.9" r="1.7" fill="#CCF1FF" opacity="0.2"/><circle cx="1841.2" cy="1042.5" r="2.5" fill="#CCF1FF" opacity="0.3"/><circle cx="386.9" cy="647.2" r="1.3" fill="#CCF1FF" opacity="0.2"/><circle cx="999.5" cy="865.4" r="1.6" fill="#CCF1FF" opacity="0.2"/><circle cx="759.7" cy="118.4" r="1.3" fill="#CCF1FF" opacity="0.1"/><circle cx="1208.6" cy="151.8" r="1.6" fill="#CCF1FF" opacity="0.3"/><circle cx="547.2" cy="1045.8" r="1.1" fill="#CCF1FF" opacity="0.2"/><circle cx="1403.3" cy="630" r="2.6" fill="#CCF1FF" opacity="0.3"/><circle cx="894.1" cy="905.5" r="2.6" fill="#CCF1FF" opacity="0.3"/><circle cx="1178.6" cy="899.1" r="0.8" fill="#CCF1FF" opacity="0.3"/><circle cx="398.4" cy="156.5" r="1.8" fill="#CCF1FF" opacity="0.3"/><circle cx="1709.9" cy="109.6" r="1.6" fill="#CCF1FF" opacity="0.2"/><circle cx="1059.3" cy="824" r="1" fill="#CCF1FF" opacity="0.2"/><circle cx="763" cy="1061.7" r="2.4" fill="#CCF1FF" opacity="0.2"/><circle cx="1867.7" cy="584.6" r="2" fill="#CCF1FF" opacity="0.2"/><circle cx="142.1" cy="812.5" r="1.3" fill="#CCF1FF" opacity="0.3"/><circle cx="302.9" cy="253.3" r="2.2" fill="#CCF1FF" opacity="0.2"/><circle cx="147" cy="878.8" r="1.1" fill="#CCF1FF" opacity="0.3"/><circle cx="54.5" cy="134.5" r="2.1" fill="#CCF1FF" opacity="0.1"/><circle cx="1230.2" cy="251.3" r="2.6" fill="#CCF1FF" opacity="0.2"/><circle cx="618.2" cy="1012.5" r="2.7" fill="#CCF1FF" opacity="0.3"/><circle cx="1463.9" cy="684.2" r="2.4" fill="#CCF1FF" opacity="0.4"/><circle cx="1242.7" cy="448.9" r="2" fill="#CCF1FF" opacity="0.1"/><circle cx="1176.7" cy="896.6" r="1" fill="#CCF1FF" opacity="0.2"/><circle cx="838.4" cy="315.6" r="2.6" fill="#CCF1FF" opacity="0.3"/><circle cx="986.1" cy="439" r="1.7" fill="#CCF1FF" opacity="0.1"/><circle cx="1503.3" cy="960.2" r="1.6" fill="#CCF1FF" opacity="0.3"/><circle cx="708" cy="927.1" r="1.3" fill="#CCF1FF" opacity="0.1"/><circle cx="1655.7" cy="208.2" r="1" fill="#CCF1FF" opacity="0.3"/><circle cx="773.6" cy="90.2" r="1.4" fill="#CCF1FF" opacity="0.1"/><circle cx="1144.1" cy="960.6" r="2.2" fill="#CCF1FF" opacity="0.1"/><circle cx="627.1" cy="464.3" r="1.5" fill="#CCF1FF" opacity="0.2"/><circle cx="1166.4" cy="198.8" r="2.3" fill="#CCF1FF" opacity="0.3"/><circle cx="509.6" cy="879.5" r="2" fill="#CCF1FF" opacity="0.2"/><circle cx="1750.5" cy="657.3" r="2.5" fill="#CCF1FF" opacity="0.3"/><circle cx="1522.8" cy="1073.4" r="2.3" fill="#CCF1FF" opacity="0.3"/><circle cx="64" cy="747.6" r="2.2" fill="#CCF1FF" opacity="0.2"/><circle cx="1239" cy="985.1" r="1.4" fill="#CCF1FF" opacity="0.3"/><circle cx="178.7" cy="526.4" r="0.9" fill="#CCF1FF" opacity="0.3"/><circle cx="904" cy="601.6" r="2.2" fill="#CCF1FF" opacity="0.1"/><circle cx="505.7" cy="1055.1" r="2.2" fill="#CCF1FF" opacity="0.4"/><circle cx="686.7" cy="557.4" r="1.1" fill="#CCF1FF" opacity="0.1"/><circle cx="1698.8" cy="833.1" r="1.9" fill="#CCF1FF" opacity="0.3"/><circle cx="1812.9" cy="978.7" r="2.5" fill="#CCF1FF" opacity="0.2"/><circle cx="637.1" cy="973.6" r="1.7" fill="#CCF1FF" opacity="0.4"/></g>
  <ellipse cx="960" cy="550" rx="480" ry="420" fill="url(#h-coral)" opacity="0.17"/>
  <g><rect x="140" y="250" width="61.6" height="20" rx="10" fill="#CCF1FF" opacity="0.1"/><rect x="140" y="290" width="58" height="20" rx="10" fill="#CCF1FF" opacity="0.1"/><rect x="140" y="330" width="69.4" height="20" rx="10" fill="#CCF1FF" opacity="0.1"/><rect x="140" y="370" width="59.3" height="20" rx="10" fill="#CCF1FF" opacity="0.1"/><rect x="140" y="410" width="83.7" height="20" rx="10" fill="#CCF1FF" opacity="0.2"/><rect x="140" y="450" width="60.7" height="20" rx="10" fill="#CCF1FF" opacity="0.1"/><rect x="140" y="490" width="72.8" height="20" rx="10" fill="#CCF1FF" opacity="0.1"/><rect x="140" y="530" width="75.5" height="20" rx="10" fill="#CCF1FF" opacity="0.1"/><rect x="140" y="570" width="53.4" height="20" rx="10" fill="#CCF1FF" opacity="0.2"/><rect x="140" y="610" width="76.9" height="20" rx="10" fill="#CCF1FF" opacity="0.1"/><rect x="140" y="650" width="54.7" height="20" rx="10" fill="#CCF1FF" opacity="0.1"/><rect x="140" y="690" width="85.5" height="20" rx="10" fill="#CCF1FF" opacity="0.2"/><rect x="140" y="730" width="78.7" height="20" rx="10" fill="#CCF1FF" opacity="0.1"/><rect x="140" y="770" width="56.2" height="20" rx="10" fill="#CCF1FF" opacity="0.1"/><rect x="140" y="810" width="63.5" height="20" rx="10" fill="#CCF1FF" opacity="0.1"/><rect x="140" y="850" width="85" height="20" rx="10" fill="#CCF1FF" opacity="0.1"/><rect x="258" y="250" width="62.8" height="20" rx="10" fill="#CCF1FF" opacity="0.1"/><rect x="258" y="290" width="85.3" height="20" rx="10" fill="#CCF1FF" opacity="0.2"/><rect x="258" y="330" width="57.7" height="20" rx="10" fill="#CCF1FF" opacity="0.1"/><rect x="258" y="370" width="73.2" height="20" rx="10" fill="#CCF1FF" opacity="0.1"/><rect x="258" y="410" width="77.7" height="20" rx="10" fill="#CCF1FF" opacity="0.1"/><rect x="258" y="450" width="72.5" height="20" rx="10" fill="#CCF1FF" opacity="0.1"/><rect x="258" y="490" width="84.7" height="20" rx="10" fill="#CCF1FF" opacity="0.1"/><rect x="258" y="530" width="85.5" height="20" rx="10" fill="#CCF1FF" opacity="0.1"/><rect x="258" y="570" width="77.4" height="20" rx="10" fill="#CCF1FF" opacity="0.2"/><rect x="258" y="610" width="76" height="20" rx="10" fill="#CCF1FF" opacity="0.2"/><rect x="258" y="650" width="81.7" height="20" rx="10" fill="#CCF1FF" opacity="0.2"/><rect x="258" y="690" width="67.2" height="20" rx="10" fill="#CCF1FF" opacity="0.2"/><rect x="258" y="730" width="75.2" height="20" rx="10" fill="#CCF1FF" opacity="0.1"/><rect x="258" y="770" width="76" height="20" rx="10" fill="#CCF1FF" opacity="0.2"/><rect x="258" y="810" width="69.1" height="20" rx="10" fill="#CCF1FF" opacity="0.1"/><rect x="258" y="850" width="71.7" height="20" rx="10" fill="#CCF1FF" opacity="0.2"/><rect x="376" y="250" width="62.5" height="20" rx="10" fill="#CCF1FF" opacity="0.2"/><rect x="376" y="290" width="52.4" height="20" rx="10" fill="#CCF1FF" opacity="0.2"/><rect x="376" y="330" width="60.7" height="20" rx="10" fill="#CCF1FF" opacity="0.2"/><rect x="376" y="370" width="66.5" height="20" rx="10" fill="#CCF1FF" opacity="0.1"/><rect x="376" y="410" width="69.7" height="20" rx="10" fill="#CCF1FF" opacity="0.2"/><rect x="376" y="450" width="57.3" height="20" rx="10" fill="#CCF1FF" opacity="0.1"/><rect x="376" y="490" width="65.9" height="20" rx="10" fill="#CCF1FF" opacity="0.1"/><rect x="376" y="530" width="78.3" height="20" rx="10" fill="#CCF1FF" opacity="0.1"/><rect x="376" y="570" width="77.1" height="20" rx="10" fill="#CCF1FF" opacity="0.2"/><rect x="376" y="610" width="81.6" height="20" rx="10" fill="#CCF1FF" opacity="0.1"/><rect x="376" y="650" width="73.3" height="20" rx="10" fill="#CCF1FF" opacity="0.1"/><rect x="376" y="690" width="71.9" height="20" rx="10" fill="#CCF1FF" opacity="0.2"/><rect x="376" y="730" width="70" height="20" rx="10" fill="#CCF1FF" opacity="0.1"/><rect x="376" y="770" width="53.9" height="20" rx="10" fill="#CCF1FF" opacity="0.1"/><rect x="376" y="810" width="72.8" height="20" rx="10" fill="#CCF1FF" opacity="0.2"/><rect x="376" y="850" width="64.5" height="20" rx="10" fill="#CCF1FF" opacity="0.1"/><rect x="494" y="250" width="74" height="20" rx="10" fill="#CCF1FF" opacity="0.2"/><rect x="494" y="290" width="72.8" height="20" rx="10" fill="#CCF1FF" opacity="0.1"/><rect x="494" y="330" width="79.2" height="20" rx="10" fill="#CCF1FF" opacity="0.1"/><rect x="494" y="370" width="72.1" height="20" rx="10" fill="#CCF1FF" opacity="0.1"/><rect x="494" y="410" width="78.1" height="20" rx="10" fill="#CCF1FF" opacity="0.1"/><rect x="494" y="450" width="76.2" height="20" rx="10" fill="#CCF1FF" opacity="0.2"/><rect x="494" y="490" width="66.1" height="20" rx="10" fill="#CCF1FF" opacity="0.1"/><rect x="494" y="530" width="62.6" height="20" rx="10" fill="#CCF1FF" opacity="0.1"/><rect x="494" y="570" width="61.2" height="20" rx="10" fill="#CCF1FF" opacity="0.2"/><rect x="494" y="610" width="65" height="20" rx="10" fill="#CCF1FF" opacity="0.1"/><rect x="494" y="650" width="67.8" height="20" rx="10" fill="#CCF1FF" opacity="0.1"/><rect x="494" y="690" width="78.9" height="20" rx="10" fill="#CCF1FF" opacity="0.2"/><rect x="494" y="730" width="81.4" height="20" rx="10" fill="#CCF1FF" opacity="0.1"/><rect x="494" y="770" width="59.5" height="20" rx="10" fill="#CCF1FF" opacity="0.2"/><rect x="494" y="810" width="56.4" height="20" rx="10" fill="#CCF1FF" opacity="0.1"/><rect x="494" y="850" width="68.4" height="20" rx="10" fill="#CCF1FF" opacity="0.2"/><rect x="612" y="250" width="75.7" height="20" rx="10" fill="#CCF1FF" opacity="0.1"/><rect x="612" y="770" width="57.1" height="20" rx="10" fill="#CCF1FF" opacity="0.1"/><rect x="612" y="850" width="77" height="20" rx="10" fill="#CCF1FF" opacity="0.2"/><rect x="730" y="250" width="80.7" height="20" rx="10" fill="#CCF1FF" opacity="0.1"/><rect x="730" y="850" width="61.4" height="20" rx="10" fill="#CCF1FF" opacity="0.2"/><rect x="848" y="250" width="77.3" height="20" rx="10" fill="#CCF1FF" opacity="0.1"/><rect x="848" y="850" width="85.9" height="20" rx="10" fill="#CCF1FF" opacity="0.2"/><rect x="966" y="250" width="82.5" height="20" rx="10" fill="#CCF1FF" opacity="0.1"/><rect x="966" y="850" width="60.4" height="20" rx="10" fill="#CCF1FF" opacity="0.2"/><rect x="1084" y="250" width="54.2" height="20" rx="10" fill="#CCF1FF" opacity="0.1"/><rect x="1084" y="850" width="74.8" height="20" rx="10" fill="#CCF1FF" opacity="0.2"/><rect x="1202" y="250" width="81.5" height="20" rx="10" fill="#CCF1FF" opacity="0.2"/><rect x="1202" y="850" width="77.5" height="20" rx="10" fill="#CCF1FF" opacity="0.2"/><rect x="1320" y="250" width="81.3" height="20" rx="10" fill="#CCF1FF" opacity="0.1"/><rect x="1320" y="290" width="77.3" height="20" rx="10" fill="#CCF1FF" opacity="0.1"/><rect x="1320" y="330" width="70" height="20" rx="10" fill="#CCF1FF" opacity="0.1"/><rect x="1320" y="370" width="72.5" height="20" rx="10" fill="#CCF1FF" opacity="0.2"/><rect x="1320" y="410" width="67.4" height="20" rx="10" fill="#CCF1FF" opacity="0.2"/><rect x="1320" y="450" width="78.3" height="20" rx="10" fill="#CCF1FF" opacity="0.1"/><rect x="1320" y="490" width="76.7" height="20" rx="10" fill="#CCF1FF" opacity="0.2"/><rect x="1320" y="530" width="76.7" height="20" rx="10" fill="#CCF1FF" opacity="0.2"/><rect x="1320" y="570" width="61.7" height="20" rx="10" fill="#CCF1FF" opacity="0.1"/><rect x="1320" y="610" width="55.2" height="20" rx="10" fill="#CCF1FF" opacity="0.2"/><rect x="1320" y="650" width="85.5" height="20" rx="10" fill="#CCF1FF" opacity="0.2"/><rect x="1320" y="690" width="66.1" height="20" rx="10" fill="#CCF1FF" opacity="0.1"/><rect x="1320" y="730" width="62.8" height="20" rx="10" fill="#CCF1FF" opacity="0.2"/><rect x="1320" y="770" width="76.3" height="20" rx="10" fill="#CCF1FF" opacity="0.2"/><rect x="1320" y="810" width="55.2" height="20" rx="10" fill="#CCF1FF" opacity="0.1"/><rect x="1320" y="850" width="65.1" height="20" rx="10" fill="#CCF1FF" opacity="0.1"/><rect x="1438" y="250" width="70.5" height="20" rx="10" fill="#CCF1FF" opacity="0.1"/><rect x="1438" y="290" width="52.7" height="20" rx="10" fill="#CCF1FF" opacity="0.1"/><rect x="1438" y="330" width="73.3" height="20" rx="10" fill="#CCF1FF" opacity="0.1"/><rect x="1438" y="370" width="63.8" height="20" rx="10" fill="#CCF1FF" opacity="0.2"/><rect x="1438" y="410" width="75.3" height="20" rx="10" fill="#CCF1FF" opacity="0.1"/><rect x="1438" y="450" width="57.7" height="20" rx="10" fill="#CCF1FF" opacity="0.1"/><rect x="1438" y="490" width="55.2" height="20" rx="10" fill="#CCF1FF" opacity="0.1"/><rect x="1438" y="530" width="61.8" height="20" rx="10" fill="#CCF1FF" opacity="0.1"/><rect x="1438" y="570" width="61.5" height="20" rx="10" fill="#CCF1FF" opacity="0.1"/><rect x="1438" y="610" width="67.1" height="20" rx="10" fill="#CCF1FF" opacity="0.1"/><rect x="1438" y="650" width="84.5" height="20" rx="10" fill="#CCF1FF" opacity="0.1"/><rect x="1438" y="690" width="64.5" height="20" rx="10" fill="#CCF1FF" opacity="0.1"/><rect x="1438" y="730" width="75.4" height="20" rx="10" fill="#CCF1FF" opacity="0.1"/><rect x="1438" y="770" width="52.9" height="20" rx="10" fill="#CCF1FF" opacity="0.2"/><rect x="1438" y="810" width="78.6" height="20" rx="10" fill="#CCF1FF" opacity="0.1"/><rect x="1438" y="850" width="52.2" height="20" rx="10" fill="#CCF1FF" opacity="0.2"/><rect x="1556" y="250" width="65.6" height="20" rx="10" fill="#CCF1FF" opacity="0.2"/><rect x="1556" y="290" width="82.5" height="20" rx="10" fill="#CCF1FF" opacity="0.1"/><rect x="1556" y="330" width="69.1" height="20" rx="10" fill="#CCF1FF" opacity="0.2"/><rect x="1556" y="370" width="69.6" height="20" rx="10" fill="#CCF1FF" opacity="0.1"/><rect x="1556" y="410" width="67.8" height="20" rx="10" fill="#CCF1FF" opacity="0.1"/><rect x="1556" y="450" width="83" height="20" rx="10" fill="#CCF1FF" opacity="0.2"/><rect x="1556" y="490" width="67.6" height="20" rx="10" fill="#CCF1FF" opacity="0.1"/><rect x="1556" y="530" width="54.3" height="20" rx="10" fill="#CCF1FF" opacity="0.1"/><rect x="1556" y="570" width="70.1" height="20" rx="10" fill="#CCF1FF" opacity="0.2"/><rect x="1556" y="610" width="84.2" height="20" rx="10" fill="#CCF1FF" opacity="0.1"/><rect x="1556" y="650" width="81.5" height="20" rx="10" fill="#CCF1FF" opacity="0.1"/><rect x="1556" y="690" width="64.1" height="20" rx="10" fill="#CCF1FF" opacity="0.2"/><rect x="1556" y="730" width="58.1" height="20" rx="10" fill="#CCF1FF" opacity="0.1"/><rect x="1556" y="770" width="74.4" height="20" rx="10" fill="#CCF1FF" opacity="0.1"/><rect x="1556" y="810" width="71.8" height="20" rx="10" fill="#CCF1FF" opacity="0.1"/><rect x="1556" y="850" width="72.3" height="20" rx="10" fill="#CCF1FF" opacity="0.1"/><rect x="1674" y="250" width="77.4" height="20" rx="10" fill="#CCF1FF" opacity="0.1"/><rect x="1674" y="290" width="61.6" height="20" rx="10" fill="#CCF1FF" opacity="0.1"/><rect x="1674" y="330" width="52.1" height="20" rx="10" fill="#CCF1FF" opacity="0.2"/><rect x="1674" y="370" width="56.5" height="20" rx="10" fill="#CCF1FF" opacity="0.1"/><rect x="1674" y="410" width="84" height="20" rx="10" fill="#CCF1FF" opacity="0.1"/><rect x="1674" y="450" width="54.6" height="20" rx="10" fill="#CCF1FF" opacity="0.2"/><rect x="1674" y="490" width="62.4" height="20" rx="10" fill="#CCF1FF" opacity="0.1"/><rect x="1674" y="530" width="70.7" height="20" rx="10" fill="#CCF1FF" opacity="0.1"/><rect x="1674" y="570" width="63.2" height="20" rx="10" fill="#CCF1FF" opacity="0.2"/><rect x="1674" y="610" width="71.6" height="20" rx="10" fill="#CCF1FF" opacity="0.1"/><rect x="1674" y="650" width="62.5" height="20" rx="10" fill="#CCF1FF" opacity="0.1"/><rect x="1674" y="690" width="70.5" height="20" rx="10" fill="#CCF1FF" opacity="0.1"/><rect x="1674" y="730" width="77.7" height="20" rx="10" fill="#CCF1FF" opacity="0.1"/><rect x="1674" y="770" width="74.6" height="20" rx="10" fill="#CCF1FF" opacity="0.2"/><rect x="1674" y="810" width="52.1" height="20" rx="10" fill="#CCF1FF" opacity="0.1"/><rect x="1674" y="850" width="76.8" height="20" rx="10" fill="#CCF1FF" opacity="0.1"/><rect x="1792" y="250" width="70.6" height="20" rx="10" fill="#CCF1FF" opacity="0.2"/><rect x="1792" y="290" width="53.5" height="20" rx="10" fill="#CCF1FF" opacity="0.1"/><rect x="1792" y="330" width="70.9" height="20" rx="10" fill="#CCF1FF" opacity="0.2"/><rect x="1792" y="370" width="56.4" height="20" rx="10" fill="#CCF1FF" opacity="0.1"/><rect x="1792" y="410" width="81.5" height="20" rx="10" fill="#CCF1FF" opacity="0.1"/><rect x="1792" y="450" width="58.3" height="20" rx="10" fill="#CCF1FF" opacity="0.1"/><rect x="1792" y="490" width="80.1" height="20" rx="10" fill="#CCF1FF" opacity="0.1"/><rect x="1792" y="530" width="59.8" height="20" rx="10" fill="#CCF1FF" opacity="0.1"/><rect x="1792" y="570" width="67.3" height="20" rx="10" fill="#CCF1FF" opacity="0.1"/><rect x="1792" y="610" width="54.2" height="20" rx="10" fill="#CCF1FF" opacity="0.1"/><rect x="1792" y="650" width="61.2" height="20" rx="10" fill="#CCF1FF" opacity="0.1"/><rect x="1792" y="690" width="77.8" height="20" rx="10" fill="#CCF1FF" opacity="0.2"/><rect x="1792" y="730" width="63.2" height="20" rx="10" fill="#CCF1FF" opacity="0.1"/><rect x="1792" y="770" width="86" height="20" rx="10" fill="#CCF1FF" opacity="0.1"/><rect x="1792" y="810" width="65.1" height="20" rx="10" fill="#CCF1FF" opacity="0.2"/><rect x="1792" y="850" width="82.5" height="20" rx="10" fill="#CCF1FF" opacity="0.1"/></g>
  <rect x="700" y="300" width="520" height="500" rx="34" fill="#060A24" opacity="0.4"/>
  <rect x="700" y="300" width="520" height="500" rx="34" fill="#F65275" opacity="0.07"/>
  <g><rect x="732.2" y="324" width="145.1" height="10" rx="5" fill="#F65275" opacity="0.5"/><rect x="920.1" y="324" width="134.6" height="10" rx="5" fill="#F65275" opacity="0.7"/><rect x="1093.1" y="324" width="68.6" height="10" rx="5" fill="#F65275" opacity="0.7"/><rect x="734.1" y="344" width="130.7" height="10" rx="5" fill="#F65275" opacity="0.6"/><rect x="908.3" y="344" width="62.5" height="10" rx="5" fill="#F65275" opacity="0.6"/><rect x="993.9" y="344" width="100.9" height="10" rx="5" fill="#F65275" opacity="0.6"/><rect x="747.4" y="364" width="131.8" height="10" rx="5" fill="#F65275" opacity="0.4"/><rect x="915.4" y="364" width="152.1" height="10" rx="5" fill="#F65275" opacity="0.4"/><rect x="1084.4" y="364" width="66.3" height="10" rx="5" fill="#F65275" opacity="0.6"/><rect x="742.1" y="384" width="151.5" height="10" rx="5" fill="#F65275" opacity="0.6"/><rect x="925.7" y="384" width="102.7" height="10" rx="5" fill="#F65275" opacity="0.4"/><rect x="1067.4" y="384" width="56.7" height="10" rx="5" fill="#F65275" opacity="0.4"/><rect x="729.1" y="404" width="142.2" height="10" rx="5" fill="#F65275" opacity="0.6"/><rect x="901.2" y="404" width="135.2" height="10" rx="5" fill="#F65275" opacity="0.6"/><rect x="1058.4" y="404" width="64.4" height="10" rx="5" fill="#F65275" opacity="0.6"/><rect x="734" y="424" width="96.9" height="10" rx="5" fill="#F65275" opacity="0.4"/><rect x="867.9" y="424" width="144.5" height="10" rx="5" fill="#F65275" opacity="0.6"/><rect x="1055.4" y="424" width="112.6" height="10" rx="5" fill="#F65275" opacity="0.4"/><rect x="730.7" y="444" width="143.4" height="10" rx="5" fill="#F65275" opacity="0.7"/><rect x="893.9" y="444" width="134.1" height="10" rx="5" fill="#F65275" opacity="0.5"/><rect x="1070.7" y="444" width="81.8" height="10" rx="5" fill="#F65275" opacity="0.6"/><rect x="734.1" y="464" width="136.6" height="10" rx="5" fill="#F65275" opacity="0.4"/><rect x="914" y="464" width="167.3" height="10" rx="5" fill="#F65275" opacity="0.6"/><rect x="746.9" y="484" width="98.6" height="10" rx="5" fill="#F65275" opacity="0.6"/><rect x="866.5" y="484" width="131.3" height="10" rx="5" fill="#F65275" opacity="0.6"/><rect x="1015.4" y="484" width="84.1" height="10" rx="5" fill="#F65275" opacity="0.6"/><rect x="730.5" y="504" width="131.4" height="10" rx="5" fill="#F65275" opacity="0.6"/><rect x="896" y="504" width="162.2" height="10" rx="5" fill="#F65275" opacity="0.7"/><rect x="739.1" y="524" width="123.7" height="10" rx="5" fill="#F65275" opacity="0.5"/><rect x="902" y="524" width="111.5" height="10" rx="5" fill="#F65275" opacity="0.4"/><rect x="1048.8" y="524" width="122.5" height="10" rx="5" fill="#F65275" opacity="0.5"/><rect x="734.6" y="544" width="45.3" height="10" rx="5" fill="#F65275" opacity="0.4"/><rect x="797.5" y="544" width="162.2" height="10" rx="5" fill="#F65275" opacity="0.6"/><rect x="987.5" y="544" width="80.3" height="10" rx="5" fill="#F65275" opacity="0.6"/><rect x="728.5" y="564" width="63.1" height="10" rx="5" fill="#F65275" opacity="0.6"/><rect x="834.7" y="564" width="112.7" height="10" rx="5" fill="#F65275" opacity="0.4"/><rect x="970.5" y="564" width="47.5" height="10" rx="5" fill="#F65275" opacity="0.4"/><rect x="1045.2" y="564" width="50.2" height="10" rx="5" fill="#F65275" opacity="0.4"/><rect x="740.6" y="584" width="125.1" height="10" rx="5" fill="#F65275" opacity="0.6"/><rect x="888.1" y="584" width="155.4" height="10" rx="5" fill="#F65275" opacity="0.4"/><rect x="1067.1" y="584" width="67.4" height="10" rx="5" fill="#F65275" opacity="0.7"/><rect x="744" y="604" width="163.1" height="10" rx="5" fill="#F65275" opacity="0.6"/><rect x="941" y="604" width="136.3" height="10" rx="5" fill="#F65275" opacity="0.5"/><rect x="747.8" y="624" width="138.7" height="10" rx="5" fill="#F65275" opacity="0.6"/><rect x="914.6" y="624" width="66.9" height="10" rx="5" fill="#F65275" opacity="0.4"/><rect x="1018.8" y="624" width="125.3" height="10" rx="5" fill="#F65275" opacity="0.5"/><rect x="727.3" y="644" width="154.9" height="10" rx="5" fill="#F65275" opacity="0.4"/><rect x="907.9" y="644" width="60.6" height="10" rx="5" fill="#F65275" opacity="0.4"/><rect x="985.6" y="644" width="98.8" height="10" rx="5" fill="#F65275" opacity="0.4"/><rect x="743.3" y="664" width="82" height="10" rx="5" fill="#F65275" opacity="0.6"/><rect x="845.9" y="664" width="167.1" height="10" rx="5" fill="#F65275" opacity="0.5"/><rect x="1043.4" y="664" width="49.9" height="10" rx="5" fill="#F65275" opacity="0.4"/><rect x="740.4" y="684" width="64.5" height="10" rx="5" fill="#F65275" opacity="0.7"/><rect x="848.3" y="684" width="81.4" height="10" rx="5" fill="#F65275" opacity="0.6"/><rect x="944.3" y="684" width="129.3" height="10" rx="5" fill="#F65275" opacity="0.4"/><rect x="1110.2" y="684" width="47.3" height="10" rx="5" fill="#F65275" opacity="0.7"/><rect x="744.8" y="704" width="50.9" height="10" rx="5" fill="#F65275" opacity="0.4"/><rect x="817.2" y="704" width="147" height="10" rx="5" fill="#F65275" opacity="0.4"/><rect x="989" y="704" width="85.8" height="10" rx="5" fill="#F65275" opacity="0.4"/><rect x="731.5" y="724" width="164.1" height="10" rx="5" fill="#F65275" opacity="0.3"/><rect x="914.2" y="724" width="92.2" height="10" rx="5" fill="#F65275" opacity="0.6"/><rect x="1046.5" y="724" width="54.3" height="10" rx="5" fill="#F65275" opacity="0.5"/><rect x="729" y="744" width="63.4" height="10" rx="5" fill="#F65275" opacity="0.4"/><rect x="824.4" y="744" width="44.5" height="10" rx="5" fill="#F65275" opacity="0.6"/><rect x="901.7" y="744" width="102.8" height="10" rx="5" fill="#F65275" opacity="0.3"/><rect x="732.4" y="764" width="123.8" height="10" rx="5" fill="#F65275" opacity="0.6"/><rect x="874.1" y="764" width="163.1" height="10" rx="5" fill="#F65275" opacity="0.4"/><rect x="1052.3" y="764" width="56.5" height="10" rx="5" fill="#F65275" opacity="0.6"/><rect x="731.4" y="784" width="64.1" height="10" rx="5" fill="#F65275" opacity="0.5"/><rect x="812.7" y="784" width="55.4" height="10" rx="5" fill="#F65275" opacity="0.4"/><rect x="895.9" y="784" width="111.2" height="10" rx="5" fill="#F65275" opacity="0.6"/><rect x="1029.8" y="784" width="133.2" height="10" rx="5" fill="#F65275" opacity="0.5"/></g>
  <rect x="700" y="300" width="520" height="500" rx="34" fill="none" stroke="#F65275" stroke-width="14" opacity="0.3" filter="url(#blur18)"/>
  <rect x="700" y="300" width="520" height="500" rx="34" fill="none" stroke="#F65275" stroke-width="3.6" opacity="0.92"/>
  <rect width="1920" height="1080" fill="url(#vignette)"/>
  <rect width="1920" height="1080" filter="url(#grain)" opacity="0.055" style="mix-blend-mode:overlay"/>
</svg>
