<svg xmlns="http://www.w3.org/2000/svg" width="1920" height="1080" viewBox="28 15.7 1864.1 1048.5">
  <title>Valkey in a tight resource envelope</title>
  <desc>A small bright box packed edge to edge with work around the white Valkey hexagon mark, pushing outward on all four walls, set inside two much larger dashed outlines, representing a full server running in far less space than usual. The title "Valkey in a tight resource envelope" is set on solid light blocks in the lower left.</desc>
  <defs>
    <linearGradient id="sky" x1="0" y1="0" x2="0.32" y2="1">
      <stop offset="0" stop-color="#060A24"/>
      <stop offset="0.48" stop-color="#171043"/>
      <stop offset="1" stop-color="#301868"/>
    </linearGradient>
    <radialGradient id="vignette" gradientUnits="userSpaceOnUse" cx="960" cy="540" r="1180">
      <stop offset="0.5" stop-color="#03040F" stop-opacity="0"/>
      <stop offset="1" stop-color="#03040F" stop-opacity="0.8"/>
    </radialGradient>
    <radialGradient id="scrim">
      <stop offset="0" stop-color="#060A24" stop-opacity="0.72"/>
      <stop offset="0.6" stop-color="#060A24" stop-opacity="0.45"/>
      <stop offset="1" stop-color="#060A24" stop-opacity="0"/>
    </radialGradient>
    <filter id="grain" x="0" y="0" width="100%" height="100%">
      <feTurbulence type="fractalNoise" baseFrequency="0.85" numOctaves="4" stitchTiles="stitch"/>
      <feColorMatrix type="saturate" values="0"/>
    </filter>
    <radialGradient id="h-cyan"><stop offset="0" stop-color="#46BDE9" stop-opacity="0.75"/><stop offset="0.4" stop-color="#46BDE9" stop-opacity="0.22"/><stop offset="1" stop-color="#46BDE9" stop-opacity="0"/></radialGradient>
    <radialGradient id="h-ice"><stop offset="0" stop-color="#CCF1FF" stop-opacity="0.75"/><stop offset="0.4" stop-color="#CCF1FF" stop-opacity="0.22"/><stop offset="1" stop-color="#CCF1FF" stop-opacity="0"/></radialGradient>
    <radialGradient id="h-mint"><stop offset="0" stop-color="#2CD5C4" stop-opacity="0.75"/><stop offset="0.4" stop-color="#2CD5C4" stop-opacity="0.22"/><stop offset="1" stop-color="#2CD5C4" stop-opacity="0"/></radialGradient>
    <radialGradient id="h-coral"><stop offset="0" stop-color="#F65275" stop-opacity="0.75"/><stop offset="0.4" stop-color="#F65275" stop-opacity="0.22"/><stop offset="1" stop-color="#F65275" stop-opacity="0"/></radialGradient>
    <radialGradient id="h-violet"><stop offset="0" stop-color="#963CBD" stop-opacity="0.75"/><stop offset="0.4" stop-color="#963CBD" stop-opacity="0.22"/><stop offset="1" stop-color="#963CBD" stop-opacity="0"/></radialGradient>
    <radialGradient id="h-gold"><stop offset="0" stop-color="#FFB81C" stop-opacity="0.75"/><stop offset="0.4" stop-color="#FFB81C" stop-opacity="0.22"/><stop offset="1" stop-color="#FFB81C" stop-opacity="0"/></radialGradient>
    <filter id="blur3" x="-70%" y="-70%" width="240%" height="240%"><feGaussianBlur stdDeviation="3"/></filter>
    <filter id="blur8" x="-70%" y="-70%" width="240%" height="240%"><feGaussianBlur stdDeviation="8"/></filter>
    <filter id="blur18" x="-70%" y="-70%" width="240%" height="240%"><feGaussianBlur stdDeviation="18"/></filter>
    <filter id="blur40" x="-70%" y="-70%" width="240%" height="240%"><feGaussianBlur stdDeviation="40"/></filter>
  </defs>
  <rect width="1920" height="1080" fill="url(#sky)"/>

  <circle cx="960" cy="540" r="420" fill="url(#h-cyan)" opacity="0.2"/>
  <g><rect x="470" y="130" width="980" height="820" rx="28" fill="none" stroke="#CCF1FF" stroke-width="2.2" stroke-dasharray="14 20" opacity="0.5"/><rect x="570" y="230" width="780" height="620" rx="22" fill="none" stroke="#CCF1FF" stroke-width="2.2" stroke-dasharray="14 20" opacity="0.4"/></g>
  <rect x="670" y="330" width="580" height="420" rx="16" fill="none" stroke="#CCF1FF" stroke-width="15" opacity="0.28" filter="url(#blur8)"/>
  <rect x="670" y="330" width="580" height="420" rx="16" fill="#060A24" fill-opacity="0.35"/>
  <g><rect x="681" y="339" width="116.4" height="12" rx="6" fill="#2CD5C4" opacity="0.8"/><rect x="805.5" y="339" width="86.2" height="12" rx="6" fill="#2CD5C4" opacity="0.8"/><rect x="904.5" y="339" width="133.1" height="12" rx="6" fill="#2CD5C4" opacity="0.7"/><rect x="1049.9" y="339" width="110.9" height="12" rx="6" fill="#2CD5C4" opacity="0.5"/><rect x="1167.6" y="339" width="71.4" height="12" rx="6" fill="#CCF1FF" opacity="0.6"/><rect x="681" y="359" width="138.4" height="12" rx="6" fill="#2CD5C4" opacity="0.6"/><rect x="827.4" y="359" width="143.3" height="12" rx="6" fill="#2CD5C4" opacity="0.7"/><rect x="983.4" y="359" width="53.5" height="12" rx="6" fill="#2CD5C4" opacity="0.4"/><rect x="1050.3" y="359" width="137.6" height="12" rx="6" fill="#46BDE9" opacity="0.7"/><rect x="1200.2" y="359" width="38.8" height="12" rx="6" fill="#46BDE9" opacity="0.6"/><rect x="681" y="379" width="88.4" height="12" rx="6" fill="#CCF1FF" opacity="0.7"/><rect x="779.9" y="379" width="97.6" height="12" rx="6" fill="#2CD5C4" opacity="0.7"/><rect x="885.6" y="379" width="148.3" height="12" rx="6" fill="#2CD5C4" opacity="0.6"/><rect x="1042.8" y="379" width="91.2" height="12" rx="6" fill="#2CD5C4" opacity="0.7"/><rect x="1140.1" y="379" width="98.9" height="12" rx="6" fill="#CCF1FF" opacity="0.5"/><rect x="681" y="399" width="46.3" height="12" rx="6" fill="#46BDE9" opacity="0.7"/><rect x="735.1" y="399" width="140.1" height="12" rx="6" fill="#46BDE9" opacity="0.5"/><rect x="882.8" y="399" width="79" height="12" rx="6" fill="#46BDE9" opacity="0.6"/><rect x="975.7" y="399" width="55.1" height="12" rx="6" fill="#46BDE9" opacity="0.6"/><rect x="1043.1" y="399" width="92.7" height="12" rx="6" fill="#2CD5C4" opacity="0.8"/><rect x="1147.8" y="399" width="91.2" height="12" rx="6" fill="#46BDE9" opacity="0.5"/><rect x="681" y="419" width="85.1" height="12" rx="6" fill="#46BDE9" opacity="0.8"/><rect x="774.1" y="419" width="60.2" height="12" rx="6" fill="#2CD5C4" opacity="0.5"/><rect x="843.7" y="419" width="117" height="12" rx="6" fill="#46BDE9" opacity="0.7"/><rect x="972.7" y="419" width="69.2" height="12" rx="6" fill="#2CD5C4" opacity="0.5"/><rect x="1056.7" y="419" width="126.7" height="12" rx="6" fill="#2CD5C4" opacity="0.4"/><rect x="1192.7" y="419" width="46.3" height="12" rx="6" fill="#2CD5C4" opacity="0.4"/><rect x="681" y="439" width="143.2" height="12" rx="6" fill="#46BDE9" opacity="0.7"/><rect x="837.7" y="439" width="90.8" height="12" rx="6" fill="#CCF1FF" opacity="0.8"/><rect x="941.4" y="439" width="110.1" height="12" rx="6" fill="#2CD5C4" opacity="0.8"/><rect x="1058.3" y="439" width="117.1" height="12" rx="6" fill="#46BDE9" opacity="0.4"/><rect x="1189.6" y="439" width="49.4" height="12" rx="6" fill="#46BDE9" opacity="0.8"/><rect x="681" y="459" width="139.3" height="12" rx="6" fill="#46BDE9" opacity="0.4"/><rect x="827.3" y="459" width="126.2" height="12" rx="6" fill="#46BDE9" opacity="0.6"/><rect x="963.6" y="459" width="100.8" height="12" rx="6" fill="#46BDE9" opacity="0.5"/><rect x="1071.3" y="459" width="110.7" height="12" rx="6" fill="#CCF1FF" opacity="0.7"/><rect x="1197" y="459" width="42" height="12" rx="6" fill="#2CD5C4" opacity="0.6"/><rect x="681" y="479" width="64" height="12" rx="6" fill="#2CD5C4" opacity="0.5"/><rect x="752" y="479" width="64.1" height="12" rx="6" fill="#46BDE9" opacity="0.7"/><rect x="826.6" y="479" width="75.4" height="12" rx="6" fill="#2CD5C4" opacity="0.5"/><rect x="908.8" y="479" width="62.7" height="12" rx="6" fill="#2CD5C4" opacity="0.6"/><rect x="981.8" y="479" width="97.9" height="12" rx="6" fill="#46BDE9" opacity="0.6"/><rect x="1089.9" y="479" width="68.7" height="12" rx="6" fill="#46BDE9" opacity="0.5"/><rect x="1165.5" y="479" width="73.5" height="12" rx="6" fill="#46BDE9" opacity="0.5"/><rect x="681" y="499" width="74.5" height="12" rx="6" fill="#46BDE9" opacity="0.4"/><rect x="767.2" y="499" width="71.1" height="12" rx="6" fill="#46BDE9" opacity="0.8"/><rect x="846" y="499" width="82.2" height="12" rx="6" fill="#2CD5C4" opacity="0.4"/><rect x="939.4" y="499" width="132.1" height="12" rx="6" fill="#46BDE9" opacity="0.8"/><rect x="1083.7" y="499" width="133.4" height="12" rx="6" fill="#2CD5C4" opacity="0.7"/><rect x="1226.4" y="499" width="12.6" height="12" rx="6" fill="#CCF1FF" opacity="0.6"/><rect x="681" y="519" width="126.4" height="12" rx="6" fill="#46BDE9" opacity="0.4"/><rect x="821.6" y="519" width="93.7" height="12" rx="6" fill="#46BDE9" opacity="0.6"/><rect x="929.8" y="519" width="74" height="12" rx="6" fill="#2CD5C4" opacity="0.5"/><rect x="1011.9" y="519" width="145.7" height="12" rx="6" fill="#46BDE9" opacity="0.6"/><rect x="1171.8" y="519" width="67.2" height="12" rx="6" fill="#CCF1FF" opacity="0.7"/><rect x="681" y="539" width="137.2" height="12" rx="6" fill="#46BDE9" opacity="0.5"/><rect x="825.4" y="539" width="117.6" height="12" rx="6" fill="#46BDE9" opacity="0.4"/><rect x="953.7" y="539" width="72.4" height="12" rx="6" fill="#46BDE9" opacity="0.5"/><rect x="1039.2" y="539" width="84.3" height="12" rx="6" fill="#46BDE9" opacity="0.6"/><rect x="1133.9" y="539" width="36.4" height="12" rx="6" fill="#2CD5C4" opacity="0.8"/><rect x="1183.2" y="539" width="49.8" height="12" rx="6" fill="#46BDE9" opacity="0.5"/><rect x="681" y="559" width="114.8" height="12" rx="6" fill="#46BDE9" opacity="0.8"/><rect x="806.1" y="559" width="99.4" height="12" rx="6" fill="#46BDE9" opacity="0.6"/><rect x="915.2" y="559" width="61.7" height="12" rx="6" fill="#2CD5C4" opacity="0.7"/><rect x="984.1" y="559" width="90.5" height="12" rx="6" fill="#2CD5C4" opacity="0.7"/><rect x="1082.3" y="559" width="37.8" height="12" rx="6" fill="#46BDE9" opacity="0.5"/><rect x="1127.3" y="559" width="111.7" height="12" rx="6" fill="#CCF1FF" opacity="0.7"/><rect x="681" y="579" width="103.4" height="12" rx="6" fill="#46BDE9" opacity="0.5"/><rect x="798.2" y="579" width="66.7" height="12" rx="6" fill="#46BDE9" opacity="0.7"/><rect x="876.8" y="579" width="59.7" height="12" rx="6" fill="#CCF1FF" opacity="0.5"/><rect x="949.9" y="579" width="125.8" height="12" rx="6" fill="#CCF1FF" opacity="0.6"/><rect x="1086" y="579" width="103.8" height="12" rx="6" fill="#46BDE9" opacity="0.8"/><rect x="1196.9" y="579" width="42.1" height="12" rx="6" fill="#46BDE9" opacity="0.5"/><rect x="681" y="599" width="91.8" height="12" rx="6" fill="#CCF1FF" opacity="0.4"/><rect x="780.1" y="599" width="131.3" height="12" rx="6" fill="#2CD5C4" opacity="0.5"/><rect x="919.6" y="599" width="62" height="12" rx="6" fill="#46BDE9" opacity="0.7"/><rect x="995.4" y="599" width="58.1" height="12" rx="6" fill="#CCF1FF" opacity="0.7"/><rect x="1062.1" y="599" width="113.1" height="12" rx="6" fill="#2CD5C4" opacity="0.8"/><rect x="1189.6" y="599" width="49.4" height="12" rx="6" fill="#2CD5C4" opacity="0.5"/><rect x="681" y="619" width="79.4" height="12" rx="6" fill="#2CD5C4" opacity="0.8"/><rect x="766.6" y="619" width="95.8" height="12" rx="6" fill="#2CD5C4" opacity="0.8"/><rect x="869" y="619" width="122.7" height="12" rx="6" fill="#2CD5C4" opacity="0.6"/><rect x="1001.2" y="619" width="119.2" height="12" rx="6" fill="#46BDE9" opacity="0.5"/><rect x="1128.1" y="619" width="110.9" height="12" rx="6" fill="#46BDE9" opacity="0.6"/><rect x="681" y="639" width="134.1" height="12" rx="6" fill="#46BDE9" opacity="0.4"/><rect x="828.7" y="639" width="75.3" height="12" rx="6" fill="#2CD5C4" opacity="0.8"/><rect x="916.3" y="639" width="112" height="12" rx="6" fill="#2CD5C4" opacity="0.7"/><rect x="1037.3" y="639" width="102.8" height="12" rx="6" fill="#2CD5C4" opacity="0.6"/><rect x="1151.7" y="639" width="49" height="12" rx="6" fill="#46BDE9" opacity="0.7"/><rect x="1208.5" y="639" width="30.5" height="12" rx="6" fill="#2CD5C4" opacity="0.7"/><rect x="681" y="659" width="148.1" height="12" rx="6" fill="#46BDE9" opacity="0.6"/><rect x="837.9" y="659" width="65.9" height="12" rx="6" fill="#2CD5C4" opacity="0.6"/><rect x="910.5" y="659" width="138" height="12" rx="6" fill="#CCF1FF" opacity="0.7"/><rect x="1062" y="659" width="66.2" height="12" rx="6" fill="#CCF1FF" opacity="0.7"/><rect x="1135.8" y="659" width="103.2" height="12" rx="6" fill="#46BDE9" opacity="0.5"/><rect x="681" y="679" width="63" height="12" rx="6" fill="#2CD5C4" opacity="0.5"/><rect x="754.8" y="679" width="112.3" height="12" rx="6" fill="#2CD5C4" opacity="0.7"/><rect x="875.8" y="679" width="54.7" height="12" rx="6" fill="#46BDE9" opacity="0.6"/><rect x="944.8" y="679" width="125" height="12" rx="6" fill="#46BDE9" opacity="0.5"/><rect x="1076.8" y="679" width="110.8" height="12" rx="6" fill="#46BDE9" opacity="0.6"/><rect x="1197.3" y="679" width="41.7" height="12" rx="6" fill="#CCF1FF" opacity="0.4"/><rect x="681" y="699" width="73.6" height="12" rx="6" fill="#2CD5C4" opacity="0.5"/><rect x="761.5" y="699" width="77.1" height="12" rx="6" fill="#46BDE9" opacity="0.5"/><rect x="850" y="699" width="148" height="12" rx="6" fill="#46BDE9" opacity="0.8"/><rect x="1005.6" y="699" width="136.9" height="12" rx="6" fill="#46BDE9" opacity="0.5"/><rect x="1151.2" y="699" width="87.8" height="12" rx="6" fill="#CCF1FF" opacity="0.7"/><rect x="681" y="719" width="65.7" height="12" rx="6" fill="#2CD5C4" opacity="0.4"/><rect x="754.1" y="719" width="102.7" height="12" rx="6" fill="#CCF1FF" opacity="0.8"/><rect x="871.2" y="719" width="133.1" height="12" rx="6" fill="#46BDE9" opacity="0.6"/><rect x="1016.8" y="719" width="115.7" height="12" rx="6" fill="#46BDE9" opacity="0.7"/><rect x="1146" y="719" width="56.4" height="12" rx="6" fill="#46BDE9" opacity="0.6"/><rect x="1212.4" y="719" width="26.6" height="12" rx="6" fill="#46BDE9" opacity="0.5"/></g>
  <rect x="670" y="330" width="580" height="420" rx="16" fill="none" stroke="#CCF1FF" stroke-width="4" opacity="0.95"/>
  <g><path d="M 724 330 L 670 330 L 670 384" fill="none" stroke="#CCF1FF" stroke-width="8" stroke-linecap="round" opacity="0.95"/><path d="M 1196 330 L 1250 330 L 1250 384" fill="none" stroke="#CCF1FF" stroke-width="8" stroke-linecap="round" opacity="0.95"/><path d="M 724 750 L 670 750 L 670 696" fill="none" stroke="#CCF1FF" stroke-width="8" stroke-linecap="round" opacity="0.95"/><path d="M 1196 750 L 1250 750 L 1250 696" fill="none" stroke="#CCF1FF" stroke-width="8" stroke-linecap="round" opacity="0.95"/></g>
  <g><path d="M 814.6 351 L 834.6 333 L 854.6 351" fill="none" stroke="#FFB81C" stroke-width="4.2" stroke-linecap="round" stroke-linejoin="round" opacity="0.85"/><path d="M 814.6 729 L 834.6 747 L 854.6 729" fill="none" stroke="#FFB81C" stroke-width="4.2" stroke-linecap="round" stroke-linejoin="round" opacity="0.85"/><path d="M 691 433.8 L 673 453.8 L 691 473.8" fill="none" stroke="#FFB81C" stroke-width="4.2" stroke-linecap="round" stroke-linejoin="round" opacity="0.85"/><path d="M 1229 433.8 L 1247 453.8 L 1229 473.8" fill="none" stroke="#FFB81C" stroke-width="4.2" stroke-linecap="round" stroke-linejoin="round" opacity="0.85"/><path d="M 940 351 L 960 333 L 980 351" fill="none" stroke="#FFB81C" stroke-width="4.2" stroke-linecap="round" stroke-linejoin="round" opacity="0.85"/><path d="M 940 729 L 960 747 L 980 729" fill="none" stroke="#FFB81C" stroke-width="4.2" stroke-linecap="round" stroke-linejoin="round" opacity="0.85"/><path d="M 691 520 L 673 540 L 691 560" fill="none" stroke="#FFB81C" stroke-width="4.2" stroke-linecap="round" stroke-linejoin="round" opacity="0.85"/><path d="M 1229 520 L 1247 540 L 1229 560" fill="none" stroke="#FFB81C" stroke-width="4.2" stroke-linecap="round" stroke-linejoin="round" opacity="0.85"/><path d="M 1065.4 351 L 1085.4 333 L 1105.4 351" fill="none" stroke="#FFB81C" stroke-width="4.2" stroke-linecap="round" stroke-linejoin="round" opacity="0.85"/><path d="M 1065.4 729 L 1085.4 747 L 1105.4 729" fill="none" stroke="#FFB81C" stroke-width="4.2" stroke-linecap="round" stroke-linejoin="round" opacity="0.85"/><path d="M 691 606.2 L 673 626.2 L 691 646.2" fill="none" stroke="#FFB81C" stroke-width="4.2" stroke-linecap="round" stroke-linejoin="round" opacity="0.85"/><path d="M 1229 606.2 L 1247 626.2 L 1229 646.2" fill="none" stroke="#FFB81C" stroke-width="4.2" stroke-linecap="round" stroke-linejoin="round" opacity="0.85"/></g>
  <ellipse cx="960" cy="540" rx="200" ry="215" fill="url(#scrim)"/>
  <g filter="url(#blur18)" opacity="0.45"><g transform="translate(811 370) scale(4.6575)"><path d="M 13.482285 60.694962 L 0.998384 52.884399 L 0.998384 19.502914 L 31.527868 2.001205 L 61.317604 19.532024 L 61.317604 54.64489 L 31.054855 71.68927 L 20.548372 65.115807 L 20.548372 51.041328 L 20.548372 49.119896 L 14.851504 45.555508 L 14.851504 27.453159 L 31.346497 17.99712 L 47.464485 27.482262 L 47.464485 46.451157 L 34.703495 53.638138 L 34.703495 45.998573 C 38.52874 44.52552 41.274452 40.739189 41.274452 36.270489 C 41.274452 30.510658 36.712814 25.88438 31.158138 25.88438 C 25.603172 25.88438 21.041817 30.510658 21.041817 36.270489 C 21.041817 40.739189 23.787249 44.52552 27.612494 45.998573 L 27.612494 60.473576 L 31.261133 62.756348 L 53.635483 50.15464 L 53.635483 23.924595 L 31.477489 10.884869 L 8.680504 23.953705 L 8.680504 48.628967 L 13.482285 51.633297 L 13.482285 60.694962 Z M 31.158138 31.498383 C 33.671822 31.498383 35.660439 33.664162 35.660439 36.270489 C 35.660439 38.876804 33.671822 41.042587 31.158138 41.042587 C 28.644447 41.042587 26.655558 38.876804 26.655558 36.270489 C 26.655558 33.664162 28.644447 31.498383 31.158138 31.498383 Z" fill="#FFFFFF" fill-rule="evenodd"/></g></g>
  <g><g transform="translate(811 370) scale(4.6575)"><path d="M 13.482285 60.694962 L 0.998384 52.884399 L 0.998384 19.502914 L 31.527868 2.001205 L 61.317604 19.532024 L 61.317604 54.64489 L 31.054855 71.68927 L 20.548372 65.115807 L 20.548372 51.041328 L 20.548372 49.119896 L 14.851504 45.555508 L 14.851504 27.453159 L 31.346497 17.99712 L 47.464485 27.482262 L 47.464485 46.451157 L 34.703495 53.638138 L 34.703495 45.998573 C 38.52874 44.52552 41.274452 40.739189 41.274452 36.270489 C 41.274452 30.510658 36.712814 25.88438 31.158138 25.88438 C 25.603172 25.88438 21.041817 30.510658 21.041817 36.270489 C 21.041817 40.739189 23.787249 44.52552 27.612494 45.998573 L 27.612494 60.473576 L 31.261133 62.756348 L 53.635483 50.15464 L 53.635483 23.924595 L 31.477489 10.884869 L 8.680504 23.953705 L 8.680504 48.628967 L 13.482285 51.633297 L 13.482285 60.694962 Z M 31.158138 31.498383 C 33.671822 31.498383 35.660439 33.664162 35.660439 36.270489 C 35.660439 38.876804 33.671822 41.042587 31.158138 41.042587 C 28.644447 41.042587 26.655558 38.876804 26.655558 36.270489 C 26.655558 33.664162 28.644447 31.498383 31.158138 31.498383 Z" fill="#FFFFFF" fill-rule="evenodd"/></g></g>
  <rect width="1920" height="1080" fill="url(#vignette)"/>
  <rect width="1920" height="1080" filter="url(#grain)" opacity="0.055" style="mix-blend-mode:overlay"/>
  <g opacity="0.92"><g transform="translate(106.3 73.4) scale(0.79505)"><path d="M15.2,50l-9.4-5.9v-25L28.8,6l22.3,13.1v26.3l-22.7,12.8-7.9-4.9v-12l-4.3-2.7v-13.6l12.4-7.1,12.1,7.1v14.2l-9.6,5.4v-5.7c2.9-1.1,4.9-3.9,4.9-7.3s-3.4-7.8-7.6-7.8-7.6,3.5-7.6,7.8,2.1,6.2,4.9,7.3v10.9l2.7,1.7,16.8-9.5v-19.7l-16.6-9.8-17.1,9.8v18.5l3.6,2.3v6.8ZM28.5,28.1c1.9,0,3.4,1.6,3.4,3.6s-1.5,3.6-3.4,3.6-3.4-1.6-3.4-3.6,1.5-3.6,3.4-3.6Z" fill="#FFFFFF" fill-rule="evenodd"/><path d="M85.2,11.4l-12.1,33.8h-4l-12.1-33.8h4.1l7.9,22.3c.3.9.6,1.8.9,2.6.3.8.5,1.6.7,2.4.2.8.4,1.5.5,2.2.2-.7.3-1.4.5-2.2.2-.8.4-1.6.7-2.4.3-.8.6-1.7.9-2.6l7.9-22.2h4.2Z" fill="#FFFFFF"/><path d="M94,19.5c3,0,5.3.7,6.7,2,1.5,1.4,2.2,3.5,2.2,6.5v17.2h-2.8l-.7-3.7h-.2c-.7.9-1.4,1.7-2.2,2.3-.8.6-1.7,1.1-2.7,1.4-1,.3-2.2.5-3.7.5s-2.9-.3-4.1-.8c-1.2-.5-2.1-1.4-2.8-2.5-.7-1.1-1-2.5-1-4.2,0-2.5,1-4.5,3-5.8,2-1.4,5.1-2.1,9.2-2.2l4.4-.2v-1.5c0-2.2-.5-3.7-1.4-4.6-.9-.9-2.3-1.3-4-1.3-1.3,0-2.6.2-3.8.6-1.2.4-2.3.8-3.4,1.4l-1.2-2.9c1.1-.6,2.5-1.1,3.9-1.5,1.5-.4,3-.6,4.7-.6h0ZM99.1,32.8l-3.9.2c-3.2.1-5.4.6-6.7,1.5s-1.9,2.2-1.9,3.9.4,2.5,1.3,3.2c.9.7,2,1,3.5,1,2.3,0,4.1-.6,5.5-1.9s2.2-3.1,2.2-5.6v-2.3Z" fill="#FFFFFF"/><path d="M112.1,45.3h-3.9V9.3h3.9v36Z" fill="#FFFFFF"/><path d="M121.3,9.3v18.7c0,.6,0,1.4,0,2.3,0,.9,0,1.7-.1,2.3h.2c.3-.4.8-1,1.4-1.8.6-.8,1.2-1.4,1.6-1.9l8.4-9h4.5l-10.2,10.8,10.9,14.5h-4.6l-9-12-3.1,2.8v9.2h-3.8V9.3h3.8Z" fill="#FFFFFF"/><path d="M148.2,19.4c2.2,0,4,.5,5.6,1.4,1.5,1,2.7,2.3,3.5,4,.8,1.7,1.2,3.7,1.2,6v2.4h-17.5c0,3,.8,5.2,2.2,6.8s3.5,2.3,6.1,2.3,3-.1,4.3-.4c1.2-.3,2.5-.7,3.8-1.3v3.4c-1.3.6-2.6,1-3.8,1.2-1.2.3-2.7.4-4.4.4-2.4,0-4.6-.5-6.4-1.5-1.8-1-3.2-2.5-4.2-4.4-1-1.9-1.5-4.3-1.5-7.1,0-2.7.5-5.1,1.4-7.1.9-2,2.2-3.5,3.9-4.6,1.7-1.1,3.7-1.6,5.9-1.6h0ZM148.2,22.6c-2.1,0-3.7.7-4.9,2-1.2,1.3-1.9,3.2-2.2,5.6h13.4c0-1.5-.3-2.8-.7-4-.4-1.2-1.1-2.1-2.1-2.7-.9-.6-2.1-1-3.6-1Z" fill="#FFFFFF"/><path d="M158.4,19.9h4.1l5.6,14.7c.3.9.6,1.7.9,2.5.3.8.5,1.5.7,2.3.2.7.4,1.4.5,2.1h.2c.2-.8.5-1.8.9-3,.4-1.3.8-2.6,1.3-3.9l5.3-14.7h4.1l-11,29.1c-.6,1.6-1.3,2.9-2.1,4.1-.8,1.2-1.7,2-2.8,2.7-1.1.6-2.5.9-4,.9s-1.4,0-1.9-.1c-.6,0-1-.2-1.4-.3v-3.1c.3,0,.7.1,1.2.2.5,0,1,0,1.5,0,1,0,1.8-.2,2.5-.6.7-.4,1.3-.9,1.8-1.6.5-.7.9-1.5,1.3-2.5l1.4-3.6-10.2-25.4Z" fill="#FFFFFF"/></g></g>
  <g><rect x="121.2" y="807" width="565.8" height="85.4" rx="3.9" fill="#CCF1FF"/><text x="142.5" y="867.2" fill="#060A24" font-family="Helvetica Neue, Helvetica, Arial, sans-serif" font-size="60.2" font-weight="600">In a tight resource</text><rect x="121.2" y="900.2" width="303.4" height="85.4" rx="3.9" fill="#CCF1FF"/><text x="142.5" y="960.4" fill="#060A24" font-family="Helvetica Neue, Helvetica, Arial, sans-serif" font-size="60.2" font-weight="600">envelope</text></g>
</svg>
