<svg xmlns="http://www.w3.org/2000/svg" width="1920" height="1080" viewBox="87.3 49.1 1745.5 981.8">
  <title>Valkey secondary indexing</title>
  <desc>Four record cards each contributing one highlighted green field to a sorted index lane below, with a query caliper bracketing three matched entries above the white Valkey hexagon mark, representing secondary indexing on hashes and JSON.</desc>
  <defs>
    <linearGradient id="sky" x1="0" y1="0" x2="0.32" y2="1">
      <stop offset="0" stop-color="#060A24"/>
      <stop offset="0.48" stop-color="#171043"/>
      <stop offset="1" stop-color="#301868"/>
    </linearGradient>
    <radialGradient id="focus" gradientUnits="userSpaceOnUse" cx="960" cy="600" r="900">
      <stop offset="0" stop-color="#00A3E0" stop-opacity="0.42"/>
      <stop offset="0.35" stop-color="#963CBD" stop-opacity="0.20"/>
      <stop offset="1" stop-color="#963CBD" stop-opacity="0"/>
    </radialGradient>
    <radialGradient id="vignette" gradientUnits="userSpaceOnUse" cx="960" cy="540" r="1180">
      <stop offset="0.5" stop-color="#03040F" stop-opacity="0"/>
      <stop offset="1" stop-color="#03040F" stop-opacity="0.8"/>
    </radialGradient>
    <radialGradient id="scrim">
      <stop offset="0" stop-color="#060A24" stop-opacity="0.72"/>
      <stop offset="0.6" stop-color="#060A24" stop-opacity="0.45"/>
      <stop offset="1" stop-color="#060A24" stop-opacity="0"/>
    </radialGradient>
    <filter id="grain" x="0" y="0" width="100%" height="100%">
      <feTurbulence type="fractalNoise" baseFrequency="0.85" numOctaves="4" stitchTiles="stitch"/>
      <feColorMatrix type="saturate" values="0"/>
    </filter>
    <radialGradient id="h-cyan"><stop offset="0" stop-color="#46BDE9" stop-opacity="0.75"/><stop offset="0.4" stop-color="#46BDE9" stop-opacity="0.22"/><stop offset="1" stop-color="#46BDE9" stop-opacity="0"/></radialGradient>
    <radialGradient id="h-ice"><stop offset="0" stop-color="#CCF1FF" stop-opacity="0.75"/><stop offset="0.4" stop-color="#CCF1FF" stop-opacity="0.22"/><stop offset="1" stop-color="#CCF1FF" stop-opacity="0"/></radialGradient>
    <radialGradient id="h-mint"><stop offset="0" stop-color="#2CD5C4" stop-opacity="0.75"/><stop offset="0.4" stop-color="#2CD5C4" stop-opacity="0.22"/><stop offset="1" stop-color="#2CD5C4" stop-opacity="0"/></radialGradient>
    <radialGradient id="h-coral"><stop offset="0" stop-color="#F65275" stop-opacity="0.75"/><stop offset="0.4" stop-color="#F65275" stop-opacity="0.22"/><stop offset="1" stop-color="#F65275" stop-opacity="0"/></radialGradient>
    <radialGradient id="h-violet"><stop offset="0" stop-color="#963CBD" stop-opacity="0.75"/><stop offset="0.4" stop-color="#963CBD" stop-opacity="0.22"/><stop offset="1" stop-color="#963CBD" stop-opacity="0"/></radialGradient>
    <radialGradient id="h-gold"><stop offset="0" stop-color="#FFB81C" stop-opacity="0.75"/><stop offset="0.4" stop-color="#FFB81C" stop-opacity="0.22"/><stop offset="1" stop-color="#FFB81C" stop-opacity="0"/></radialGradient>
    <filter id="blur3" x="-70%" y="-70%" width="240%" height="240%"><feGaussianBlur stdDeviation="3"/></filter>
    <filter id="blur8" x="-70%" y="-70%" width="240%" height="240%"><feGaussianBlur stdDeviation="8"/></filter>
    <filter id="blur18" x="-70%" y="-70%" width="240%" height="240%"><feGaussianBlur stdDeviation="18"/></filter>
    <filter id="blur40" x="-70%" y="-70%" width="240%" height="240%"><feGaussianBlur stdDeviation="40"/></filter>
  </defs>
  <rect width="1920" height="1080" fill="url(#sky)"/>
  <rect width="1920" height="1080" fill="url(#focus)"/>
  <g><circle cx="438" cy="429.5" r="1.1" fill="#CCF1FF" opacity="0.4"/><circle cx="1760.8" cy="215.2" r="1.2" fill="#CCF1FF" opacity="0.3"/><circle cx="53.8" cy="0.2" r="1.4" fill="#CCF1FF" opacity="0.1"/><circle cx="650.5" cy="317.7" r="0.8" fill="#CCF1FF" opacity="0.2"/><circle cx="545.8" cy="631.1" r="1.8" fill="#CCF1FF" opacity="0.1"/><circle cx="1906.3" cy="299.8" r="1.1" fill="#CCF1FF" opacity="0.3"/><circle cx="1487.3" cy="322.1" r="2.1" fill="#CCF1FF" opacity="0.2"/><circle cx="350.9" cy="974.6" r="1.8" fill="#CCF1FF" opacity="0.2"/><circle cx="185.3" cy="175.8" r="2.7" fill="#CCF1FF" opacity="0.3"/><circle cx="66.4" cy="796.4" r="2.6" fill="#CCF1FF" opacity="0.1"/><circle cx="1666.7" cy="298.8" r="1.2" fill="#CCF1FF" opacity="0.2"/><circle cx="637.5" cy="969.2" r="0.9" fill="#CCF1FF" opacity="0.3"/><circle cx="752.4" cy="179.4" r="1.2" fill="#CCF1FF" opacity="0.1"/><circle cx="977.4" cy="406.5" r="1" fill="#CCF1FF" opacity="0.4"/><circle cx="1043.1" cy="322" r="2.6" fill="#CCF1FF" opacity="0.2"/><circle cx="1462.8" cy="210.6" r="1.7" fill="#CCF1FF" opacity="0.2"/><circle cx="1598.3" cy="971.7" r="1.7" fill="#CCF1FF" opacity="0.3"/><circle cx="1309.2" cy="409.7" r="2.5" fill="#CCF1FF" opacity="0.2"/><circle cx="863.5" cy="552.8" r="1.8" fill="#CCF1FF" opacity="0.3"/><circle cx="697.2" cy="625.2" r="1.4" fill="#CCF1FF" opacity="0.3"/><circle cx="1163" cy="49.8" r="2" fill="#CCF1FF" opacity="0.2"/><circle cx="1804.4" cy="208.7" r="1.5" fill="#CCF1FF" opacity="0.3"/><circle cx="1040.2" cy="513.1" r="1.5" fill="#CCF1FF" opacity="0.1"/><circle cx="367.2" cy="204.4" r="2.7" fill="#CCF1FF" opacity="0.2"/><circle cx="1836.8" cy="548" r="1.1" fill="#CCF1FF" opacity="0.1"/><circle cx="270" cy="923.2" r="0.9" fill="#CCF1FF" opacity="0.3"/><circle cx="1135.5" cy="1048.8" r="2" fill="#CCF1FF" opacity="0.3"/><circle cx="177.1" cy="931.1" r="0.9" fill="#CCF1FF" opacity="0.3"/><circle cx="113.1" cy="648.3" r="0.9" fill="#CCF1FF" opacity="0.2"/><circle cx="15.4" cy="215.1" r="2.2" fill="#CCF1FF" opacity="0.1"/><circle cx="1426.6" cy="1018.7" r="2.6" fill="#CCF1FF" opacity="0.1"/><circle cx="641.4" cy="586.1" r="2.2" fill="#CCF1FF" opacity="0.2"/><circle cx="236.2" cy="78.4" r="0.9" fill="#CCF1FF" opacity="0.3"/><circle cx="493.1" cy="1061.2" r="1.5" fill="#CCF1FF" opacity="0.3"/><circle cx="264.6" cy="36.2" r="2.4" fill="#CCF1FF" opacity="0.2"/><circle cx="1840.6" cy="95.3" r="1.7" fill="#CCF1FF" opacity="0.3"/><circle cx="1219.8" cy="69.1" r="1" fill="#CCF1FF" opacity="0.3"/><circle cx="1784.1" cy="648.3" r="2.4" fill="#CCF1FF" opacity="0.2"/><circle cx="1250.2" cy="432.3" r="1.2" fill="#CCF1FF" opacity="0.2"/><circle cx="803.2" cy="715.6" r="2.2" fill="#CCF1FF" opacity="0.1"/><circle cx="28.7" cy="582.2" r="2.6" fill="#CCF1FF" opacity="0.3"/><circle cx="1230.4" cy="90.3" r="2" fill="#CCF1FF" opacity="0.4"/><circle cx="251.8" cy="915.4" r="1.6" fill="#CCF1FF" opacity="0.2"/><circle cx="1182.4" cy="699.6" r="1.9" fill="#CCF1FF" opacity="0.3"/><circle cx="1906.7" cy="390.8" r="2.4" fill="#CCF1FF" opacity="0.2"/><circle cx="268" cy="551.5" r="2.3" fill="#CCF1FF" opacity="0.3"/><circle cx="369.9" cy="648.5" r="1.3" fill="#CCF1FF" opacity="0.1"/><circle cx="1178.4" cy="326.1" r="1.9" fill="#CCF1FF" opacity="0.4"/><circle cx="1539.8" cy="996.9" r="2.3" fill="#CCF1FF" opacity="0.3"/><circle cx="1895.5" cy="413.4" r="1.4" fill="#CCF1FF" opacity="0.4"/><circle cx="1199.9" cy="633.6" r="1.7" fill="#CCF1FF" opacity="0.2"/><circle cx="1106.7" cy="946.3" r="1.7" fill="#CCF1FF" opacity="0.1"/><circle cx="1900.4" cy="872.3" r="1.6" fill="#CCF1FF" opacity="0.3"/><circle cx="1551" cy="292.9" r="2.4" fill="#CCF1FF" opacity="0.2"/><circle cx="1541.2" cy="185.1" r="1.3" fill="#CCF1FF" opacity="0.1"/></g>
  <circle cx="960" cy="259" r="520" fill="url(#h-cyan)" opacity="0.12"/>
  <circle cx="951" cy="690" r="330" fill="url(#h-mint)" opacity="0.24"/>
  <g><rect x="469" y="170" width="196" height="178" rx="12" fill="#00A3E0" fill-opacity="0.1" stroke="#46BDE9" stroke-width="2.2" opacity="0.75"/><rect x="493" y="200" width="116.6" height="11" rx="5" fill="#CCF1FF" opacity="0.3"/><rect x="493" y="238" width="108.6" height="11" rx="5" fill="#CCF1FF" opacity="0.4"/><rect x="493" y="276" width="69.2" height="11" rx="5" fill="#CCF1FF" opacity="0.3"/><rect x="493" y="314" width="148" height="15" rx="7" fill="#2CD5C4" opacity="0.9"/><rect x="493" y="314" width="148" height="15" rx="7" fill="#2CD5C4" opacity="0.4" filter="url(#blur8)"/><rect x="731" y="170" width="196" height="178" rx="12" fill="#00A3E0" fill-opacity="0.1" stroke="#46BDE9" stroke-width="2.2" opacity="0.75"/><rect x="755" y="200" width="113.5" height="11" rx="5" fill="#CCF1FF" opacity="0.3"/><rect x="755" y="238" width="84.8" height="11" rx="5" fill="#CCF1FF" opacity="0.4"/><rect x="755" y="276" width="110.7" height="11" rx="5" fill="#CCF1FF" opacity="0.3"/><rect x="755" y="314" width="148" height="15" rx="7" fill="#2CD5C4" opacity="0.9"/><rect x="755" y="314" width="148" height="15" rx="7" fill="#2CD5C4" opacity="0.4" filter="url(#blur8)"/><rect x="993" y="170" width="196" height="178" rx="12" fill="#00A3E0" fill-opacity="0.1" stroke="#46BDE9" stroke-width="2.2" opacity="0.75"/><rect x="1017" y="200" width="113.6" height="11" rx="5" fill="#CCF1FF" opacity="0.4"/><rect x="1017" y="238" width="75.6" height="11" rx="5" fill="#CCF1FF" opacity="0.3"/><rect x="1017" y="276" width="72.9" height="11" rx="5" fill="#CCF1FF" opacity="0.4"/><rect x="1017" y="314" width="148" height="15" rx="7" fill="#2CD5C4" opacity="0.9"/><rect x="1017" y="314" width="148" height="15" rx="7" fill="#2CD5C4" opacity="0.4" filter="url(#blur8)"/><rect x="1255" y="170" width="196" height="178" rx="12" fill="#00A3E0" fill-opacity="0.1" stroke="#46BDE9" stroke-width="2.2" opacity="0.75"/><rect x="1279" y="200" width="110.3" height="11" rx="5" fill="#CCF1FF" opacity="0.3"/><rect x="1279" y="238" width="87.5" height="11" rx="5" fill="#CCF1FF" opacity="0.3"/><rect x="1279" y="276" width="87.7" height="11" rx="5" fill="#CCF1FF" opacity="0.3"/><rect x="1279" y="314" width="148" height="15" rx="7" fill="#2CD5C4" opacity="0.9"/><rect x="1279" y="314" width="148" height="15" rx="7" fill="#2CD5C4" opacity="0.4" filter="url(#blur8)"/></g>
  <g><path d="M 567 321 L 567 379 L 1343.5 554 L 1343.5 576" fill="none" stroke="#2CD5C4" stroke-width="1.6" stroke-dasharray="7 9" opacity="0.3"/><path d="M 829 321 L 829 379 L 951 554 L 951 576" fill="none" stroke="#2CD5C4" stroke-width="1.6" stroke-dasharray="7 9" opacity="0.62"/><path d="M 1091 321 L 1091 379 L 586.5 554 L 586.5 576" fill="none" stroke="#2CD5C4" stroke-width="1.6" stroke-dasharray="7 9" opacity="0.3"/><path d="M 1353 321 L 1353 379 L 1511.8 554 L 1511.8 576" fill="none" stroke="#2CD5C4" stroke-width="1.6" stroke-dasharray="7 9" opacity="0.3"/></g>
  <line x1="210" y1="650" x2="1720" y2="650" stroke="#CCF1FF" stroke-width="10" opacity="0.2" filter="url(#blur8)"/>
  <line x1="210" y1="650" x2="1720" y2="650" stroke="#CCF1FF" stroke-width="2.6" opacity="0.7"/>
  <g><rect x="245" y="623.5" width="10" height="26.5" rx="4" fill="#963CBD" opacity="0.4"/><rect x="273" y="608.8" width="10" height="41.2" rx="4" fill="#46BDE9" opacity="0.6"/><rect x="301.1" y="593.4" width="10" height="56.6" rx="4" fill="#46BDE9" opacity="0.6"/><rect x="329.1" y="591.7" width="10" height="58.3" rx="4" fill="#46BDE9" opacity="0.5"/><rect x="357.2" y="584.8" width="10" height="65.2" rx="4" fill="#46BDE9" opacity="0.6"/><rect x="385.2" y="592" width="10" height="58" rx="4" fill="#46BDE9" opacity="0.5"/><rect x="413.2" y="599.6" width="10" height="50.4" rx="4" fill="#CCF1FF" opacity="0.6"/><rect x="441.3" y="614.4" width="10" height="35.6" rx="4" fill="#CCF1FF" opacity="0.6"/><rect x="469.3" y="624.8" width="10" height="25.2" rx="4" fill="#46BDE9" opacity="0.4"/><rect x="497.4" y="602.3" width="10" height="47.7" rx="4" fill="#46BDE9" opacity="0.4"/><rect x="525.4" y="596.8" width="10" height="53.2" rx="4" fill="#46BDE9" opacity="0.6"/><rect x="553.4" y="587" width="10" height="63" rx="4" fill="#46BDE9" opacity="0.5"/><rect x="581.5" y="583.9" width="10" height="66.1" rx="4" fill="#46BDE9" opacity="0.5"/><rect x="609.5" y="595" width="10" height="55" rx="4" fill="#46BDE9" opacity="0.6"/><rect x="637.5" y="610.3" width="10" height="39.7" rx="4" fill="#46BDE9" opacity="0.3"/><rect x="665.6" y="622.8" width="10" height="27.2" rx="4" fill="#46BDE9" opacity="0.4"/><rect x="693.6" y="616.6" width="10" height="33.4" rx="4" fill="#46BDE9" opacity="0.3"/><rect x="721.7" y="602.8" width="10" height="47.2" rx="4" fill="#46BDE9" opacity="0.4"/><rect x="749.7" y="587.9" width="10" height="62.1" rx="4" fill="#46BDE9" opacity="0.5"/><rect x="777.7" y="589.4" width="10" height="60.6" rx="4" fill="#46BDE9" opacity="0.4"/><rect x="805.8" y="586.8" width="10" height="63.2" rx="4" fill="#46BDE9" opacity="0.3"/><rect x="833.8" y="600.4" width="10" height="49.6" rx="4" fill="#46BDE9" opacity="0.3"/><rect x="861.9" y="615.3" width="10" height="34.7" rx="4" fill="#46BDE9" opacity="0.5"/><rect x="889.9" y="621.9" width="10" height="28.1" rx="4" fill="#963CBD" opacity="0.4"/><rect x="1002.1" y="580.7" width="10" height="69.3" rx="4" fill="#CCF1FF" opacity="0.6"/><rect x="1030.1" y="585.6" width="10" height="64.4" rx="4" fill="#963CBD" opacity="0.5"/><rect x="1058.1" y="599.8" width="10" height="50.2" rx="4" fill="#46BDE9" opacity="0.5"/><rect x="1086.2" y="619.7" width="10" height="30.3" rx="4" fill="#46BDE9" opacity="0.5"/><rect x="1114.2" y="625.3" width="10" height="24.7" rx="4" fill="#963CBD" opacity="0.5"/><rect x="1142.3" y="610.6" width="10" height="39.4" rx="4" fill="#CCF1FF" opacity="0.6"/><rect x="1170.3" y="593.8" width="10" height="56.2" rx="4" fill="#46BDE9" opacity="0.4"/><rect x="1198.3" y="588.3" width="10" height="61.7" rx="4" fill="#46BDE9" opacity="0.5"/><rect x="1226.4" y="580.5" width="10" height="69.5" rx="4" fill="#46BDE9" opacity="0.5"/><rect x="1254.4" y="597.8" width="10" height="52.2" rx="4" fill="#963CBD" opacity="0.4"/><rect x="1282.5" y="604.4" width="10" height="45.6" rx="4" fill="#46BDE9" opacity="0.5"/><rect x="1310.5" y="624.4" width="10" height="25.6" rx="4" fill="#46BDE9" opacity="0.5"/><rect x="1338.5" y="619.8" width="10" height="30.2" rx="4" fill="#46BDE9" opacity="0.5"/><rect x="1366.6" y="597.1" width="10" height="52.9" rx="4" fill="#46BDE9" opacity="0.3"/><rect x="1394.6" y="590.5" width="10" height="59.5" rx="4" fill="#963CBD" opacity="0.4"/><rect x="1422.6" y="587.9" width="10" height="62.1" rx="4" fill="#46BDE9" opacity="0.5"/><rect x="1450.7" y="589.6" width="10" height="60.4" rx="4" fill="#46BDE9" opacity="0.4"/><rect x="1478.7" y="600" width="10" height="50" rx="4" fill="#46BDE9" opacity="0.3"/><rect x="1506.8" y="613.4" width="10" height="36.6" rx="4" fill="#46BDE9" opacity="0.5"/><rect x="1534.8" y="625.6" width="10" height="24.4" rx="4" fill="#46BDE9" opacity="0.5"/><rect x="1562.8" y="613.3" width="10" height="36.7" rx="4" fill="#46BDE9" opacity="0.3"/><rect x="1590.9" y="590.1" width="10" height="59.9" rx="4" fill="#46BDE9" opacity="0.4"/><rect x="1618.9" y="584.1" width="10" height="65.9" rx="4" fill="#46BDE9" opacity="0.4"/><rect x="1647" y="580.1" width="10" height="69.9" rx="4" fill="#963CBD" opacity="0.4"/><rect x="1675" y="586.1" width="10" height="63.9" rx="4" fill="#46BDE9" opacity="0.4"/></g>
  <g><rect x="915.9" y="572" width="14" height="78" rx="6" fill="#2CD5C4" opacity="0.4" filter="url(#blur8)"/><rect x="915.9" y="572" width="14" height="78" rx="6" fill="#2CD5C4" opacity="0.95"/><rect x="944" y="572" width="14" height="78" rx="6" fill="#2CD5C4" opacity="0.4" filter="url(#blur8)"/><rect x="944" y="572" width="14" height="78" rx="6" fill="#2CD5C4" opacity="0.95"/><rect x="972" y="572" width="14" height="78" rx="6" fill="#2CD5C4" opacity="0.4" filter="url(#blur8)"/><rect x="972" y="572" width="14" height="78" rx="6" fill="#2CD5C4" opacity="0.95"/></g>
  <path d="M 896.9 666 L 896.9 692 L 1005 692 L 1005 666" fill="none" stroke="#CCF1FF" stroke-width="3.4" stroke-linecap="round" opacity="0.9"/><line x1="951" y1="692" x2="951" y2="736" stroke="#CCF1FF" stroke-width="3.4" opacity="0.9"/>
  <circle cx="951" cy="832" r="118" fill="url(#scrim)"/>
  <g filter="url(#blur18)" opacity="0.5"><g transform="translate(880 751) scale(2.2192)"><path d="M 13.482285 60.694962 L 0.998384 52.884399 L 0.998384 19.502914 L 31.527868 2.001205 L 61.317604 19.532024 L 61.317604 54.64489 L 31.054855 71.68927 L 20.548372 65.115807 L 20.548372 51.041328 L 20.548372 49.119896 L 14.851504 45.555508 L 14.851504 27.453159 L 31.346497 17.99712 L 47.464485 27.482262 L 47.464485 46.451157 L 34.703495 53.638138 L 34.703495 45.998573 C 38.52874 44.52552 41.274452 40.739189 41.274452 36.270489 C 41.274452 30.510658 36.712814 25.88438 31.158138 25.88438 C 25.603172 25.88438 21.041817 30.510658 21.041817 36.270489 C 21.041817 40.739189 23.787249 44.52552 27.612494 45.998573 L 27.612494 60.473576 L 31.261133 62.756348 L 53.635483 50.15464 L 53.635483 23.924595 L 31.477489 10.884869 L 8.680504 23.953705 L 8.680504 48.628967 L 13.482285 51.633297 L 13.482285 60.694962 Z M 31.158138 31.498383 C 33.671822 31.498383 35.660439 33.664162 35.660439 36.270489 C 35.660439 38.876804 33.671822 41.042587 31.158138 41.042587 C 28.644447 41.042587 26.655558 38.876804 26.655558 36.270489 C 26.655558 33.664162 28.644447 31.498383 31.158138 31.498383 Z" fill="#FFFFFF" fill-rule="evenodd"/></g></g>
  <g><g transform="translate(880 751) scale(2.2192)"><path d="M 13.482285 60.694962 L 0.998384 52.884399 L 0.998384 19.502914 L 31.527868 2.001205 L 61.317604 19.532024 L 61.317604 54.64489 L 31.054855 71.68927 L 20.548372 65.115807 L 20.548372 51.041328 L 20.548372 49.119896 L 14.851504 45.555508 L 14.851504 27.453159 L 31.346497 17.99712 L 47.464485 27.482262 L 47.464485 46.451157 L 34.703495 53.638138 L 34.703495 45.998573 C 38.52874 44.52552 41.274452 40.739189 41.274452 36.270489 C 41.274452 30.510658 36.712814 25.88438 31.158138 25.88438 C 25.603172 25.88438 21.041817 30.510658 21.041817 36.270489 C 21.041817 40.739189 23.787249 44.52552 27.612494 45.998573 L 27.612494 60.473576 L 31.261133 62.756348 L 53.635483 50.15464 L 53.635483 23.924595 L 31.477489 10.884869 L 8.680504 23.953705 L 8.680504 48.628967 L 13.482285 51.633297 L 13.482285 60.694962 Z M 31.158138 31.498383 C 33.671822 31.498383 35.660439 33.664162 35.660439 36.270489 C 35.660439 38.876804 33.671822 41.042587 31.158138 41.042587 C 28.644447 41.042587 26.655558 38.876804 26.655558 36.270489 C 26.655558 33.664162 28.644447 31.498383 31.158138 31.498383 Z" fill="#FFFFFF" fill-rule="evenodd"/></g></g>
  <g opacity="0.92"><g transform="translate(182.1 132.5) scale(0.8966)"><path d="M 13.482285 60.694962 L 0.998384 52.884399 L 0.998384 19.502914 L 31.527868 2.001205 L 61.317604 19.532024 L 61.317604 54.64489 L 31.054855 71.68927 L 20.548372 65.115807 L 20.548372 51.041328 L 20.548372 49.119896 L 14.851504 45.555508 L 14.851504 27.453159 L 31.346497 17.99712 L 47.464485 27.482262 L 47.464485 46.451157 L 34.703495 53.638138 L 34.703495 45.998573 C 38.52874 44.52552 41.274452 40.739189 41.274452 36.270489 C 41.274452 30.510658 36.712814 25.88438 31.158138 25.88438 C 25.603172 25.88438 21.041817 30.510658 21.041817 36.270489 C 21.041817 40.739189 23.787249 44.52552 27.612494 45.998573 L 27.612494 60.473576 L 31.261133 62.756348 L 53.635483 50.15464 L 53.635483 23.924595 L 31.477489 10.884869 L 8.680504 23.953705 L 8.680504 48.628967 L 13.482285 51.633297 L 13.482285 60.694962 Z M 31.158138 31.498383 C 33.671822 31.498383 35.660439 33.664162 35.660439 36.270489 C 35.660439 38.876804 33.671822 41.042587 31.158138 41.042587 C 28.644447 41.042587 26.655558 38.876804 26.655558 36.270489 C 26.655558 33.664162 28.644447 31.498383 31.158138 31.498383 Z" fill="#FFFFFF" fill-rule="evenodd"/></g></g>
  <rect width="1920" height="1080" fill="url(#vignette)"/>
  <rect width="1920" height="1080" filter="url(#grain)" opacity="0.055" style="mix-blend-mode:overlay"/>
</svg>
