<svg xmlns="http://www.w3.org/2000/svg" width="1920" height="1080" viewBox="146.4 82.4 1627.1 915.3">
  <title>Valkey workload primitives</title>
  <desc>The white Valkey hexagon mark fanning out into five lanes, each ending in a differently shaped structure: a ring of slots, a chain of entries, a ranked stack, a grid of bits and a row of embedding magnitudes, representing a workload decomposing into the primitives Valkey already has.</desc>
  <defs>
    <linearGradient id="sky" x1="0" y1="0" x2="0.32" y2="1">
      <stop offset="0" stop-color="#060A24"/>
      <stop offset="0.48" stop-color="#171043"/>
      <stop offset="1" stop-color="#301868"/>
    </linearGradient>
    <radialGradient id="focus" gradientUnits="userSpaceOnUse" cx="700" cy="520" r="900">
      <stop offset="0" stop-color="#00A3E0" stop-opacity="0.42"/>
      <stop offset="0.35" stop-color="#963CBD" stop-opacity="0.20"/>
      <stop offset="1" stop-color="#963CBD" stop-opacity="0"/>
    </radialGradient>
    <radialGradient id="vignette" gradientUnits="userSpaceOnUse" cx="960" cy="540" r="1180">
      <stop offset="0.5" stop-color="#03040F" stop-opacity="0"/>
      <stop offset="1" stop-color="#03040F" stop-opacity="0.8"/>
    </radialGradient>
    <radialGradient id="scrim">
      <stop offset="0" stop-color="#060A24" stop-opacity="0.72"/>
      <stop offset="0.6" stop-color="#060A24" stop-opacity="0.45"/>
      <stop offset="1" stop-color="#060A24" stop-opacity="0"/>
    </radialGradient>
    <filter id="grain" x="0" y="0" width="100%" height="100%">
      <feTurbulence type="fractalNoise" baseFrequency="0.85" numOctaves="4" stitchTiles="stitch"/>
      <feColorMatrix type="saturate" values="0"/>
    </filter>
    <radialGradient id="h-cyan"><stop offset="0" stop-color="#46BDE9" stop-opacity="0.75"/><stop offset="0.4" stop-color="#46BDE9" stop-opacity="0.22"/><stop offset="1" stop-color="#46BDE9" stop-opacity="0"/></radialGradient>
    <radialGradient id="h-ice"><stop offset="0" stop-color="#CCF1FF" stop-opacity="0.75"/><stop offset="0.4" stop-color="#CCF1FF" stop-opacity="0.22"/><stop offset="1" stop-color="#CCF1FF" stop-opacity="0"/></radialGradient>
    <radialGradient id="h-mint"><stop offset="0" stop-color="#2CD5C4" stop-opacity="0.75"/><stop offset="0.4" stop-color="#2CD5C4" stop-opacity="0.22"/><stop offset="1" stop-color="#2CD5C4" stop-opacity="0"/></radialGradient>
    <radialGradient id="h-coral"><stop offset="0" stop-color="#F65275" stop-opacity="0.75"/><stop offset="0.4" stop-color="#F65275" stop-opacity="0.22"/><stop offset="1" stop-color="#F65275" stop-opacity="0"/></radialGradient>
    <radialGradient id="h-violet"><stop offset="0" stop-color="#963CBD" stop-opacity="0.75"/><stop offset="0.4" stop-color="#963CBD" stop-opacity="0.22"/><stop offset="1" stop-color="#963CBD" stop-opacity="0"/></radialGradient>
    <radialGradient id="h-gold"><stop offset="0" stop-color="#FFB81C" stop-opacity="0.75"/><stop offset="0.4" stop-color="#FFB81C" stop-opacity="0.22"/><stop offset="1" stop-color="#FFB81C" stop-opacity="0"/></radialGradient>
    <filter id="blur3" x="-70%" y="-70%" width="240%" height="240%"><feGaussianBlur stdDeviation="3"/></filter>
    <filter id="blur8" x="-70%" y="-70%" width="240%" height="240%"><feGaussianBlur stdDeviation="8"/></filter>
    <filter id="blur18" x="-70%" y="-70%" width="240%" height="240%"><feGaussianBlur stdDeviation="18"/></filter>
    <filter id="blur40" x="-70%" y="-70%" width="240%" height="240%"><feGaussianBlur stdDeviation="40"/></filter>
  </defs>
  <rect width="1920" height="1080" fill="url(#sky)"/>
  <rect width="1920" height="1080" fill="url(#focus)"/>
  <g><circle cx="474.9" cy="676.9" r="2.6" fill="#CCF1FF" opacity="0.3"/><circle cx="380" cy="835.6" r="1.9" fill="#CCF1FF" opacity="0.2"/><circle cx="221.5" cy="149.3" r="2.5" fill="#CCF1FF" opacity="0.1"/><circle cx="1024.9" cy="349.4" r="1.5" fill="#CCF1FF" opacity="0.1"/><circle cx="698.5" cy="329.5" r="0.8" fill="#CCF1FF" opacity="0.4"/><circle cx="107.3" cy="541.2" r="2.3" fill="#CCF1FF" opacity="0.2"/><circle cx="60.9" cy="506.6" r="2.4" fill="#CCF1FF" opacity="0.3"/><circle cx="694.9" cy="319.9" r="1.7" fill="#CCF1FF" opacity="0.2"/><circle cx="1883.9" cy="433" r="1.4" fill="#CCF1FF" opacity="0.3"/><circle cx="668.2" cy="519.4" r="2.2" fill="#CCF1FF" opacity="0.3"/><circle cx="1914.6" cy="214.4" r="2.3" fill="#CCF1FF" opacity="0.2"/><circle cx="1170.1" cy="433" r="1.2" fill="#CCF1FF" opacity="0.2"/><circle cx="703.5" cy="173.4" r="1.4" fill="#CCF1FF" opacity="0.2"/><circle cx="612.6" cy="220" r="1.2" fill="#CCF1FF" opacity="0.3"/><circle cx="81.1" cy="445.7" r="2.4" fill="#CCF1FF" opacity="0.3"/><circle cx="696" cy="285.3" r="2.6" fill="#CCF1FF" opacity="0.4"/><circle cx="946.3" cy="857.6" r="0.8" fill="#CCF1FF" opacity="0.2"/><circle cx="953.1" cy="561.9" r="0.8" fill="#CCF1FF" opacity="0.1"/><circle cx="607.8" cy="755.8" r="1" fill="#CCF1FF" opacity="0.2"/><circle cx="1410.5" cy="231.3" r="1.9" fill="#CCF1FF" opacity="0.3"/><circle cx="624" cy="77.7" r="1.8" fill="#CCF1FF" opacity="0.3"/><circle cx="899.6" cy="990.7" r="2.6" fill="#CCF1FF" opacity="0.4"/><circle cx="1830.5" cy="323.2" r="1.8" fill="#CCF1FF" opacity="0.3"/><circle cx="1061.8" cy="492.5" r="1.2" fill="#CCF1FF" opacity="0.3"/><circle cx="355.8" cy="1048" r="1.4" fill="#CCF1FF" opacity="0.3"/><circle cx="417.3" cy="414.2" r="1.3" fill="#CCF1FF" opacity="0.4"/><circle cx="1078.1" cy="759.2" r="1.2" fill="#CCF1FF" opacity="0.3"/><circle cx="727.7" cy="725.1" r="2.3" fill="#CCF1FF" opacity="0.3"/><circle cx="932.2" cy="178.5" r="2.2" fill="#CCF1FF" opacity="0.3"/><circle cx="498.7" cy="989.9" r="2.6" fill="#CCF1FF" opacity="0.3"/><circle cx="1693.4" cy="742.6" r="2.2" fill="#CCF1FF" opacity="0.1"/><circle cx="761.1" cy="282.9" r="1.8" fill="#CCF1FF" opacity="0.1"/><circle cx="1359.6" cy="1053.4" r="1.6" fill="#CCF1FF" opacity="0.2"/><circle cx="1827.4" cy="563.8" r="1.1" fill="#CCF1FF" opacity="0.2"/><circle cx="1170.1" cy="199.7" r="0.9" fill="#CCF1FF" opacity="0.1"/><circle cx="630.2" cy="823.7" r="2.5" fill="#CCF1FF" opacity="0.1"/><circle cx="957.5" cy="856.2" r="2.3" fill="#CCF1FF" opacity="0.2"/><circle cx="1133.5" cy="826.4" r="2.3" fill="#CCF1FF" opacity="0.2"/><circle cx="534.1" cy="236.2" r="2.4" fill="#CCF1FF" opacity="0.2"/><circle cx="1446.3" cy="588.2" r="0.9" fill="#CCF1FF" opacity="0.3"/><circle cx="252.6" cy="365.9" r="1.6" fill="#CCF1FF" opacity="0.3"/><circle cx="145.4" cy="604.3" r="2.1" fill="#CCF1FF" opacity="0.2"/><circle cx="1764.4" cy="909.1" r="1.6" fill="#CCF1FF" opacity="0.3"/><circle cx="1812.9" cy="1072.1" r="2.5" fill="#CCF1FF" opacity="0.2"/><circle cx="182" cy="278.4" r="1.6" fill="#CCF1FF" opacity="0.1"/><circle cx="639.7" cy="464.2" r="2.3" fill="#CCF1FF" opacity="0.2"/><circle cx="1639.1" cy="15.2" r="1.7" fill="#CCF1FF" opacity="0.2"/><circle cx="1133.8" cy="640.9" r="1.8" fill="#CCF1FF" opacity="0.3"/><circle cx="1293.9" cy="675.9" r="1.2" fill="#CCF1FF" opacity="0.2"/><circle cx="1708.1" cy="254.3" r="0.9" fill="#CCF1FF" opacity="0.4"/><circle cx="486.2" cy="130.6" r="2.3" fill="#CCF1FF" opacity="0.3"/><circle cx="900.9" cy="1007.2" r="2.2" fill="#CCF1FF" opacity="0.1"/><circle cx="265.4" cy="247.6" r="2.4" fill="#CCF1FF" opacity="0.3"/><circle cx="1914.9" cy="651.1" r="2.5" fill="#CCF1FF" opacity="0.4"/><circle cx="1846.1" cy="877.5" r="1.1" fill="#CCF1FF" opacity="0.2"/></g>
  <circle cx="640" cy="540" r="360" fill="url(#h-violet)" opacity="0.3"/>
  <ellipse cx="1326" cy="540" rx="300" ry="430" fill="url(#h-cyan)" opacity="0.12"/>
  <g><path d="M 756 540 C 1006 540 906 240 1182 240" fill="none" stroke="#46BDE9" stroke-width="9" opacity="0.3" filter="url(#blur8)"/><path d="M 756 540 C 1006 540 906 240 1182 240" fill="none" stroke="#46BDE9" stroke-width="3.6" opacity="0.72"/><path d="M 756 540 C 1006 540 906 390 1182 390" fill="none" stroke="#2CD5C4" stroke-width="9" opacity="0.3" filter="url(#blur8)"/><path d="M 756 540 C 1006 540 906 390 1182 390" fill="none" stroke="#2CD5C4" stroke-width="3.6" opacity="0.72"/><path d="M 756 540 C 1006 540 906 540 1182 540" fill="none" stroke="#CCF1FF" stroke-width="9" opacity="0.3" filter="url(#blur8)"/><path d="M 756 540 C 1006 540 906 540 1182 540" fill="none" stroke="#CCF1FF" stroke-width="3.6" opacity="0.72"/><path d="M 756 540 C 1006 540 906 690 1182 690" fill="none" stroke="#963CBD" stroke-width="9" opacity="0.3" filter="url(#blur8)"/><path d="M 756 540 C 1006 540 906 690 1182 690" fill="none" stroke="#963CBD" stroke-width="3.6" opacity="0.72"/><path d="M 756 540 C 1006 540 906 840 1182 840" fill="none" stroke="#FFB81C" stroke-width="9" opacity="0.3" filter="url(#blur8)"/><path d="M 756 540 C 1006 540 906 840 1182 840" fill="none" stroke="#FFB81C" stroke-width="3.6" opacity="0.72"/></g>
  <g><circle cx="912.3" cy="467.5" r="20.8" fill="url(#h-cyan)" opacity="0.6"/><circle cx="912.3" cy="467.5" r="6.5" fill="#46BDE9" opacity="0.9"/><circle cx="979.4" cy="354.3" r="20.8" fill="url(#h-cyan)" opacity="0.6"/><circle cx="979.4" cy="354.3" r="6.5" fill="#46BDE9" opacity="0.9"/><circle cx="1065.3" cy="265.7" r="20.8" fill="url(#h-cyan)" opacity="0.6"/><circle cx="1065.3" cy="265.7" r="6.5" fill="#46BDE9" opacity="0.9"/><circle cx="912.3" cy="503.8" r="20.8" fill="url(#h-mint)" opacity="0.6"/><circle cx="912.3" cy="503.8" r="6.5" fill="#2CD5C4" opacity="0.9"/><circle cx="979.4" cy="447.2" r="20.8" fill="url(#h-mint)" opacity="0.6"/><circle cx="979.4" cy="447.2" r="6.5" fill="#2CD5C4" opacity="0.9"/><circle cx="1065.3" cy="402.8" r="20.8" fill="url(#h-mint)" opacity="0.6"/><circle cx="1065.3" cy="402.8" r="6.5" fill="#2CD5C4" opacity="0.9"/><circle cx="912.3" cy="540" r="20.8" fill="url(#h-ice)" opacity="0.6"/><circle cx="912.3" cy="540" r="6.5" fill="#CCF1FF" opacity="0.9"/><circle cx="979.4" cy="540" r="20.8" fill="url(#h-ice)" opacity="0.6"/><circle cx="979.4" cy="540" r="6.5" fill="#CCF1FF" opacity="0.9"/><circle cx="1065.3" cy="540" r="20.8" fill="url(#h-ice)" opacity="0.6"/><circle cx="1065.3" cy="540" r="6.5" fill="#CCF1FF" opacity="0.9"/><circle cx="912.3" cy="576.2" r="20.8" fill="url(#h-violet)" opacity="0.6"/><circle cx="912.3" cy="576.2" r="6.5" fill="#963CBD" opacity="0.9"/><circle cx="979.4" cy="632.8" r="20.8" fill="url(#h-violet)" opacity="0.6"/><circle cx="979.4" cy="632.8" r="6.5" fill="#963CBD" opacity="0.9"/><circle cx="1065.3" cy="677.2" r="20.8" fill="url(#h-violet)" opacity="0.6"/><circle cx="1065.3" cy="677.2" r="6.5" fill="#963CBD" opacity="0.9"/><circle cx="912.3" cy="612.5" r="20.8" fill="url(#h-gold)" opacity="0.6"/><circle cx="912.3" cy="612.5" r="6.5" fill="#FFB81C" opacity="0.9"/><circle cx="979.4" cy="725.7" r="20.8" fill="url(#h-gold)" opacity="0.6"/><circle cx="979.4" cy="725.7" r="6.5" fill="#FFB81C" opacity="0.9"/><circle cx="1065.3" cy="814.3" r="20.8" fill="url(#h-gold)" opacity="0.6"/><circle cx="1065.3" cy="814.3" r="6.5" fill="#FFB81C" opacity="0.9"/></g>
  <g><path d="M 1343.9 244.1 A 58 58 0 0 1 1335.2 270.7" fill="none" stroke="#00A3E0" stroke-width="15" opacity="0.9"/><path d="M 1330.4 277.3 A 58 58 0 0 1 1307.7 293.8" fill="none" stroke="#00A3E0" stroke-width="15" opacity="0.9"/><path d="M 1300 296.3 A 58 58 0 0 1 1272 296.3" fill="none" stroke="#46BDE9" stroke-width="15" opacity="0.9"/><path d="M 1264.3 293.8 A 58 58 0 0 1 1241.6 277.3" fill="none" stroke="#00A3E0" stroke-width="15" opacity="0.8"/><path d="M 1236.8 270.7 A 58 58 0 0 1 1228.1 244.1" fill="none" stroke="#46BDE9" stroke-width="15" opacity="0.6"/><path d="M 1228.1 235.9 A 58 58 0 0 1 1236.8 209.3" fill="none" stroke="#46BDE9" stroke-width="15" opacity="0.7"/><path d="M 1241.6 202.7 A 58 58 0 0 1 1264.3 186.2" fill="none" stroke="#00A3E0" stroke-width="15" opacity="0.9"/><path d="M 1272 183.7 A 58 58 0 0 1 1300 183.7" fill="none" stroke="#CCF1FF" stroke-width="15" opacity="0.9"/><path d="M 1307.7 186.2 A 58 58 0 0 1 1330.4 202.7" fill="none" stroke="#00A3E0" stroke-width="15" opacity="0.7"/><path d="M 1335.2 209.3 A 58 58 0 0 1 1343.9 235.9" fill="none" stroke="#CCF1FF" stroke-width="15" opacity="0.8"/><rect x="1206" y="369" width="48" height="42" rx="7" fill="#2CD5C4" opacity="0.7"/><line x1="1254" y1="390" x2="1268" y2="390" stroke="#2CD5C4" stroke-width="2.4" opacity="0.6"/><rect x="1268" y="369" width="48" height="42" rx="7" fill="#2CD5C4" opacity="0.4"/><line x1="1316" y1="390" x2="1330" y2="390" stroke="#2CD5C4" stroke-width="2.4" opacity="0.6"/><rect x="1330" y="369" width="48" height="42" rx="7" fill="#2CD5C4" opacity="0.5"/><line x1="1378" y1="390" x2="1392" y2="390" stroke="#2CD5C4" stroke-width="2.4" opacity="0.6"/><rect x="1392" y="369" width="48" height="42" rx="7" fill="#2CD5C4" opacity="0.7"/><rect x="1206" y="482" width="228" height="19" rx="9.5" fill="#CCF1FF" opacity="0.8"/><rect x="1206" y="511" width="194" height="19" rx="9.5" fill="#CCF1FF" opacity="0.7"/><rect x="1206" y="540" width="160" height="19" rx="9.5" fill="#CCF1FF" opacity="0.6"/><rect x="1206" y="569" width="126" height="19" rx="9.5" fill="#CCF1FF" opacity="0.5"/><rect x="1206" y="598" width="92" height="19" rx="9.5" fill="#CCF1FF" opacity="0.4"/><rect x="1206.9" y="637.9" width="20.2" height="20.2" rx="4" fill="none" stroke="#963CBD" stroke-width="1.8" opacity="0.34"/><rect x="1206.9" y="665.9" width="20.2" height="20.2" rx="4" fill="none" stroke="#963CBD" stroke-width="1.8" opacity="0.34"/><rect x="1206" y="693" width="22" height="22" rx="4" fill="#963CBD" opacity="0.8"/><rect x="1206" y="721" width="22" height="22" rx="4" fill="#963CBD" opacity="0.6"/><rect x="1234.9" y="637.9" width="20.2" height="20.2" rx="4" fill="none" stroke="#963CBD" stroke-width="1.8" opacity="0.34"/><rect x="1234.9" y="665.9" width="20.2" height="20.2" rx="4" fill="none" stroke="#963CBD" stroke-width="1.8" opacity="0.34"/><rect x="1234" y="693" width="22" height="22" rx="4" fill="#963CBD" opacity="0.7"/><rect x="1234.9" y="721.9" width="20.2" height="20.2" rx="4" fill="none" stroke="#963CBD" stroke-width="1.8" opacity="0.34"/><rect x="1262.9" y="637.9" width="20.2" height="20.2" rx="4" fill="none" stroke="#963CBD" stroke-width="1.8" opacity="0.34"/><rect x="1262.9" y="665.9" width="20.2" height="20.2" rx="4" fill="none" stroke="#963CBD" stroke-width="1.8" opacity="0.34"/><rect x="1262" y="693" width="22" height="22" rx="4" fill="#963CBD" opacity="0.6"/><rect x="1262.9" y="721.9" width="20.2" height="20.2" rx="4" fill="none" stroke="#963CBD" stroke-width="1.8" opacity="0.34"/><rect x="1290.9" y="637.9" width="20.2" height="20.2" rx="4" fill="none" stroke="#963CBD" stroke-width="1.8" opacity="0.34"/><rect x="1290" y="665" width="22" height="22" rx="4" fill="#963CBD" opacity="0.9"/><rect x="1290" y="693" width="22" height="22" rx="4" fill="#963CBD" opacity="0.7"/><rect x="1290" y="721" width="22" height="22" rx="4" fill="#963CBD" opacity="0.8"/><rect x="1318" y="637" width="22" height="22" rx="4" fill="#963CBD" opacity="0.7"/><rect x="1318" y="665" width="22" height="22" rx="4" fill="#963CBD" opacity="0.9"/><rect x="1318" y="693" width="22" height="22" rx="4" fill="#963CBD" opacity="0.8"/><rect x="1318" y="721" width="22" height="22" rx="4" fill="#963CBD" opacity="0.9"/><rect x="1346" y="637" width="22" height="22" rx="4" fill="#963CBD" opacity="0.7"/><rect x="1346" y="665" width="22" height="22" rx="4" fill="#963CBD" opacity="0.7"/><rect x="1346.9" y="693.9" width="20.2" height="20.2" rx="4" fill="none" stroke="#963CBD" stroke-width="1.8" opacity="0.34"/><rect x="1346" y="721" width="22" height="22" rx="4" fill="#963CBD" opacity="0.7"/><rect x="1374" y="637" width="22" height="22" rx="4" fill="#963CBD" opacity="0.8"/><rect x="1374.9" y="665.9" width="20.2" height="20.2" rx="4" fill="none" stroke="#963CBD" stroke-width="1.8" opacity="0.34"/><rect x="1374.9" y="693.9" width="20.2" height="20.2" rx="4" fill="none" stroke="#963CBD" stroke-width="1.8" opacity="0.34"/><rect x="1374.9" y="721.9" width="20.2" height="20.2" rx="4" fill="none" stroke="#963CBD" stroke-width="1.8" opacity="0.34"/><rect x="1402" y="637" width="22" height="22" rx="4" fill="#963CBD" opacity="0.9"/><rect x="1402.9" y="665.9" width="20.2" height="20.2" rx="4" fill="none" stroke="#963CBD" stroke-width="1.8" opacity="0.34"/><rect x="1402" y="693" width="22" height="22" rx="4" fill="#963CBD" opacity="0.6"/><rect x="1402" y="721" width="22" height="22" rx="4" fill="#963CBD" opacity="0.8"/><rect x="1206" y="787.9" width="14" height="104.1" rx="7" fill="#FFB81C" opacity="0.7"/><rect x="1228" y="807.1" width="14" height="65.8" rx="7" fill="#FFB81C" opacity="0.6"/><rect x="1250" y="803.7" width="14" height="72.6" rx="7" fill="#FFB81C" opacity="0.7"/><rect x="1272" y="823.1" width="14" height="33.8" rx="7" fill="#FFB81C" opacity="0.6"/><rect x="1294" y="788.2" width="14" height="103.6" rx="7" fill="#FFB81C" opacity="0.8"/><rect x="1316" y="810.9" width="14" height="58.2" rx="7" fill="#FFB81C" opacity="0.7"/><rect x="1338" y="799.8" width="14" height="80.5" rx="7" fill="#FFB81C" opacity="0.5"/><rect x="1360" y="786" width="14" height="108" rx="7" fill="#FFB81C" opacity="0.9"/><rect x="1382" y="818.8" width="14" height="42.3" rx="7" fill="#FFB81C" opacity="0.7"/><rect x="1404" y="810.3" width="14" height="59.4" rx="7" fill="#FFB81C" opacity="0.5"/><rect x="1426" y="817.5" width="14" height="44.9" rx="7" fill="#FFB81C" opacity="0.8"/></g>
  <circle cx="640" cy="540" r="158" fill="url(#scrim)"/>
  <g filter="url(#blur18)" opacity="0.5"><g transform="translate(554.1 442) scale(2.6849)"><path d="M 13.482285 60.694962 L 0.998384 52.884399 L 0.998384 19.502914 L 31.527868 2.001205 L 61.317604 19.532024 L 61.317604 54.64489 L 31.054855 71.68927 L 20.548372 65.115807 L 20.548372 51.041328 L 20.548372 49.119896 L 14.851504 45.555508 L 14.851504 27.453159 L 31.346497 17.99712 L 47.464485 27.482262 L 47.464485 46.451157 L 34.703495 53.638138 L 34.703495 45.998573 C 38.52874 44.52552 41.274452 40.739189 41.274452 36.270489 C 41.274452 30.510658 36.712814 25.88438 31.158138 25.88438 C 25.603172 25.88438 21.041817 30.510658 21.041817 36.270489 C 21.041817 40.739189 23.787249 44.52552 27.612494 45.998573 L 27.612494 60.473576 L 31.261133 62.756348 L 53.635483 50.15464 L 53.635483 23.924595 L 31.477489 10.884869 L 8.680504 23.953705 L 8.680504 48.628967 L 13.482285 51.633297 L 13.482285 60.694962 Z M 31.158138 31.498383 C 33.671822 31.498383 35.660439 33.664162 35.660439 36.270489 C 35.660439 38.876804 33.671822 41.042587 31.158138 41.042587 C 28.644447 41.042587 26.655558 38.876804 26.655558 36.270489 C 26.655558 33.664162 28.644447 31.498383 31.158138 31.498383 Z" fill="#FFFFFF" fill-rule="evenodd"/></g></g>
  <g><g transform="translate(554.1 442) scale(2.6849)"><path d="M 13.482285 60.694962 L 0.998384 52.884399 L 0.998384 19.502914 L 31.527868 2.001205 L 61.317604 19.532024 L 61.317604 54.64489 L 31.054855 71.68927 L 20.548372 65.115807 L 20.548372 51.041328 L 20.548372 49.119896 L 14.851504 45.555508 L 14.851504 27.453159 L 31.346497 17.99712 L 47.464485 27.482262 L 47.464485 46.451157 L 34.703495 53.638138 L 34.703495 45.998573 C 38.52874 44.52552 41.274452 40.739189 41.274452 36.270489 C 41.274452 30.510658 36.712814 25.88438 31.158138 25.88438 C 25.603172 25.88438 21.041817 30.510658 21.041817 36.270489 C 21.041817 40.739189 23.787249 44.52552 27.612494 45.998573 L 27.612494 60.473576 L 31.261133 62.756348 L 53.635483 50.15464 L 53.635483 23.924595 L 31.477489 10.884869 L 8.680504 23.953705 L 8.680504 48.628967 L 13.482285 51.633297 L 13.482285 60.694962 Z M 31.158138 31.498383 C 33.671822 31.498383 35.660439 33.664162 35.660439 36.270489 C 35.660439 38.876804 33.671822 41.042587 31.158138 41.042587 C 28.644447 41.042587 26.655558 38.876804 26.655558 36.270489 C 26.655558 33.664162 28.644447 31.498383 31.158138 31.498383 Z" fill="#FFFFFF" fill-rule="evenodd"/></g></g>
  <g opacity="0.92"><g transform="translate(214.8 132.7) scale(0.69398)"><path d="M15.2,50l-9.4-5.9v-25L28.8,6l22.3,13.1v26.3l-22.7,12.8-7.9-4.9v-12l-4.3-2.7v-13.6l12.4-7.1,12.1,7.1v14.2l-9.6,5.4v-5.7c2.9-1.1,4.9-3.9,4.9-7.3s-3.4-7.8-7.6-7.8-7.6,3.5-7.6,7.8,2.1,6.2,4.9,7.3v10.9l2.7,1.7,16.8-9.5v-19.7l-16.6-9.8-17.1,9.8v18.5l3.6,2.3v6.8ZM28.5,28.1c1.9,0,3.4,1.6,3.4,3.6s-1.5,3.6-3.4,3.6-3.4-1.6-3.4-3.6,1.5-3.6,3.4-3.6Z" fill="#FFFFFF" fill-rule="evenodd"/><path d="M85.2,11.4l-12.1,33.8h-4l-12.1-33.8h4.1l7.9,22.3c.3.9.6,1.8.9,2.6.3.8.5,1.6.7,2.4.2.8.4,1.5.5,2.2.2-.7.3-1.4.5-2.2.2-.8.4-1.6.7-2.4.3-.8.6-1.7.9-2.6l7.9-22.2h4.2Z" fill="#FFFFFF"/><path d="M94,19.5c3,0,5.3.7,6.7,2,1.5,1.4,2.2,3.5,2.2,6.5v17.2h-2.8l-.7-3.7h-.2c-.7.9-1.4,1.7-2.2,2.3-.8.6-1.7,1.1-2.7,1.4-1,.3-2.2.5-3.7.5s-2.9-.3-4.1-.8c-1.2-.5-2.1-1.4-2.8-2.5-.7-1.1-1-2.5-1-4.2,0-2.5,1-4.5,3-5.8,2-1.4,5.1-2.1,9.2-2.2l4.4-.2v-1.5c0-2.2-.5-3.7-1.4-4.6-.9-.9-2.3-1.3-4-1.3-1.3,0-2.6.2-3.8.6-1.2.4-2.3.8-3.4,1.4l-1.2-2.9c1.1-.6,2.5-1.1,3.9-1.5,1.5-.4,3-.6,4.7-.6h0ZM99.1,32.8l-3.9.2c-3.2.1-5.4.6-6.7,1.5s-1.9,2.2-1.9,3.9.4,2.5,1.3,3.2c.9.7,2,1,3.5,1,2.3,0,4.1-.6,5.5-1.9s2.2-3.1,2.2-5.6v-2.3Z" fill="#FFFFFF"/><path d="M112.1,45.3h-3.9V9.3h3.9v36Z" fill="#FFFFFF"/><path d="M121.3,9.3v18.7c0,.6,0,1.4,0,2.3,0,.9,0,1.7-.1,2.3h.2c.3-.4.8-1,1.4-1.8.6-.8,1.2-1.4,1.6-1.9l8.4-9h4.5l-10.2,10.8,10.9,14.5h-4.6l-9-12-3.1,2.8v9.2h-3.8V9.3h3.8Z" fill="#FFFFFF"/><path d="M148.2,19.4c2.2,0,4,.5,5.6,1.4,1.5,1,2.7,2.3,3.5,4,.8,1.7,1.2,3.7,1.2,6v2.4h-17.5c0,3,.8,5.2,2.2,6.8s3.5,2.3,6.1,2.3,3-.1,4.3-.4c1.2-.3,2.5-.7,3.8-1.3v3.4c-1.3.6-2.6,1-3.8,1.2-1.2.3-2.7.4-4.4.4-2.4,0-4.6-.5-6.4-1.5-1.8-1-3.2-2.5-4.2-4.4-1-1.9-1.5-4.3-1.5-7.1,0-2.7.5-5.1,1.4-7.1.9-2,2.2-3.5,3.9-4.6,1.7-1.1,3.7-1.6,5.9-1.6h0ZM148.2,22.6c-2.1,0-3.7.7-4.9,2-1.2,1.3-1.9,3.2-2.2,5.6h13.4c0-1.5-.3-2.8-.7-4-.4-1.2-1.1-2.1-2.1-2.7-.9-.6-2.1-1-3.6-1Z" fill="#FFFFFF"/><path d="M158.4,19.9h4.1l5.6,14.7c.3.9.6,1.7.9,2.5.3.8.5,1.5.7,2.3.2.7.4,1.4.5,2.1h.2c.2-.8.5-1.8.9-3,.4-1.3.8-2.6,1.3-3.9l5.3-14.7h4.1l-11,29.1c-.6,1.6-1.3,2.9-2.1,4.1-.8,1.2-1.7,2-2.8,2.7-1.1.6-2.5.9-4,.9s-1.4,0-1.9-.1c-.6,0-1-.2-1.4-.3v-3.1c.3,0,.7.1,1.2.2.5,0,1,0,1.5,0,1,0,1.8-.2,2.5-.6.7-.4,1.3-.9,1.8-1.6.5-.7.9-1.5,1.3-2.5l1.4-3.6-10.2-25.4Z" fill="#FFFFFF"/></g></g>
  <rect width="1920" height="1080" fill="url(#vignette)"/>
  <rect width="1920" height="1080" filter="url(#grain)" opacity="0.055" style="mix-blend-mode:overlay"/>
</svg>
